<svg width="210" height="210" viewBox="0 0 210 210" fill="none" xmlns="http://www.w3.org/2000/svg">
<path d="M21.1524 0.574374C21.1524 25.3383 26.041 49.8598 35.5392 72.7386C45.0373 95.6176 58.9589 116.406 76.5092 133.917C94.0595 151.427 114.895 165.318 137.825 174.794C160.756 184.271 185.333 189.149 210.152 189.149L210.152 106.248C196.244 106.248 182.471 103.515 169.621 98.2044C156.772 92.8938 145.096 85.1099 135.261 75.2972C125.426 65.4844 117.625 53.835 112.302 41.0141C106.979 28.1931 104.24 14.4517 104.24 0.574367L21.1524 0.574374Z" fill="#F4F7FB" fill-opacity="0.9"/>
<path d="M0.541569 0.500021C0.541574 47.9258 16.7132 93.9409 46.3991 130.984" stroke="white" stroke-width="1.08316"/>
<path d="M61.8901 148.255C95.5055 181.791 139.556 202.921 186.804 208.173" stroke="white" stroke-width="1.08316"/>
</svg>
