<svg width="174" height="204" viewBox="0 0 174 204" fill="none" xmlns="http://www.w3.org/2000/svg">
<g opacity="0.74">
<path d="M115.669 149.468C115.669 179.449 91.3648 203.753 61.3838 203.753L57.9373 203.753L57.9373 88.2891L115.669 88.2891L115.669 149.468Z" fill="#479592"/>
<path d="M57.9375 173.195C26.053 173.195 0.205565 147.348 0.205564 115.463L0.205561 57.7315L57.9375 57.7315L57.9375 173.195Z" fill="#165856"/>
<path d="M116.234 143.943C148.025 143.943 173.797 169.715 173.797 201.506L173.797 203.762L116.234 203.762L116.234 143.943Z" fill="#165856"/>
<mask id="mask0_538_20585" style="mask-type:alpha" maskUnits="userSpaceOnUse" x="-80" y="12" width="206" height="207">
<path d="M-77.568 210.325L-75.3183 210.325L-71.2296 214.217L-67.1409 218.109L-64.4978 218.109L-61.8547 218.109L-61.8547 214.217L-61.8547 210.325L-53.9852 210.325L-46.1157 210.325L-46.1157 214.217L-46.1157 218.109L-43.4897 218.109L-40.8552 218.109L-36.775 214.217L-32.6949 210.325L-28.341 210.325L-23.9957 210.325L-19.907 214.217L-15.8183 218.109L-13.1751 218.109L-10.532 218.109L-10.532 214.217L-10.532 210.325L-2.66254 210.325L5.20696 210.325L5.20696 214.217L5.20696 218.109L7.83297 218.109L10.4675 218.109L14.5477 214.217L18.6278 210.325L22.9817 210.325L27.327 210.325L31.4157 214.217L35.5045 218.109L38.1476 218.109L40.7907 218.109L40.7907 214.217L40.7907 210.325L48.6602 210.325L56.5296 210.325L56.5296 214.217L56.5296 218.109L59.1557 218.109L61.7902 218.109L65.8704 214.217L69.9505 210.325L74.3044 210.325L78.6497 210.325L82.7384 214.217L86.8272 218.109L89.4703 218.109L92.1134 218.109L92.1134 214.217L92.1134 210.325L99.9829 210.325L107.852 210.325L107.852 214.217L107.852 218.109L110.478 218.109L113.113 218.109L117.193 214.217L121.273 210.325L123.377 210.325L125.473 210.325L125.473 209.342L125.473 208.358L123.591 208.358L121.709 208.358L121.692 202.43L121.667 196.511L115.739 196.485L109.82 196.468L109.82 192.534L109.82 188.599L115.765 188.599L121.709 188.599L121.709 182.697L121.709 176.795L123.591 176.795L125.473 176.795L125.473 175.811L125.473 174.827L123.412 174.827L121.359 174.827L120.871 174.374C119.092 172.723 113.104 166.983 113.087 166.915C113.079 166.864 114.909 165.067 117.167 162.912L121.273 159.003L123.377 159.003L125.473 159.003L125.473 158.019L125.473 157.035L123.591 157.035L121.709 157.035L121.692 151.108L121.667 145.188L115.739 145.163L109.82 145.146L109.82 141.211L109.82 137.276L115.765 137.276L121.709 137.276L121.709 131.374L121.709 125.472L123.591 125.472L125.473 125.472L125.473 124.488L125.473 123.505L123.42 123.505L121.367 123.505L120.597 122.795C118.81 121.161 113.087 115.669 113.079 115.584C113.07 115.541 114.918 113.736 117.176 111.589L121.273 107.68L123.377 107.68L125.473 107.68L125.473 106.696L125.473 105.713L123.591 105.713L121.709 105.713L121.692 99.7849L121.667 93.8657L115.739 93.84L109.82 93.8229L109.82 89.8882L109.82 85.9534L115.765 85.9534L121.709 85.9534L121.709 80.0513L121.709 74.1492L123.591 74.1492L125.473 74.1492L125.473 73.1228L125.473 72.0963L123.352 72.0963L121.239 72.0963L117.159 68.2214C114.918 66.1001 113.079 64.3124 113.079 64.261C113.07 64.2183 114.918 62.4134 117.176 60.2664L121.273 56.3573L123.377 56.3573L125.473 56.3573L125.473 55.3737L125.473 54.39L123.591 54.39L121.709 54.39L121.692 48.4622L121.667 42.543L115.739 42.5173L109.82 42.5002L109.82 38.5655L109.82 34.6307L115.765 34.6307L121.709 34.6307L121.709 28.7286L121.709 22.8265L123.591 22.8265L125.473 22.8265L125.473 21.8428L125.473 20.8591L123.412 20.8591L121.359 20.8591L120.871 20.4058C118.853 18.5325 113.104 13.0153 113.087 12.9298C113.062 12.8442 112.48 12.8186 110.453 12.8186L107.852 12.8186L107.835 16.8132L107.81 20.8164L99.9572 20.842L92.1134 20.8591L92.1134 16.8389L92.1134 12.8186L89.5045 12.8186C88.0674 12.8186 86.8956 12.8528 86.8956 12.8956C86.8956 12.9298 85.4243 14.3668 83.628 16.0776C81.8232 17.7883 79.9585 19.5675 79.4794 20.0209L78.607 20.8591L74.3215 20.8591L70.0361 20.8591L69.5485 20.4058C67.5298 18.5325 61.7817 13.0153 61.7646 12.9298C61.7389 12.8442 61.1572 12.8186 59.13 12.8186L56.5296 12.8186L56.5125 16.8132L56.4869 20.8164L48.6345 20.842L40.7907 20.8591L40.7907 16.8389L40.7907 12.8186L38.1818 12.8186C36.7447 12.8186 35.5729 12.8528 35.5729 12.8956C35.5729 12.9298 34.1016 14.3668 32.3053 16.0776C30.5005 17.7883 28.6358 19.5675 28.1568 20.0209L27.2843 20.8592L22.9988 20.8592L18.7134 20.8592L18.2258 20.4058C16.2071 18.5325 10.459 13.0153 10.4419 12.9298C10.4162 12.8442 9.83454 12.8186 7.80729 12.8186L5.20695 12.8186L5.18983 16.8132L5.16418 20.8164L-2.6882 20.842L-10.532 20.8592L-10.532 16.8389L-10.532 12.8186L-13.1409 12.8186C-14.578 12.8186 -15.7498 12.8528 -15.7498 12.8956C-15.7498 12.9298 -17.2211 14.3668 -19.0174 16.0776C-20.8222 17.7883 -22.6869 19.5675 -23.1659 20.0209L-24.0384 20.8592L-28.3239 20.8592L-32.6093 20.8592L-33.0969 20.4058C-35.1156 18.5325 -40.8637 13.0153 -40.8808 12.9298C-40.9065 12.8442 -41.4882 12.8186 -43.5154 12.8186L-46.1157 12.8186L-46.1329 16.8132L-46.1585 20.8164L-54.0109 20.842L-61.8547 20.8592L-61.8547 16.8389L-61.8547 12.8186L-64.4636 12.8186C-65.9007 12.8186 -67.0725 12.8528 -67.0725 12.8956C-67.0725 12.9298 -68.5438 14.3668 -70.3401 16.0776C-72.1449 17.7883 -74.0096 19.5675 -74.4887 20.0209L-75.3611 20.8592L-77.5851 20.8592L-79.8177 20.8592L-79.8177 21.8428L-79.8177 22.8265L-77.7647 22.8265L-75.7118 22.8265L-75.7118 28.7286L-75.7118 34.6307L-69.8097 34.6307L-63.9076 34.6307L-63.9076 38.5655L-63.9076 42.5002L-69.8097 42.5002L-75.7118 42.5002L-75.7118 48.4451L-75.7118 54.39L-77.7647 54.39L-79.8176 54.39L-79.8176 55.3737L-79.8176 56.3574L-77.568 56.3574L-75.3098 56.3574L-71.2125 60.2579C-68.9629 62.4049 -67.1153 64.2012 -67.1153 64.2439C-67.1153 64.2867 -68.9458 66.0744 -71.1783 68.2043L-75.2414 72.0877L-77.5338 72.0877L-79.8176 72.0963L-79.8176 73.1228L-79.8176 74.1492L-77.7647 74.1492L-75.7118 74.1492L-75.7118 80.0513L-75.7118 85.9534L-69.8097 85.9534L-63.9076 85.9534L-63.9076 89.8882L-63.9076 93.8229L-69.8097 93.8229L-75.7118 93.8229L-75.7118 99.7678L-75.7118 105.713L-77.7647 105.713L-79.8176 105.713L-79.8176 106.696L-79.8176 107.68L-77.5595 107.68L-75.3098 107.68L-71.2125 111.581C-68.9629 113.728 -67.1067 115.515 -67.0896 115.55C-67.064 115.618 -75.1644 123.351 -75.3611 123.436C-75.4381 123.47 -76.4731 123.496 -77.6621 123.496L-79.8176 123.505L-79.8176 124.488L-79.8176 125.472L-77.7647 125.472L-75.7118 125.472L-75.7118 131.374L-75.7118 137.276L-69.8097 137.276L-63.9076 137.276L-63.9076 141.211L-63.9076 145.146L-69.8097 145.146L-75.7118 145.146L-75.7118 151.09L-75.7118 157.035L-77.7647 157.035L-79.8176 157.035L-79.8176 158.019L-79.8176 159.003L-77.568 159.003L-75.3183 159.003L-71.2125 162.903C-68.9629 165.05 -67.1067 166.838 -67.0896 166.864C-67.0811 166.898 -68.5438 168.335 -70.3401 170.046C-72.1449 171.756 -74.0096 173.536 -74.4886 173.989L-75.3611 174.827L-77.5851 174.827L-79.8176 174.827L-79.8176 175.811L-79.8176 176.795L-77.7647 176.795L-75.7118 176.795L-75.7118 182.697L-75.7118 188.599L-69.8097 188.599L-63.9076 188.599L-63.9076 192.534L-63.9076 196.468L-69.8097 196.468L-75.7118 196.468L-75.7118 202.413L-75.7118 208.358L-77.7647 208.358L-79.8176 208.358L-79.8176 209.342L-79.8176 210.325L-77.568 210.325ZM-68.6122 198.453L-63.5141 198.436L-59.2629 202.884L-55.0117 207.332L-55.0117 207.845L-55.0117 208.358L-59.4425 208.375L-63.8649 208.401L-63.8905 212.823L-63.9076 217.254L-64.3695 217.254L-64.8314 217.254L-69.2879 213.003L-73.7445 208.743L-73.7274 203.611L-73.7017 198.478L-68.6122 198.453ZM-69.3307 172.158L-64.9255 167.941L-64.4208 167.916L-63.9076 167.89L-63.8905 172.321L-63.8649 176.752L-59.434 176.778L-55.0031 176.795L-55.0288 177.308L-55.0544 177.821L-59.2458 182.218L-63.4372 186.614L-68.5951 186.623L-73.7445 186.631L-73.7445 181.499L-73.7445 176.375L-69.3307 172.158ZM-68.6122 147.13L-63.5141 147.113L-59.2629 151.561L-55.0117 156.009L-55.0117 156.522L-55.0117 157.035L-59.4425 157.052L-63.8649 157.078L-63.8905 161.5L-63.9076 165.931L-64.3695 165.931L-64.8314 165.931L-69.2879 161.672L-73.7445 157.42L-73.7274 152.288L-73.7017 147.156L-68.6122 147.13ZM-69.3307 120.836L-64.9255 116.619L-64.4208 116.593L-63.9076 116.567L-63.8905 120.998L-63.8649 125.429L-59.434 125.455L-55.0031 125.472L-55.0288 125.985L-55.0544 126.498L-59.2458 130.895L-63.4372 135.292L-68.5951 135.3L-73.7445 135.309L-73.7445 130.176L-73.7445 125.053L-69.3307 120.836ZM-68.6122 95.8074L-63.5141 95.7903L-59.2629 100.238L-55.0117 104.678L-55.0117 105.199L-55.0117 105.713L-59.4425 105.73L-63.8649 105.755L-63.8905 110.178L-63.9076 114.609L-64.3695 114.609L-64.8314 114.609L-69.2879 110.349L-73.7445 106.098L-73.7274 100.965L-73.7017 95.8331L-68.6122 95.8074ZM-69.3222 69.496L-64.8913 65.2533L-64.4037 65.2533L-63.9076 65.2533L-63.8905 69.6756L-63.8649 74.1064L-59.4425 74.1321L-55.0117 74.1492L-55.0117 74.6453L-55.0117 75.1329L-57.4666 77.699C-58.8096 79.1104 -60.7171 81.1034 -61.7093 82.1213L-63.497 83.9861L-68.6207 83.9861L-73.7445 83.9861L-73.7445 78.8538L-73.7445 73.7301L-69.3222 69.496ZM-68.6036 44.4847L-63.5141 44.4676L-59.2629 48.9156L-55.0117 53.355L-55.0117 53.8767L-55.0117 54.39L-59.4425 54.4071L-63.8649 54.4327L-63.8905 58.855L-63.9076 63.2859L-64.3695 63.2859L-64.8314 63.2859L-69.2879 59.0261L-73.7445 54.7749L-73.7188 49.6426L-73.7017 44.5104L-68.6036 44.4847ZM-69.3307 18.1904L-64.9255 13.9734L-64.4208 13.9477L-63.9076 13.922L-63.8905 18.3529L-63.8649 22.7837L-59.434 22.8094L-55.0031 22.8265L-55.0288 23.3397L-55.0545 23.853L-59.2458 28.2496L-63.4372 32.6463L-68.5951 32.6548L-73.7445 32.6634L-73.7445 27.5311L-73.7445 22.4074L-69.3307 18.1904ZM-57.9456 184.057C-55.7986 181.807 -54.0109 179.968 -53.9767 179.977C-53.9424 179.994 -52.1633 181.85 -50.0163 184.1L-46.1157 188.205L-46.1243 192.568L-46.1243 196.939L-50.0077 201.002C-52.1376 203.234 -53.9339 205.065 -54.0023 205.065C-54.0622 205.065 -55.8585 203.234 -57.9884 201.002L-61.8547 196.939L-61.8547 192.551L-61.8547 188.163L-57.9456 184.057ZM-53.9852 159.003L-46.1157 159.003L-46.1329 166.889L-46.1585 174.784L-54.0109 174.81L-61.8547 174.827L-61.8547 166.915L-61.8547 159.003L-53.9852 159.003ZM-57.9456 132.734C-55.7986 130.484 -54.0109 128.645 -53.9767 128.654C-53.9424 128.671 -52.1633 130.527 -50.0163 132.777L-46.1157 136.883L-46.1243 141.245L-46.1243 145.616L-50.0077 149.679C-52.1376 151.912 -53.9339 153.751 -53.9938 153.759C-54.0622 153.768 -55.8585 151.937 -57.9884 149.696L-61.8547 145.625L-61.8547 141.228L-61.8547 136.84L-57.9456 132.734ZM-53.9852 107.68L-46.1157 107.68L-46.1329 115.567L-46.1585 123.462L-54.0109 123.487L-61.8547 123.505L-61.8547 115.592L-61.8547 107.68L-53.9852 107.68ZM-57.9456 81.4114C-55.7986 79.1617 -54.0109 77.3227 -53.9767 77.3312C-53.9425 77.3483 -52.1633 79.2045 -50.0163 81.4541L-46.1157 85.5514L-46.1243 89.9224L-46.1243 94.2934L-50.0077 98.3564C-52.1376 100.589 -53.9339 102.428 -53.9938 102.437C-54.0622 102.445 -55.8585 100.615 -57.9798 98.3735L-61.8547 94.2934L-61.8547 89.9053L-61.8547 85.5172L-57.9456 81.4114ZM-53.9852 56.3574L-46.1157 56.3574L-46.1157 64.2268L-46.1157 72.0963L-53.9852 72.0963L-61.8547 72.0963L-61.8547 64.2268L-61.8547 56.3574L-53.9852 56.3574ZM-57.9456 30.0887C-55.7986 27.839 -54.0109 26 -53.9767 26.0085C-53.9425 26.0256 -52.1633 27.8818 -50.0163 30.1314L-46.1157 34.2373L-46.1243 38.5997L-46.1243 42.9707L-50.0077 47.0337C-52.1376 49.2663 -53.9339 51.1053 -54.0023 51.1139C-54.0622 51.1224 -55.8585 49.2919 -57.9799 47.0508L-61.8547 42.9707L-61.8547 38.5826L-61.8547 34.1945L-57.9456 30.0887ZM-52.4199 206.741C-52.0777 206.382 -50.1446 204.372 -48.1344 202.259L-44.482 198.436L-39.3754 198.453L-34.2688 198.478L-34.2431 203.577L-34.226 208.675L-35.0557 209.487C-35.5176 209.941 -37.5277 211.874 -39.5293 213.781L-43.1647 217.254L-43.6351 217.237L-44.1056 217.211L-44.1313 212.78L-44.1484 208.358L-48.5365 208.358C-50.9572 208.358 -52.9588 208.332 -52.9844 208.298C-53.0186 208.273 -53.0443 208.05 -53.0443 207.819C-53.0443 207.409 -53.0272 207.374 -52.4199 206.741ZM-48.622 176.778L-44.1911 176.752L-44.1655 172.321L-44.1484 167.899L-43.6351 167.899L-43.1219 167.899L-38.674 172.15L-34.226 176.401L-34.2431 181.499L-34.2688 186.589L-39.401 186.614L-44.5333 186.631L-48.7931 182.175L-53.0443 177.718L-53.0443 177.257L-53.0443 176.795L-48.622 176.778ZM-52.4626 155.461C-52.1376 155.128 -50.213 153.109 -48.1772 150.979L-44.4734 147.113L-39.3754 147.13L-34.2688 147.156L-34.2688 152.288L-34.2688 157.42L-38.7167 161.68L-43.1647 165.931L-43.6351 165.914L-44.1056 165.889L-44.1313 161.458L-44.1484 157.035L-48.5365 157.035C-50.9572 157.035 -52.9588 157.01 -52.9844 156.975C-53.0186 156.95 -53.0443 156.727 -53.0443 156.496C-53.0443 156.094 -53.0186 156.052 -52.4626 155.461ZM-48.622 125.455L-44.1912 125.429L-44.1655 120.998L-44.1484 116.576L-43.6351 116.576L-43.1219 116.576L-38.674 120.827L-34.226 125.078L-34.2431 130.176L-34.2688 135.266L-39.401 135.292L-44.5333 135.309L-48.7931 130.852L-53.0443 126.396L-53.0443 125.934L-53.0443 125.472L-48.622 125.455ZM-52.4627 104.139C-52.1376 103.805 -50.213 101.786 -48.1772 99.6566L-44.482 95.7903L-39.3754 95.8074L-34.2688 95.8331L-34.2688 100.965L-34.2688 106.089L-38.7167 110.349L-43.1647 114.609L-43.6351 114.591L-44.1056 114.566L-44.1313 110.135L-44.1484 105.713L-48.5365 105.713C-50.9572 105.713 -52.9588 105.687 -52.9844 105.653C-53.0187 105.627 -53.0443 105.405 -53.0443 105.174C-53.0443 104.772 -53.0187 104.729 -52.4627 104.139ZM-48.622 74.1321L-44.1912 74.1064L-44.1655 69.6756L-44.1484 65.2533L-43.6351 65.2533L-43.1134 65.2533L-38.674 69.5045L-34.226 73.7557L-34.2431 78.8452L-34.2688 83.9433L-39.401 83.9604L-44.5333 83.9861L-48.7931 79.5295L-53.0443 75.073L-53.0443 74.6111L-53.0443 74.1492L-48.622 74.1321ZM-48.7418 48.9156L-44.482 44.4676L-39.3754 44.4847L-34.2688 44.5104L-34.2431 49.6084L-34.226 54.715L-36.0822 56.5028C-37.1086 57.495 -39.1188 59.4196 -40.5558 60.7968L-43.1647 63.2859L-43.6351 63.2688L-44.1056 63.2431L-44.1313 58.8123L-44.1484 54.39L-48.5365 54.39C-50.9572 54.39 -52.9588 54.3643 -52.993 54.3301C-53.0272 54.2959 -53.0443 54.0649 -53.0272 53.8169L-53.0015 53.3721L-48.7418 48.9156ZM-48.622 22.8094L-44.1912 22.7837L-44.1655 18.3529L-44.1484 13.9306L-43.6351 13.9306L-43.1219 13.9306L-38.674 18.1818L-34.226 22.4331L-34.226 27.5482L-34.226 32.6634L-39.3839 32.6634L-44.5333 32.6634L-48.7931 28.2069L-53.0443 23.7503L-53.0443 23.2884L-53.0443 22.8265L-48.622 22.8094ZM-38.2035 188.599L-32.2586 188.599L-32.2586 182.697L-32.2586 176.795L-28.3239 176.795L-24.3891 176.795L-24.3891 182.697L-24.3891 188.599L-18.487 188.599L-12.5849 188.599L-12.5849 192.534L-12.5849 196.468L-18.487 196.468L-24.3891 196.468L-24.3891 202.413L-24.3891 208.358L-28.3239 208.358L-32.2586 208.358L-32.2757 202.43L-32.3014 196.511L-38.2292 196.485L-44.1484 196.468L-44.1484 192.534L-44.1484 188.599L-38.2035 188.599ZM-38.2035 137.276L-32.2586 137.276L-32.2586 131.374L-32.2586 125.472L-28.3239 125.472L-24.3891 125.472L-24.3891 131.374L-24.3891 137.276L-18.487 137.276L-12.5849 137.276L-12.5849 141.211L-12.5849 145.146L-18.487 145.146L-24.3891 145.146L-24.3891 151.09L-24.3891 157.035L-28.3239 157.035L-32.2586 157.035L-32.2757 151.108L-32.3014 145.188L-38.2292 145.163L-44.1484 145.146L-44.1484 141.211L-44.1484 137.276L-38.2035 137.276ZM-38.2035 85.9534L-32.2586 85.9534L-32.2586 80.0513L-32.2586 74.1492L-28.3239 74.1492L-24.3891 74.1492L-24.3891 80.0513L-24.3891 85.9534L-18.487 85.9534L-12.5849 85.9534L-12.5849 89.8882L-12.5849 93.8229L-18.487 93.8229L-24.3891 93.8229L-24.3891 99.7678L-24.3891 105.713L-28.3239 105.713L-32.2586 105.713L-32.2757 99.7849L-32.3014 93.8657L-38.2292 93.84L-44.1484 93.8229L-44.1484 89.8882L-44.1484 85.9534L-38.2035 85.9534ZM-38.2035 34.6307L-32.2586 34.6307L-32.2586 28.7286L-32.2586 22.8265L-28.3239 22.8265L-24.3891 22.8265L-24.3891 28.7286L-24.3891 34.6307L-18.487 34.6307L-12.5849 34.6307L-12.5849 38.5655L-12.5849 42.5002L-18.487 42.5002L-24.3891 42.5002L-24.3891 48.4451L-24.3891 54.39L-28.3239 54.39L-32.2586 54.39L-32.2757 48.4622L-32.3014 42.543L-38.2292 42.5173L-44.1484 42.5002L-44.1484 38.5655L-44.1484 34.6307L-38.2035 34.6307ZM-36.7921 162.912L-32.6949 159.003L-28.341 159.003L-23.9957 159.003L-19.8898 162.903C-17.6402 165.05 -15.784 166.838 -15.7669 166.864C-15.7584 166.898 -17.2211 168.335 -19.0174 170.046C-20.8222 171.756 -22.6869 173.536 -23.1659 173.989L-24.0384 174.827L-28.3153 174.827L-32.6008 174.827L-33.3706 174.117C-35.2011 172.449 -40.8894 166.992 -40.8894 166.906C-40.8979 166.864 -39.0503 165.059 -36.7921 162.912ZM-36.7921 111.589L-32.6949 107.68L-28.341 107.68L-23.9871 107.68L-19.8899 111.581C-17.6402 113.728 -15.784 115.515 -15.7669 115.55C-15.7413 115.618 -23.8417 123.351 -24.0384 123.436C-24.1154 123.47 -26.0742 123.496 -28.3837 123.496L-32.6008 123.505L-33.3706 122.795C-35.1584 121.161 -40.8808 115.669 -40.8894 115.584C-40.8979 115.541 -39.0503 113.736 -36.7921 111.589ZM-36.7921 60.2664L-32.6949 56.3574L-28.341 56.3574L-23.9871 56.3574L-19.8899 60.2579C-17.6402 62.4049 -15.7926 64.2012 -15.7926 64.2439C-15.7926 64.2867 -17.6231 66.0744 -19.8556 68.2043L-23.9187 72.0877L-28.3239 72.0877L-32.7291 72.0963L-36.8092 68.2214C-39.0503 66.1001 -40.8894 64.3124 -40.8894 64.261C-40.8979 64.2183 -39.0503 62.4134 -36.7921 60.2664ZM-17.2895 198.453L-12.1914 198.436L-7.9402 202.884L-3.68898 207.332L-3.68898 207.845L-3.68898 208.358L-8.11984 208.375L-12.5421 208.401L-12.5678 212.823L-12.5849 217.254L-13.0468 217.254L-13.5087 217.254L-17.9652 213.003L-22.4218 208.743L-22.4046 203.611L-22.379 198.478L-17.2895 198.453ZM-18.008 172.158L-13.6028 167.941L-13.0981 167.916L-12.5849 167.89L-12.5678 172.321L-12.5421 176.752L-8.11128 176.778L-3.68042 176.795L-3.70609 177.308L-3.73175 177.821L-7.9231 182.218L-12.1145 186.614L-17.2724 186.623L-22.4218 186.631L-22.4218 181.499L-22.4218 176.375L-18.008 172.158ZM-17.2895 147.13L-12.1914 147.113L-7.9402 151.561L-3.68898 156.009L-3.68898 156.522L-3.68898 157.035L-8.11985 157.052L-12.5421 157.078L-12.5678 161.5L-12.5849 165.931L-13.0468 165.931L-13.5087 165.931L-17.9652 161.672L-22.4218 157.42L-22.4047 152.288L-22.379 147.156L-17.2895 147.13ZM-18.008 120.836L-13.6028 116.619L-13.0981 116.593L-12.5849 116.567L-12.5678 120.998L-12.5421 125.429L-8.11129 125.455L-3.68042 125.472L-3.70609 125.985L-3.73175 126.498L-7.9231 130.895L-12.1145 135.292L-17.2724 135.3L-22.4218 135.309L-22.4218 130.176L-22.4218 125.053L-18.008 120.836ZM-17.2895 95.8074L-12.1914 95.7903L-7.94021 100.238L-3.68899 104.678L-3.68899 105.199L-3.68899 105.713L-8.11985 105.73L-12.5421 105.755L-12.5678 110.178L-12.5849 114.609L-13.0468 114.609L-13.5087 114.609L-17.9652 110.349L-22.4218 106.098L-22.4047 100.965L-22.379 95.8331L-17.2895 95.8074ZM-17.9995 69.496L-13.5686 65.2533L-13.081 65.2533L-12.5849 65.2533L-12.5678 69.6756L-12.5422 74.1064L-8.11985 74.1321L-3.68899 74.1492L-3.68899 74.6453L-3.68899 75.1329L-6.14393 77.699C-7.48687 79.1104 -9.39437 81.1034 -10.3866 82.1213L-12.1743 83.9861L-17.2981 83.9861L-22.4218 83.9861L-22.4218 78.8538L-22.4218 73.7301L-17.9995 69.496ZM-17.281 44.4847L-12.1914 44.4676L-7.94021 48.9155L-3.68899 53.355L-3.68899 53.8767L-3.68899 54.39L-8.11985 54.4071L-12.5422 54.4327L-12.5678 58.855L-12.5849 63.2859L-13.0468 63.2859L-13.5087 63.2859L-17.9652 59.0261L-22.4218 54.7749L-22.3961 49.6426L-22.379 44.5104L-17.281 44.4847ZM-18.008 18.1904L-13.6028 13.9733L-13.0982 13.9477L-12.5849 13.922L-12.5678 18.3529L-12.5422 22.7837L-8.11129 22.8094L-3.68043 22.8265L-3.70609 23.3397L-3.73176 23.853L-7.9231 28.2496L-12.1145 32.6463L-17.2724 32.6548L-22.4218 32.6634L-22.4218 27.5311L-22.4218 22.4074L-18.008 18.1904ZM-6.62293 184.057C-4.47592 181.807 -2.68819 179.968 -2.65396 179.977C-2.61975 179.994 -0.84057 181.85 1.30643 184.1L5.20696 188.205L5.19841 192.568L5.19841 196.939L1.31498 201.002C-0.814912 203.234 -2.61121 205.065 -2.67964 205.065C-2.73952 205.065 -4.53581 203.234 -6.6657 201.002L-10.532 196.939L-10.532 192.551L-10.532 188.163L-6.62293 184.057ZM-2.66254 159.003L5.20696 159.003L5.18984 166.889L5.16418 174.784L-2.68819 174.81L-10.532 174.827L-10.532 166.915L-10.532 159.003L-2.66254 159.003ZM-6.62293 132.734C-4.47593 130.484 -2.68819 128.645 -2.65397 128.654C-2.61975 128.671 -0.840572 130.527 1.30642 132.777L5.20696 136.883L5.19841 141.245L5.19841 145.616L1.31498 149.679C-0.814914 151.912 -2.61121 153.751 -2.67108 153.759C-2.73952 153.768 -4.53582 151.937 -6.6657 149.696L-10.532 145.625L-10.532 141.228L-10.532 136.84L-6.62293 132.734ZM-2.66254 107.68L5.20696 107.68L5.18984 115.567L5.16418 123.462L-2.68819 123.487L-10.532 123.505L-10.532 115.592L-10.532 107.68L-2.66254 107.68ZM-6.62293 81.4114C-4.47593 79.1617 -2.68819 77.3227 -2.65397 77.3312C-2.61976 77.3483 -0.840575 79.2045 1.30642 81.4541L5.20696 85.5514L5.1984 89.9224L5.1984 94.2934L1.31497 98.3564C-0.814916 100.589 -2.61121 102.428 -2.67109 102.437C-2.73952 102.445 -4.53582 100.615 -6.65716 98.3735L-10.532 94.2934L-10.532 89.9053L-10.532 85.5172L-6.62293 81.4114ZM-2.66254 56.3574L5.20696 56.3574L5.20696 64.2268L5.20696 72.0963L-2.66254 72.0963L-10.532 72.0963L-10.532 64.2268L-10.532 56.3574L-2.66254 56.3574ZM-6.62293 30.0887C-4.47593 27.839 -2.6882 26 -2.65397 26.0085C-2.61976 26.0256 -0.840577 27.8818 1.30642 30.1314L5.20695 34.2373L5.1984 38.5997L5.1984 42.9707L1.31497 47.0337C-0.814918 49.2663 -2.61121 51.1053 -2.67965 51.1139C-2.73952 51.1224 -4.53582 49.2919 -6.65716 47.0508L-10.532 42.9707L-10.532 38.5826L-10.532 34.1945L-6.62293 30.0887ZM-1.09719 206.741C-0.755036 206.382 1.17812 204.372 3.18826 202.259L6.84074 198.436L11.9473 198.453L17.0539 198.478L17.0796 203.577L17.0967 208.675L16.267 209.487C15.8051 209.941 13.795 211.874 11.7934 213.781L8.15801 217.254L7.68756 217.237L7.21709 217.211L7.19144 212.78L7.17433 208.358L2.78624 208.358C0.365516 208.358 -1.63607 208.332 -1.66173 208.298C-1.69595 208.273 -1.7216 208.05 -1.7216 207.819C-1.7216 207.409 -1.70451 207.374 -1.09719 206.741ZM2.70069 176.778L7.13155 176.752L7.15721 172.321L7.17433 167.899L7.68756 167.899L8.20077 167.899L12.6487 172.15L17.0967 176.401L17.0796 181.499L17.0539 186.589L11.9217 186.614L6.7894 186.631L2.52962 182.175L-1.72161 177.718L-1.72161 177.257L-1.72161 176.795L2.70069 176.778ZM-1.13995 155.461C-0.814906 155.128 1.10968 153.109 3.14549 150.979L6.84928 147.113L11.9473 147.13L17.0539 147.156L17.0539 152.288L17.0539 157.42L12.606 161.68L8.15801 165.931L7.68756 165.914L7.21708 165.889L7.19143 161.458L7.17433 157.035L2.78624 157.035C0.365514 157.035 -1.63607 157.01 -1.66173 156.975C-1.69595 156.95 -1.72161 156.727 -1.72161 156.496C-1.72161 156.094 -1.69595 156.052 -1.13995 155.461ZM2.70069 125.455L7.13155 125.429L7.15721 120.998L7.17433 116.576L7.68756 116.576L8.20077 116.576L12.6487 120.827L17.0967 125.078L17.0796 130.176L17.0539 135.266L11.9217 135.292L6.7894 135.309L2.52962 130.852L-1.72161 126.396L-1.72161 125.934L-1.72161 125.472L2.70069 125.455ZM-1.13995 104.139C-0.814908 103.805 1.10968 101.786 3.14549 99.6566L6.84073 95.7903L11.9473 95.8074L17.0539 95.8331L17.0539 100.965L17.0539 106.089L12.606 110.349L8.15801 114.609L7.68756 114.591L7.21708 114.566L7.19143 110.135L7.17433 105.713L2.78623 105.713C0.365512 105.713 -1.63608 105.687 -1.66173 105.653C-1.69595 105.627 -1.72161 105.405 -1.72161 105.174C-1.72161 104.772 -1.69595 104.729 -1.13995 104.139ZM2.70068 74.1321L7.13155 74.1064L7.1572 69.6756L7.17432 65.2533L7.68755 65.2533L8.20934 65.2533L12.6487 69.5045L17.0967 73.7557L17.0796 78.8452L17.0539 83.9433L11.9217 83.9604L6.7894 83.9861L2.52962 79.5295L-1.72161 75.073L-1.72161 74.6111L-1.72161 74.1492L2.70068 74.1321ZM2.58094 48.9155L6.84073 44.4676L11.9473 44.4847L17.0539 44.5104L17.0796 49.6084L17.0967 54.715L15.2405 56.5028C14.2141 57.495 12.2039 59.4196 10.7669 60.7968L8.15801 63.2859L7.68755 63.2688L7.21708 63.2431L7.19143 58.8123L7.17432 54.39L2.78623 54.39C0.36551 54.39 -1.63607 54.3643 -1.67029 54.3301C-1.70451 54.2959 -1.72162 54.0649 -1.70451 53.8169L-1.67886 53.3721L2.58094 48.9155ZM2.70068 22.8094L7.13155 22.7837L7.1572 18.3529L7.17432 13.9306L7.68755 13.9306L8.20077 13.9306L12.6487 18.1818L17.0967 22.433L17.0967 27.5482L17.0967 32.6634L11.9388 32.6634L6.7894 32.6634L2.52962 28.2069L-1.72161 23.7503L-1.72161 23.2884L-1.72161 22.8265L2.70068 22.8094ZM13.1192 188.599L19.0641 188.599L19.0641 182.697L19.0641 176.795L22.9988 176.795L26.9336 176.795L26.9336 182.697L26.9336 188.599L32.8357 188.599L38.7378 188.599L38.7378 192.534L38.7378 196.468L32.8357 196.468L26.9336 196.468L26.9336 202.413L26.9336 208.358L22.9988 208.358L19.0641 208.358L19.047 202.43L19.0213 196.511L13.0935 196.485L7.17433 196.468L7.17433 192.534L7.17433 188.599L13.1192 188.599ZM13.1192 137.276L19.0641 137.276L19.0641 131.374L19.0641 125.472L22.9988 125.472L26.9336 125.472L26.9336 131.374L26.9336 137.276L32.8357 137.276L38.7378 137.276L38.7378 141.211L38.7378 145.146L32.8357 145.146L26.9336 145.146L26.9336 151.09L26.9336 157.035L22.9988 157.035L19.0641 157.035L19.047 151.108L19.0213 145.188L13.0935 145.163L7.17433 145.146L7.17433 141.211L7.17433 137.276L13.1192 137.276ZM13.1192 85.9534L19.0641 85.9534L19.0641 80.0513L19.0641 74.1492L22.9988 74.1492L26.9336 74.1492L26.9336 80.0513L26.9336 85.9534L32.8357 85.9534L38.7378 85.9534L38.7378 89.8882L38.7378 93.8229L32.8357 93.8229L26.9336 93.8229L26.9336 99.7678L26.9336 105.713L22.9988 105.713L19.0641 105.713L19.047 99.7849L19.0213 93.8657L13.0935 93.84L7.17433 93.8229L7.17433 89.8882L7.17433 85.9534L13.1192 85.9534ZM13.1192 34.6307L19.0641 34.6307L19.0641 28.7286L19.0641 22.8265L22.9988 22.8265L26.9336 22.8265L26.9336 28.7286L26.9336 34.6307L32.8357 34.6307L38.7378 34.6307L38.7378 38.5655L38.7378 42.5002L32.8357 42.5002L26.9336 42.5002L26.9336 48.4451L26.9336 54.39L22.9988 54.39L19.0641 54.39L19.047 48.4622L19.0213 42.543L13.0935 42.5173L7.17432 42.5002L7.17432 38.5655L7.17432 34.6307L13.1192 34.6307ZM14.5306 162.912L18.6278 159.003L22.9817 159.003L27.327 159.003L31.4329 162.903C33.6825 165.05 35.5387 166.838 35.5558 166.864C35.5643 166.898 34.1016 168.335 32.3053 170.046C30.5005 171.756 28.6358 173.536 28.1568 173.989L27.2843 174.827L23.0074 174.827L18.7219 174.827L17.9521 174.117C16.1216 172.449 10.4333 166.992 10.4333 166.906C10.4248 166.864 12.2724 165.059 14.5306 162.912ZM14.5306 111.589L18.6278 107.68L22.9817 107.68L27.3356 107.68L31.4328 111.581C33.6825 113.728 35.5387 115.515 35.5558 115.55C35.5814 115.618 27.481 123.351 27.2843 123.436C27.2073 123.47 25.2485 123.496 22.9389 123.496L18.7219 123.505L17.9521 122.795C16.1643 121.161 10.4419 115.669 10.4333 115.584C10.4248 115.541 12.2724 113.736 14.5306 111.589ZM14.5306 60.2664L18.6278 56.3574L22.9817 56.3574L27.3356 56.3573L31.4328 60.2579C33.6825 62.4049 35.5301 64.2012 35.5301 64.2439C35.5301 64.2867 33.6996 66.0744 31.4671 68.2043L27.404 72.0877L22.9988 72.0877L18.5936 72.0963L14.5135 68.2214C12.2724 66.1001 10.4333 64.3124 10.4333 64.261C10.4248 64.2183 12.2724 62.4134 14.5306 60.2664ZM34.0332 198.453L39.1313 198.436L43.3825 202.884L47.6337 207.332L47.6337 207.845L47.6337 208.358L43.2029 208.375L38.7806 208.401L38.7549 212.823L38.7378 217.254L38.2759 217.254L37.814 217.254L33.3575 213.003L28.9009 208.743L28.918 203.611L28.9437 198.478L34.0332 198.453ZM33.3147 172.158L37.7199 167.941L38.2246 167.916L38.7378 167.89L38.7549 172.321L38.7806 176.752L43.2114 176.777L47.6423 176.795L47.6166 177.308L47.5909 177.821L43.3996 182.218L39.2082 186.614L34.0503 186.623L28.9009 186.631L28.9009 181.499L28.9009 176.375L33.3147 172.158ZM34.0332 147.13L39.1313 147.113L43.3825 151.561L47.6337 156.009L47.6337 156.522L47.6337 157.035L43.2029 157.052L38.7806 157.078L38.7549 161.5L38.7378 165.931L38.2759 165.931L37.814 165.931L33.3574 161.672L28.9009 157.42L28.918 152.288L28.9437 147.156L34.0332 147.13ZM33.3147 120.836L37.7199 116.619L38.2246 116.593L38.7378 116.567L38.7549 120.998L38.7806 125.429L43.2114 125.455L47.6423 125.472L47.6166 125.985L47.5909 126.498L43.3996 130.895L39.2082 135.292L34.0503 135.3L28.9009 135.309L28.9009 130.176L28.9009 125.053L33.3147 120.836ZM34.0332 95.8074L39.1313 95.7903L43.3825 100.238L47.6337 104.678L47.6337 105.199L47.6337 105.713L43.2029 105.73L38.7806 105.755L38.7549 110.178L38.7378 114.609L38.2759 114.609L37.814 114.609L33.3574 110.349L28.9009 106.098L28.918 100.965L28.9437 95.8331L34.0332 95.8074ZM33.3232 69.496L37.7541 65.2533L38.2417 65.2533L38.7378 65.2533L38.7549 69.6756L38.7805 74.1064L43.2029 74.1321L47.6337 74.1492L47.6337 74.6453L47.6337 75.1329L45.1788 77.699C43.8358 79.1104 41.9283 81.1034 40.9361 82.1213L39.1484 83.9861L34.0246 83.9861L28.9009 83.9861L28.9009 78.8538L28.9009 73.7301L33.3232 69.496ZM34.0417 44.4847L39.1312 44.4676L43.3825 48.9155L47.6337 53.355L47.6337 53.8767L47.6337 54.39L43.2029 54.4071L38.7805 54.4327L38.7549 58.855L38.7378 63.2859L38.2759 63.2859L37.814 63.2859L33.3574 59.0261L28.9009 54.7749L28.9266 49.6426L28.9437 44.5103L34.0417 44.4847ZM33.3147 18.1904L37.7199 13.9733L38.2245 13.9477L38.7378 13.922L38.7549 18.3529L38.7805 22.7837L43.2114 22.8094L47.6423 22.8265L47.6166 23.3397L47.5909 23.853L43.3996 28.2496L39.2082 32.6463L34.0503 32.6548L28.9009 32.6634L28.9009 27.5311L28.9009 22.4074L33.3147 18.1904ZM44.6998 184.057C46.8468 181.807 48.6345 179.968 48.6687 179.977C48.7029 179.994 50.4821 181.85 52.6291 184.1L56.5296 188.205L56.5211 192.568L56.5211 196.939L52.6377 201.002C50.5078 203.234 48.7115 205.065 48.6431 205.065C48.5832 205.065 46.7869 203.234 44.657 201.002L40.7907 196.939L40.7907 192.551L40.7907 188.163L44.6998 184.057ZM48.6602 159.003L56.5296 159.003L56.5125 166.889L56.4869 174.784L48.6345 174.81L40.7907 174.827L40.7907 166.915L40.7907 159.003L48.6602 159.003ZM44.6998 132.734C46.8468 130.484 48.6345 128.645 48.6687 128.654C48.7029 128.671 50.4821 130.527 52.6291 132.777L56.5296 136.883L56.5211 141.245L56.5211 145.616L52.6377 149.679C50.5078 151.912 48.7115 153.751 48.6516 153.759C48.5832 153.768 46.7869 151.937 44.657 149.696L40.7907 145.625L40.7907 141.228L40.7907 136.84L44.6998 132.734ZM48.6602 107.68L56.5296 107.68L56.5125 115.567L56.4869 123.462L48.6345 123.487L40.7907 123.505L40.7907 115.592L40.7907 107.68L48.6602 107.68ZM44.6998 81.4114C46.8468 79.1617 48.6345 77.3227 48.6687 77.3312C48.7029 77.3483 50.4821 79.2045 52.6291 81.4541L56.5296 85.5514L56.5211 89.9224L56.5211 94.2934L52.6377 98.3564C50.5078 100.589 48.7115 102.428 48.6516 102.437C48.5832 102.445 46.7869 100.615 44.6656 98.3735L40.7907 94.2934L40.7907 89.9053L40.7907 85.5172L44.6998 81.4114ZM48.6602 56.3573L56.5296 56.3573L56.5296 64.2268L56.5296 72.0963L48.6602 72.0963L40.7907 72.0963L40.7907 64.2268L40.7907 56.3573L48.6602 56.3573ZM44.6998 30.0887C46.8468 27.839 48.6345 26 48.6687 26.0085C48.7029 26.0256 50.4821 27.8818 52.6291 30.1314L56.5296 34.2373L56.5211 38.5997L56.5211 42.9707L52.6377 47.0337C50.5078 49.2663 48.7115 51.1053 48.6431 51.1139C48.5832 51.1224 46.7869 49.2919 44.6656 47.0508L40.7907 42.9707L40.7907 38.5826L40.7907 34.1945L44.6998 30.0887ZM50.2255 206.741C50.5677 206.382 52.5008 204.372 54.511 202.259L58.1634 198.436L63.27 198.453L68.3766 198.478L68.4023 203.577L68.4194 208.675L67.5897 209.487C67.1278 209.941 65.1177 211.874 63.1161 213.781L59.4807 217.254L59.0102 217.237L58.5398 217.211L58.5141 212.78L58.497 208.358L54.1089 208.358C51.6882 208.358 49.6866 208.332 49.661 208.298C49.6268 208.273 49.6011 208.05 49.6011 207.819C49.6011 207.409 49.6182 207.374 50.2255 206.741ZM54.0234 176.777L58.4543 176.752L58.4799 172.321L58.497 167.899L59.0102 167.899L59.5235 167.899L63.9714 172.15L68.4194 176.401L68.4023 181.499L68.3766 186.589L63.2444 186.614L58.1121 186.631L53.8523 182.175L49.6011 177.718L49.6011 177.257L49.6011 176.795L54.0234 176.777ZM50.1827 155.461C50.5078 155.128 52.4324 153.109 54.4682 150.979L58.172 147.113L63.27 147.13L68.3766 147.156L68.3766 152.288L68.3766 157.42L63.9287 161.68L59.4807 165.931L59.0102 165.914L58.5398 165.889L58.5141 161.458L58.497 157.035L54.1089 157.035C51.6882 157.035 49.6866 157.01 49.661 156.975C49.6268 156.95 49.6011 156.727 49.6011 156.496C49.6011 156.094 49.6268 156.052 50.1827 155.461ZM54.0234 125.455L58.4543 125.429L58.4799 120.998L58.497 116.576L59.0102 116.576L59.5235 116.576L63.9714 120.827L68.4194 125.078L68.4023 130.176L68.3766 135.266L63.2444 135.292L58.1121 135.309L53.8523 130.852L49.6011 126.396L49.6011 125.934L49.6011 125.472L54.0234 125.455ZM50.1827 104.139C50.5078 103.805 52.4324 101.786 54.4682 99.6566L58.1634 95.7903L63.27 95.8074L68.3766 95.833L68.3766 100.965L68.3766 106.089L63.9287 110.349L59.4807 114.609L59.0102 114.591L58.5398 114.566L58.5141 110.135L58.497 105.713L54.1089 105.713C51.6882 105.713 49.6866 105.687 49.661 105.653C49.6267 105.627 49.6011 105.405 49.6011 105.174C49.6011 104.772 49.6267 104.729 50.1827 104.139ZM54.0234 74.1321L58.4542 74.1064L58.4799 69.6756L58.497 65.2533L59.0102 65.2533L59.532 65.2533L63.9714 69.5045L68.4194 73.7557L68.4023 78.8452L68.3766 83.9433L63.2444 83.9604L58.1121 83.9861L53.8523 79.5295L49.6011 75.073L49.6011 74.6111L49.6011 74.1492L54.0234 74.1321ZM53.9036 48.9155L58.1634 44.4676L63.27 44.4847L68.3766 44.5103L68.4023 49.6084L68.4194 54.715L66.5632 56.5027C65.5368 57.495 63.5266 59.4196 62.0896 60.7968L59.4807 63.2859L59.0102 63.2688L58.5398 63.2431L58.5141 58.8123L58.497 54.39L54.1089 54.39C51.6882 54.39 49.6866 54.3643 49.6524 54.3301C49.6182 54.2959 49.6011 54.0649 49.6182 53.8169L49.6439 53.3721L53.9036 48.9155ZM54.0234 22.8094L58.4542 22.7837L58.4799 18.3529L58.497 13.9306L59.0102 13.9306L59.5235 13.9306L63.9714 18.1818L68.4194 22.433L68.4194 27.5482L68.4194 32.6634L63.2615 32.6634L58.1121 32.6634L53.8523 28.2069L49.6011 23.7503L49.6011 23.2884L49.6011 22.8265L54.0234 22.8094ZM64.4419 188.599L70.3868 188.599L70.3868 182.697L70.3868 176.795L74.3215 176.795L78.2563 176.795L78.2563 182.697L78.2563 188.599L84.1584 188.599L90.0605 188.599L90.0605 192.534L90.0605 196.468L84.1584 196.468L78.2563 196.468L78.2563 202.413L78.2563 208.358L74.3215 208.358L70.3868 208.358L70.3697 202.43L70.344 196.511L64.4162 196.485L58.497 196.468L58.497 192.534L58.497 188.599L64.4419 188.599ZM64.4419 137.276L70.3868 137.276L70.3868 131.374L70.3868 125.472L74.3215 125.472L78.2563 125.472L78.2563 131.374L78.2563 137.276L84.1584 137.276L90.0605 137.276L90.0605 141.211L90.0605 145.146L84.1584 145.146L78.2563 145.146L78.2563 151.09L78.2563 157.035L74.3215 157.035L70.3868 157.035L70.3697 151.108L70.344 145.188L64.4162 145.163L58.497 145.146L58.497 141.211L58.497 137.276L64.4419 137.276ZM64.4419 85.9534L70.3868 85.9534L70.3868 80.0513L70.3868 74.1492L74.3215 74.1492L78.2563 74.1492L78.2563 80.0513L78.2563 85.9534L84.1584 85.9534L90.0605 85.9534L90.0605 89.8882L90.0605 93.8229L84.1584 93.8229L78.2563 93.8229L78.2563 99.7678L78.2563 105.713L74.3215 105.713L70.3868 105.713L70.3697 99.7849L70.344 93.8657L64.4162 93.84L58.497 93.8229L58.497 89.8882L58.497 85.9534L64.4419 85.9534ZM64.4419 34.6307L70.3868 34.6307L70.3868 28.7286L70.3868 22.8265L74.3215 22.8265L78.2563 22.8265L78.2563 28.7286L78.2563 34.6307L84.1584 34.6307L90.0605 34.6307L90.0605 38.5655L90.0605 42.5002L84.1584 42.5002L78.2563 42.5002L78.2563 48.4451L78.2563 54.39L74.3215 54.39L70.3868 54.39L70.3697 48.4622L70.344 42.543L64.4162 42.5173L58.497 42.5002L58.497 38.5655L58.497 34.6307L64.4419 34.6307ZM65.8533 162.912L69.9505 159.003L74.3044 159.003L78.6497 159.003L82.7556 162.903C85.0052 165.05 86.8614 166.838 86.8785 166.864C86.887 166.898 85.4243 168.335 83.628 170.046C81.8232 171.756 79.9585 173.536 79.4794 173.989L78.607 174.827L74.3301 174.827L70.0446 174.827L69.2748 174.117C67.4443 172.449 61.756 166.992 61.756 166.906C61.7475 166.864 63.5951 165.059 65.8533 162.912ZM65.8533 111.589L69.9505 107.68L74.3044 107.68L78.6583 107.68L82.7555 111.581C85.0052 113.728 86.8614 115.515 86.8785 115.55C86.9041 115.618 78.8037 123.351 78.607 123.436C78.53 123.47 76.5712 123.496 74.2616 123.496L70.0446 123.505L69.2748 122.795C67.487 121.161 61.7646 115.669 61.756 115.584C61.7475 115.541 63.5951 113.736 65.8533 111.589ZM65.8533 60.2664L69.9505 56.3573L74.3044 56.3573L78.6583 56.3573L82.7555 60.2579C85.0052 62.4049 86.8528 64.2012 86.8528 64.2439C86.8528 64.2867 85.0223 66.0744 82.7898 68.2043L78.7267 72.0877L74.3215 72.0877L69.9163 72.0963L65.8362 68.2214C63.5951 66.1001 61.756 64.3124 61.756 64.261C61.7475 64.2183 63.5951 62.4134 65.8533 60.2664ZM85.3559 198.453L90.454 198.436L94.7052 202.884L98.9564 207.332L98.9564 207.845L98.9564 208.358L94.5256 208.375L90.1033 208.401L90.0776 212.823L90.0605 217.254L89.5986 217.254L89.1367 217.254L84.6802 213.003L80.2236 208.743L80.2407 203.611L80.2664 198.478L85.3559 198.453ZM84.6374 172.158L89.0426 167.941L89.5473 167.916L90.0605 167.89L90.0776 172.321L90.1033 176.752L94.5341 176.777L98.965 176.795L98.9393 177.308L98.9136 177.821L94.7223 182.218L90.5309 186.614L85.373 186.623L80.2236 186.631L80.2236 181.499L80.2236 176.375L84.6374 172.158ZM85.3559 147.13L90.454 147.113L94.7052 151.561L98.9564 156.009L98.9564 156.522L98.9564 157.035L94.5256 157.052L90.1032 157.078L90.0776 161.5L90.0605 165.931L89.5986 165.931L89.1367 165.931L84.6802 161.672L80.2236 157.42L80.2407 152.288L80.2664 147.156L85.3559 147.13ZM84.6374 120.836L89.0426 116.619L89.5473 116.593L90.0605 116.567L90.0776 120.998L90.1032 125.429L94.5341 125.455L98.965 125.472L98.9393 125.985L98.9136 126.498L94.7223 130.895L90.5309 135.292L85.373 135.3L80.2236 135.309L80.2236 130.176L80.2236 125.053L84.6374 120.836ZM85.3559 95.8074L90.454 95.7903L94.7052 100.238L98.9564 104.678L98.9564 105.199L98.9564 105.713L94.5256 105.73L90.1032 105.755L90.0776 110.178L90.0605 114.609L89.5986 114.609L89.1367 114.609L84.6801 110.349L80.2236 106.098L80.2407 100.965L80.2664 95.833L85.3559 95.8074ZM84.6459 69.496L89.0768 65.2533L89.5644 65.2533L90.0605 65.2533L90.0776 69.6756L90.1032 74.1064L94.5256 74.1321L98.9564 74.1492L98.9564 74.6453L98.9564 75.1329L96.5015 77.699C95.1585 79.1104 93.251 81.1034 92.2588 82.1213L90.4711 83.9861L85.3473 83.9861L80.2236 83.9861L80.2236 78.8538L80.2236 73.7301L84.6459 69.496ZM85.3644 44.4847L90.4539 44.4676L94.7052 48.9155L98.9564 53.355L98.9564 53.8767L98.9564 54.39L94.5256 54.4071L90.1032 54.4327L90.0776 58.855L90.0605 63.2859L89.5986 63.2859L89.1367 63.2859L84.6801 59.0261L80.2236 54.7749L80.2493 49.6426L80.2664 44.5103L85.3644 44.4847ZM84.6374 18.1904L89.0426 13.9733L89.5472 13.9477L90.0605 13.922L90.0776 18.3529L90.1032 22.7837L94.5341 22.8094L98.965 22.8265L98.9393 23.3397L98.9136 23.853L94.7223 28.2496L90.5309 32.6463L85.373 32.6548L80.2236 32.6634L80.2236 27.5311L80.2236 22.4074L84.6374 18.1904ZM96.0225 184.057C98.1695 181.807 99.9572 179.968 99.9914 179.977C100.026 179.994 101.805 181.85 103.952 184.1L107.852 188.205L107.844 192.568L107.844 196.939L103.96 201.002C101.83 203.234 100.034 205.065 99.9658 205.065C99.9059 205.065 98.1096 203.234 95.9797 201.002L92.1134 196.939L92.1134 192.551L92.1134 188.163L96.0225 184.057ZM99.9829 159.003L107.852 159.003L107.835 166.889L107.81 174.784L99.9572 174.81L92.1134 174.827L92.1134 166.915L92.1134 159.003L99.9829 159.003ZM96.0225 132.734C98.1695 130.484 99.9572 128.645 99.9914 128.654C100.026 128.671 101.805 130.527 103.952 132.777L107.852 136.883L107.844 141.245L107.844 145.616L103.96 149.679C101.83 151.912 100.034 153.751 99.9743 153.759C99.9059 153.768 98.1096 151.937 95.9797 149.696L92.1134 145.625L92.1134 141.228L92.1134 136.84L96.0225 132.734ZM99.9829 107.68L107.852 107.68L107.835 115.567L107.81 123.462L99.9572 123.487L92.1134 123.505L92.1134 115.592L92.1134 107.68L99.9829 107.68ZM96.0225 81.4114C98.1695 79.1617 99.9572 77.3227 99.9914 77.3312C100.026 77.3483 101.805 79.2045 103.952 81.4541L107.852 85.5514L107.844 89.9224L107.844 94.2934L103.96 98.3564C101.83 100.589 100.034 102.428 99.9743 102.437C99.9059 102.445 98.1096 100.615 95.9882 98.3735L92.1134 94.2934L92.1134 89.9053L92.1134 85.5172L96.0225 81.4114ZM99.9829 56.3573L107.852 56.3573L107.852 64.2268L107.852 72.0963L99.9829 72.0963L92.1134 72.0963L92.1134 64.2268L92.1134 56.3573L99.9829 56.3573ZM96.0225 30.0887C98.1695 27.839 99.9572 26 99.9914 26.0085C100.026 26.0256 101.805 27.8818 103.952 30.1314L107.852 34.2373L107.844 38.5997L107.844 42.9707L103.96 47.0337C101.83 49.2663 100.034 51.1053 99.9658 51.1139C99.9059 51.1224 98.1096 49.2919 95.9882 47.0508L92.1134 42.9707L92.1134 38.5826L92.1134 34.1945L96.0225 30.0887ZM101.548 206.741C101.89 206.382 103.824 204.372 105.834 202.259L109.486 198.436L114.593 198.453L119.699 198.478L119.725 203.576L119.742 208.675L118.912 209.487C118.45 209.941 116.44 211.874 114.439 213.781L110.803 217.254L110.333 217.237L109.862 217.211L109.837 212.78L109.82 208.358L105.432 208.358C103.011 208.358 101.009 208.332 100.984 208.298C100.949 208.273 100.924 208.05 100.924 207.819C100.924 207.409 100.941 207.374 101.548 206.741ZM105.346 176.777L109.777 176.752L109.803 172.321L109.82 167.899L110.333 167.899L110.846 167.899L115.294 172.15L119.742 176.401L119.725 181.499L119.699 186.589L114.567 186.614L109.435 186.631L105.175 182.175L100.924 177.718L100.924 177.257L100.924 176.795L105.346 176.777ZM101.505 155.461C101.83 155.128 103.755 153.109 105.791 150.979L109.495 147.113L114.593 147.13L119.699 147.156L119.699 152.288L119.699 157.42L115.251 161.68L110.803 165.931L110.333 165.914L109.862 165.889L109.837 161.458L109.82 157.035L105.432 157.035C103.011 157.035 101.009 157.01 100.984 156.975C100.949 156.95 100.924 156.727 100.924 156.496C100.924 156.094 100.949 156.052 101.505 155.461ZM105.346 125.455L109.777 125.429L109.803 120.998L109.82 116.576L110.333 116.576L110.846 116.576L115.294 120.827L119.742 125.078L119.725 130.176L119.699 135.266L114.567 135.292L109.435 135.309L105.175 130.852L100.924 126.396L100.924 125.934L100.924 125.472L105.346 125.455ZM101.505 104.139C101.83 103.805 103.755 101.786 105.791 99.6566L109.486 95.7903L114.593 95.8074L119.699 95.833L119.699 100.965L119.699 106.089L115.251 110.349L110.803 114.609L110.333 114.591L109.862 114.566L109.837 110.135L109.82 105.713L105.432 105.713C103.011 105.713 101.009 105.687 100.984 105.653C100.949 105.627 100.924 105.405 100.924 105.174C100.924 104.772 100.949 104.729 101.505 104.139ZM105.346 74.1321L109.777 74.1064L109.803 69.6756L109.82 65.2533L110.333 65.2533L110.855 65.2533L115.294 69.5045L119.742 73.7557L119.725 78.8452L119.699 83.9433L114.567 83.9604L109.435 83.9861L105.175 79.5295L100.924 75.073L100.924 74.6111L100.924 74.1492L105.346 74.1321ZM105.226 48.9155L109.486 44.4676L114.593 44.4847L119.699 44.5103L119.725 49.6084L119.742 54.715L117.886 56.5027C116.859 57.495 114.849 59.4196 113.412 60.7968L110.803 63.2859L110.333 63.2688L109.862 63.2431L109.837 58.8123L109.82 54.39L105.432 54.39C103.011 54.39 101.009 54.3643 100.975 54.3301C100.941 54.2959 100.924 54.0649 100.941 53.8169L100.967 53.3721L105.226 48.9155ZM105.346 22.8094L109.777 22.7837L109.803 18.3529L109.82 13.9306L110.333 13.9306L110.846 13.9306L115.294 18.1818L119.742 22.433L119.742 27.5482L119.742 32.6634L114.584 32.6634L109.435 32.6634L105.175 28.2068L100.924 23.7503L100.924 23.2884L100.924 22.8265L105.346 22.8094Z" fill="#89BBB9"/>
</mask>
<g mask="url(#mask0_538_20585)">
<path d="M57.9375 173.195C26.053 173.195 0.205565 147.348 0.205564 115.463L0.205561 57.7315L57.9375 57.7315L57.9375 173.195Z" fill="#89BBB9"/>
</g>
<circle cx="58.5023" cy="130.743" r="19.0096" transform="rotate(-90 58.5023 130.743)" fill="white"/>
<circle cx="29.0715" cy="28.8655" r="28.866" transform="rotate(-90 29.0715 28.8655)" fill="#479592"/>
</g>
</svg>
