<svg width="1103" height="651" viewBox="0 0 1103 651" fill="none" xmlns="http://www.w3.org/2000/svg">
<path d="M887.833 -181.267C778.645 -181.267 670.527 -159.761 569.65 -117.977C468.774 -76.1923 377.116 -14.948 299.908 62.2594C222.701 139.467 161.457 231.125 119.672 332.002C77.8879 432.878 56.3818 540.996 56.3818 650.184H217.448C217.448 562.148 234.788 474.974 268.478 393.639C302.168 312.304 351.548 238.402 413.799 176.151C476.05 113.9 549.953 64.5194 631.288 30.8294C712.623 -2.86061 799.797 -20.2006 887.833 -20.2006V-181.267Z" fill="#F4F7FB"/>
<path d="M80.4116 363.794C46.2633 459.922 29.5627 561.379 31.0969 663.381L32.3974 663.361C30.8655 561.514 47.5407 460.212 81.6372 364.229L80.4116 363.794Z" fill="#F4F7FB" fill-opacity="0.25"/>
<path d="M297.869 -13.543C128.779 136.84 23.4788 346.103 3.47606 571.505L4.81923 571.625C24.7916 346.564 129.932 137.619 298.765 -12.5354L297.869 -13.543Z" fill="#F4F7FB" fill-opacity="0.25"/>
<path d="M260.204 67.326C189.755 143.104 133.62 231.021 94.5185 326.814L95.7227 327.306C134.765 231.658 190.815 143.875 261.157 68.2116L260.204 67.326Z" fill="#F4F7FB" fill-opacity="0.25"/>
</svg>
