<svg width="31" height="31" viewBox="0 0 31 31" fill="none" xmlns="http://www.w3.org/2000/svg">
<path d="M16.0003 0.998047C11.9263 0.998047 11.415 1.01586 9.81489 1.08868C8.21791 1.16181 7.12784 1.41465 6.17402 1.78562C5.18739 2.16879 4.35046 2.68134 3.51665 3.51548C2.68222 4.34931 2.16969 5.18627 1.78529 6.17262C1.41339 7.12677 1.16025 8.21719 1.08837 9.8136C1.0168 11.4138 0.998047 11.9254 0.998047 15.9995C0.998047 20.0737 1.01617 20.5834 1.08868 22.1836C1.16212 23.7806 1.41495 24.8707 1.7856 25.8245C2.16906 26.8112 2.6816 27.6482 3.51572 28.482C4.34921 29.3164 5.18614 29.8302 6.17215 30.2134C7.12659 30.5844 8.21697 30.8372 9.81364 30.9103C11.4138 30.9832 11.9247 31.001 15.9984 31.001C20.0728 31.001 20.5825 30.9832 22.1826 30.9103C23.7796 30.8372 24.8709 30.5844 25.8254 30.2134C26.8117 29.8302 27.6474 29.3164 28.4808 28.482C29.3153 27.6482 29.8278 26.8112 30.2122 25.8249C30.581 24.8707 30.8341 23.7803 30.9091 22.1839C30.981 20.5837 30.9998 20.0737 30.9998 15.9995C30.9998 11.9254 30.981 11.4141 30.9091 9.81391C30.8341 8.21688 30.581 7.12677 30.2122 6.17293C29.8278 5.18627 29.3153 4.34931 28.4808 3.51548C27.6464 2.68102 26.812 2.16847 25.8244 1.78562C24.8681 1.41465 23.7774 1.16181 22.1804 1.08868C20.5803 1.01586 20.0709 0.998047 15.9956 0.998047H16.0003ZM14.6546 3.70144C15.054 3.70081 15.4997 3.70144 16.0003 3.70144C20.0056 3.70144 20.4803 3.71581 22.062 3.78769C23.5246 3.85458 24.3184 4.09898 24.8472 4.30431C25.5472 4.57621 26.0463 4.90124 26.571 5.42629C27.0961 5.95134 27.4211 6.45139 27.6936 7.15146C27.8989 7.67964 28.1436 8.47347 28.2102 9.93611C28.2821 11.5175 28.2977 11.9926 28.2977 15.9961C28.2977 19.9996 28.2821 20.4746 28.2102 22.056C28.1433 23.5187 27.8989 24.3125 27.6936 24.8407C27.4217 25.5408 27.0961 26.0392 26.571 26.564C26.046 27.089 25.5475 27.4141 24.8472 27.686C24.319 27.8922 23.5246 28.136 22.062 28.2029C20.4806 28.2748 20.0056 28.2904 16.0003 28.2904C11.9947 28.2904 11.52 28.2748 9.93865 28.2029C8.47605 28.1354 7.68225 27.891 7.15315 27.6857C6.4531 27.4138 5.95307 27.0887 5.42803 26.5637C4.903 26.0386 4.57798 25.5398 4.30546 24.8394C4.10013 24.3113 3.85543 23.5174 3.78886 22.0548C3.71698 20.4734 3.7026 19.9983 3.7026 15.9923C3.7026 11.9863 3.71698 11.5138 3.78886 9.93236C3.85574 8.46972 4.10013 7.67589 4.30546 7.14709C4.57735 6.44702 4.903 5.94697 5.42803 5.42192C5.95307 4.89687 6.4531 4.57183 7.15315 4.29931C7.68194 4.09304 8.47605 3.84926 9.93865 3.78207C11.3225 3.71956 11.8588 3.70081 14.6546 3.69769V3.70144ZM24.0077 6.1923C23.0139 6.1923 22.2076 6.9977 22.2076 7.99186C22.2076 8.9857 23.0139 9.79203 24.0077 9.79203C25.0015 9.79203 25.8078 8.9857 25.8078 7.99186C25.8078 6.99801 25.0015 6.19168 24.0077 6.19168V6.1923ZM16.0003 8.29564C11.746 8.29564 8.29667 11.745 8.29667 15.9995C8.29667 20.254 11.746 23.7018 16.0003 23.7018C20.2547 23.7018 23.7027 20.254 23.7027 15.9995C23.7027 11.745 20.2543 8.29564 16 8.29564H16.0003ZM16.0003 10.999C18.7617 10.999 21.0006 13.2377 21.0006 15.9995C21.0006 18.761 18.7617 21 16.0003 21C13.2386 21 11 18.761 11 15.9995C11 13.2377 13.2386 10.999 16.0003 10.999Z" fill="#2D7F7D"/>
</svg>
