<svg width="774" height="374" viewBox="0 0 774 374" fill="none" xmlns="http://www.w3.org/2000/svg">
<circle cx="364" cy="181" r="98" fill="white" fill-opacity="0.67"/>
<path d="M335.739 181.631C335.547 182.767 335.179 183.749 334.636 184.576C334.093 185.4 333.429 186.036 332.644 186.483C331.859 186.927 331.009 187.149 330.092 187.149C329.148 187.149 328.343 186.918 327.679 186.457C327.019 185.991 326.547 185.335 326.262 184.486C325.982 183.634 325.938 182.625 326.129 181.46C326.321 180.324 326.689 179.344 327.232 178.52C327.775 177.692 328.441 177.057 329.229 176.613C330.018 176.165 330.874 175.942 331.797 175.942C332.734 175.942 333.532 176.174 334.189 176.64C334.849 177.101 335.32 177.758 335.6 178.61C335.884 179.459 335.93 180.466 335.739 181.631ZM334.482 181.46C334.638 180.53 334.615 179.747 334.412 179.111C334.21 178.475 333.874 177.994 333.406 177.668C332.937 177.341 332.379 177.178 331.733 177.178C331.058 177.178 330.419 177.35 329.815 177.694C329.212 178.035 328.695 178.538 328.265 179.202C327.836 179.862 327.543 180.672 327.386 181.631C327.23 182.561 327.253 183.344 327.456 183.98C327.658 184.615 327.994 185.097 328.462 185.423C328.931 185.75 329.489 185.913 330.135 185.913C330.81 185.913 331.449 185.743 332.053 185.402C332.656 185.058 333.173 184.555 333.603 183.895C334.032 183.23 334.325 182.419 334.482 181.46ZM337.634 177.263L337.825 176.091H346.007L345.815 177.263H342.385L340.766 187H339.445L341.064 177.263H337.634ZM354.63 176.091L354.438 177.263H349.175L347.556 187H346.235L348.046 176.091H354.63ZM354.863 187L356.674 176.091H360.36C361.212 176.091 361.885 176.244 362.379 176.549C362.876 176.854 363.212 177.268 363.386 177.79C363.563 178.312 363.599 178.896 363.492 179.543C363.386 180.182 363.157 180.764 362.805 181.29C362.457 181.815 361.985 182.234 361.388 182.547C360.795 182.859 360.076 183.016 359.231 183.016H356.589L356.78 181.844H359.38C359.962 181.844 360.449 181.743 360.839 181.54C361.23 181.338 361.535 181.062 361.756 180.714C361.976 180.366 362.121 179.976 362.192 179.543C362.263 179.102 362.246 178.712 362.139 178.371C362.036 178.026 361.821 177.756 361.495 177.561C361.171 177.362 360.715 177.263 360.126 177.263H357.803L356.184 187H354.863ZM364.945 187.149L365.158 185.913H365.84C366.103 185.913 366.332 185.862 366.527 185.759C366.726 185.656 366.896 185.523 367.038 185.359C367.184 185.196 367.31 185.026 367.417 184.848L367.651 184.443L365.265 176.091H366.692L368.567 182.866L372.445 176.091H373.851L368.567 185.232C368.361 185.572 368.139 185.888 367.901 186.18C367.663 186.471 367.367 186.705 367.012 186.883C366.657 187.06 366.202 187.149 365.648 187.149H364.945ZM377.296 187.149C376.586 187.149 375.97 187.03 375.448 186.792C374.929 186.551 374.542 186.215 374.287 185.786C374.031 185.352 373.94 184.848 374.015 184.273H375.336C375.304 184.621 375.364 184.923 375.517 185.178C375.673 185.434 375.904 185.631 376.21 185.77C376.519 185.908 376.888 185.977 377.318 185.977C377.776 185.977 378.205 185.897 378.607 185.738C379.011 185.578 379.351 185.347 379.624 185.045C379.897 184.74 380.066 184.376 380.13 183.953C380.187 183.573 380.144 183.236 380.002 182.941C379.86 182.646 379.615 182.415 379.267 182.249C378.923 182.078 378.472 181.993 377.914 181.993H377.019L377.211 180.821H378.042C378.475 180.821 378.873 180.739 379.235 180.576C379.597 180.413 379.899 180.184 380.141 179.889C380.382 179.591 380.535 179.241 380.599 178.839C380.659 178.488 380.634 178.183 380.524 177.923C380.418 177.661 380.233 177.456 379.97 177.311C379.711 177.165 379.381 177.092 378.979 177.092C378.596 177.092 378.22 177.162 377.85 177.3C377.484 177.435 377.172 177.632 376.913 177.891C376.653 178.147 376.49 178.456 376.423 178.818H375.144C375.254 178.25 375.501 177.751 375.885 177.321C376.268 176.888 376.735 176.551 377.286 176.309C377.84 176.064 378.426 175.942 379.043 175.942C379.729 175.942 380.293 176.084 380.737 176.368C381.185 176.648 381.504 177.018 381.696 177.476C381.888 177.93 381.941 178.42 381.856 178.946C381.76 179.546 381.513 180.054 381.116 180.469C380.718 180.885 380.233 181.18 379.661 181.354V181.418C380.332 181.535 380.819 181.844 381.121 182.344C381.426 182.842 381.522 183.435 381.408 184.124C381.309 184.741 381.069 185.278 380.689 185.732C380.309 186.183 379.828 186.533 379.246 186.782C378.663 187.027 378.014 187.149 377.296 187.149ZM389.723 187L386.804 181.993H385.462L384.631 187H383.31L385.121 176.091H386.442L385.654 180.821H386.229L391.385 176.091H392.962L387.763 180.885L391.3 187H389.723ZM393.455 187H392.07L397.887 176.091H399.25L401.445 187H400.06L398.334 177.817H398.249L393.455 187ZM394.669 182.739H400.252L400.06 183.911H394.478L394.669 182.739Z" fill="#398E8B"/>
<path d="M498 181C498 255.006 438.006 315 364 315C289.994 315 230 255.006 230 181C230 106.994 289.994 47 364 47C438.006 47 498 106.994 498 181Z" fill="#F4F7FB"/>
<mask id="path-4-inside-1_212_3761" fill="white">
<path d="M187 181C187 134.057 205.648 89.036 238.842 55.8421C272.036 22.6482 317.057 4 364 4V24.3914C322.465 24.3914 282.631 40.8912 253.261 70.261C223.891 99.6308 207.391 139.465 207.391 181H187Z"/>
</mask>
<path d="M187 181C187 134.057 205.648 89.036 238.842 55.8421C272.036 22.6482 317.057 4 364 4V24.3914C322.465 24.3914 282.631 40.8912 253.261 70.261C223.891 99.6308 207.391 139.465 207.391 181H187Z" stroke="#F4F7FB" stroke-width="50" stroke-linecap="round" mask="url(#path-4-inside-1_212_3761)"/>
<mask id="path-5-inside-2_212_3761" fill="white">
<path d="M364 358C325.036 358 287.161 345.143 256.249 321.424C225.337 297.704 203.116 264.447 193.031 226.811L212.728 221.533C221.65 254.834 241.312 284.259 268.663 305.246C296.014 326.233 329.525 337.609 364 337.609L364 358Z"/>
</mask>
<path d="M364 358C325.036 358 287.161 345.143 256.249 321.424C225.337 297.704 203.116 264.447 193.031 226.811L212.728 221.533C221.65 254.834 241.312 284.259 268.663 305.246C296.014 326.233 329.525 337.609 364 337.609L364 358Z" stroke="#F4F7FB" stroke-width="50" stroke-linecap="round" mask="url(#path-5-inside-2_212_3761)"/>
<mask id="path-6-inside-3_212_3761" fill="white">
<path d="M541 181C541 219.964 528.143 257.839 504.424 288.751C480.704 319.663 447.447 341.884 409.811 351.969L404.533 332.272C437.834 323.35 467.259 303.688 488.246 276.337C509.233 248.986 520.609 215.475 520.609 181H541Z"/>
</mask>
<path d="M541 181C541 219.964 528.143 257.839 504.424 288.751C480.704 319.663 447.447 341.884 409.811 351.969L404.533 332.272C437.834 323.35 467.259 303.688 488.246 276.337C509.233 248.986 520.609 215.475 520.609 181H541Z" stroke="#F4F7FB" stroke-width="50" stroke-linecap="round" mask="url(#path-6-inside-3_212_3761)"/>
<path d="M63.6167 316L65.4278 305.091H69.1139C69.9662 305.091 70.6391 305.244 71.1327 305.549C71.6299 305.854 71.9655 306.268 72.1395 306.79C72.317 307.312 72.3525 307.896 72.246 308.543C72.1395 309.182 71.9104 309.764 71.5589 310.29C71.2108 310.815 70.7385 311.234 70.142 311.547C69.5489 311.859 68.8298 312.016 67.9846 312.016H65.3426L65.5344 310.844H68.1338C68.7162 310.844 69.2027 310.743 69.5933 310.54C69.9839 310.338 70.2893 310.062 70.5095 309.714C70.7297 309.366 70.8753 308.976 70.9463 308.543C71.0173 308.102 70.9996 307.712 70.893 307.371C70.79 307.026 70.5752 306.756 70.2485 306.561C69.9253 306.362 69.469 306.263 68.8795 306.263H66.5571L64.9378 316H63.6167ZM75.3395 316.192C74.821 316.192 74.3665 316.094 73.9759 315.899C73.5852 315.7 73.2958 315.414 73.1076 315.041C72.9194 314.665 72.8679 314.21 72.9531 313.678C73.0348 313.209 73.1928 312.829 73.4272 312.538C73.6616 312.243 73.9457 312.012 74.2795 311.845C74.6168 311.675 74.979 311.549 75.3661 311.467C75.7567 311.382 76.1456 311.316 76.5327 311.27C77.0369 311.206 77.4471 311.156 77.7631 311.121C78.0792 311.085 78.3171 311.027 78.4769 310.945C78.6367 310.863 78.7344 310.723 78.7699 310.524V310.482C78.8551 309.96 78.7859 309.553 78.5621 309.262C78.3384 308.967 77.9389 308.82 77.3636 308.82C76.767 308.82 76.2681 308.951 75.8668 309.214C75.4656 309.477 75.169 309.757 74.9773 310.055L73.8693 309.629C74.1605 309.132 74.5085 308.745 74.9134 308.468C75.3182 308.187 75.7425 307.992 76.1864 307.882C76.6303 307.768 77.0582 307.712 77.4702 307.712C77.733 307.712 78.0295 307.744 78.3597 307.808C78.69 307.868 78.9989 307.994 79.2866 308.186C79.5778 308.377 79.7962 308.667 79.9418 309.054C80.0909 309.441 80.1122 309.96 80.0057 310.609L79.1108 316H77.8537L78.0455 314.892H77.9815C77.8679 315.07 77.6939 315.26 77.4595 315.462C77.2287 315.664 76.9357 315.837 76.5806 315.979C76.229 316.121 75.8153 316.192 75.3395 316.192ZM75.7017 315.062C76.1989 315.062 76.6339 314.965 77.0067 314.77C77.3832 314.574 77.685 314.322 77.9123 314.013C78.1431 313.704 78.2869 313.379 78.3438 313.038L78.5355 311.888C78.4716 311.952 78.3455 312.01 78.1573 312.064C77.9691 312.113 77.756 312.158 77.5181 312.197C77.2837 312.232 77.0547 312.264 76.831 312.293C76.6108 312.317 76.4332 312.339 76.2983 312.357C75.9645 312.399 75.6467 312.468 75.3448 312.564C75.0465 312.657 74.7944 312.797 74.5884 312.985C74.386 313.17 74.2599 313.422 74.2102 313.741C74.1357 314.178 74.2404 314.509 74.5245 314.732C74.8086 314.952 75.201 315.062 75.7017 315.062ZM81.2455 313.912H82.5878C82.5523 314.281 82.6713 314.562 82.9447 314.754C83.2217 314.945 83.607 315.041 84.1006 315.041C84.6048 315.041 85.0523 314.938 85.4429 314.732C85.8371 314.523 86.0715 314.185 86.146 313.72C86.1922 313.447 86.1656 313.209 86.0661 313.006C85.9667 312.8 85.8034 312.641 85.5761 312.527C85.3524 312.413 85.0736 312.357 84.7398 312.357H83.3335L83.5253 311.227H84.9316C85.4287 311.227 85.8158 311.114 86.0928 310.886C86.3698 310.659 86.5367 310.375 86.5935 310.034C86.6539 309.668 86.5722 309.375 86.3485 309.155C86.1247 308.931 85.7732 308.82 85.2938 308.82C84.8179 308.82 84.4024 308.928 84.0473 309.145C83.6922 309.358 83.4756 309.633 83.3975 309.97H82.0764C82.1652 309.53 82.3659 309.141 82.6784 308.804C82.9909 308.463 83.3833 308.196 83.8556 308.005C84.3314 307.809 84.8534 307.712 85.4216 307.712C85.9969 307.712 86.4798 307.813 86.8705 308.015C87.2611 308.214 87.5434 308.486 87.7174 308.83C87.895 309.171 87.9465 309.558 87.8719 309.991C87.7973 310.453 87.6056 310.826 87.2966 311.11C86.9912 311.394 86.6361 311.597 86.2313 311.717L86.21 311.803C86.5154 311.824 86.7675 311.923 86.9664 312.101C87.1688 312.275 87.309 312.504 87.3872 312.788C87.4688 313.069 87.4813 313.379 87.4244 313.72C87.3428 314.217 87.1386 314.651 86.8119 315.02C86.4852 315.386 86.0732 315.67 85.5761 315.872C85.0789 316.071 84.5303 316.17 83.9301 316.17C83.3513 316.17 82.8488 316.076 82.4227 315.888C82.0001 315.696 81.6823 315.432 81.4692 315.094C81.2597 314.754 81.1851 314.359 81.2455 313.912ZM93.5688 314.295L97.5106 307.818H98.7037L93.8032 316H92.7805L90.6711 307.818H91.843L93.5688 314.295ZM91.4381 307.818L90.0745 316H88.8174L90.181 307.818H91.4381ZM96.5091 316L97.8728 307.818H99.1299L97.7662 316H96.5091ZM103.476 316.17C102.692 316.17 102.044 315.996 101.532 315.648C101.021 315.297 100.664 314.807 100.462 314.178C100.259 313.546 100.227 312.811 100.366 311.973C100.504 311.135 100.779 310.396 101.191 309.757C101.603 309.114 102.116 308.614 102.731 308.255C103.345 307.893 104.02 307.712 104.755 307.712C105.181 307.712 105.591 307.783 105.985 307.925C106.38 308.067 106.72 308.298 107.008 308.617C107.296 308.933 107.496 309.352 107.61 309.874C107.724 310.396 107.717 311.039 107.589 311.803L107.503 312.335H101.197L101.367 311.249H106.396C106.477 310.787 106.456 310.375 106.332 310.013C106.211 309.651 106 309.365 105.698 309.155C105.399 308.946 105.021 308.841 104.563 308.841C104.091 308.841 103.65 308.969 103.242 309.224C102.834 309.477 102.493 309.796 102.219 310.183C101.946 310.567 101.775 310.957 101.708 311.355L101.559 312.293C101.452 312.971 101.468 313.511 101.607 313.912C101.749 314.313 101.996 314.603 102.347 314.78C102.699 314.954 103.139 315.041 103.668 315.041C104.006 315.041 104.316 314.995 104.6 314.903C104.884 314.807 105.138 314.665 105.362 314.477C105.586 314.285 105.774 314.047 105.927 313.763L107.077 314.104C106.882 314.516 106.607 314.878 106.252 315.19C105.9 315.499 105.488 315.741 105.016 315.915C104.547 316.085 104.034 316.17 103.476 316.17ZM120.141 314.828L119.417 318.344H118.117L118.5 316H117.435L117.627 314.828H120.141ZM110.191 307.818H111.448L110.276 314.828H113.366L114.537 307.818H115.794L114.623 314.828H117.712L118.884 307.818H120.141L118.777 316H108.827L110.191 307.818ZM125.083 316.17C124.298 316.17 123.65 315.996 123.139 315.648C122.627 315.297 122.27 314.807 122.068 314.178C121.866 313.546 121.834 312.811 121.972 311.973C122.111 311.135 122.386 310.396 122.798 309.757C123.21 309.114 123.723 308.614 124.337 308.255C124.952 307.893 125.626 307.712 126.361 307.712C126.787 307.712 127.198 307.783 127.592 307.925C127.986 308.067 128.327 308.298 128.615 308.617C128.902 308.933 129.103 309.352 129.216 309.874C129.33 310.396 129.323 311.039 129.195 311.803L129.11 312.335H122.803L122.974 311.249H128.002C128.084 310.787 128.062 310.375 127.938 310.013C127.817 309.651 127.606 309.365 127.304 309.155C127.006 308.946 126.628 308.841 126.17 308.841C125.697 308.841 125.257 308.969 124.849 309.224C124.44 309.477 124.099 309.796 123.826 310.183C123.552 310.567 123.382 310.957 123.314 311.355L123.165 312.293C123.059 312.971 123.075 313.511 123.213 313.912C123.355 314.313 123.602 314.603 123.954 314.78C124.305 314.954 124.746 315.041 125.275 315.041C125.612 315.041 125.923 314.995 126.207 314.903C126.491 314.807 126.745 314.665 126.969 314.477C127.192 314.285 127.381 314.047 127.533 313.763L128.684 314.104C128.488 314.516 128.213 314.878 127.858 315.19C127.507 315.499 127.095 315.741 126.622 315.915C126.154 316.085 125.64 316.17 125.083 316.17ZM136.676 311.334L136.485 312.506H131.968L132.159 311.334H136.676ZM133.054 307.818L131.691 316H130.434L131.797 307.818H133.054ZM138.232 307.818L136.868 316H135.611L136.975 307.818H138.232ZM140.741 314.146L145.727 307.818H147.175L145.812 316H144.555L145.599 309.672L140.634 316H139.164L140.528 307.818H141.785L140.741 314.146ZM151.523 316.17C150.739 316.17 150.09 315.996 149.579 315.648C149.068 315.297 148.711 314.807 148.508 314.178C148.306 313.546 148.274 312.811 148.413 311.973C148.551 311.135 148.826 310.396 149.238 309.757C149.65 309.114 150.163 308.614 150.778 308.255C151.392 307.893 152.067 307.712 152.802 307.712C153.228 307.712 153.638 307.783 154.032 307.925C154.426 308.067 154.767 308.298 155.055 308.617C155.343 308.933 155.543 309.352 155.657 309.874C155.771 310.396 155.763 311.039 155.636 311.803L155.55 312.335H149.244L149.414 311.249H154.442C154.524 310.787 154.503 310.375 154.378 310.013C154.258 309.651 154.046 309.365 153.745 309.155C153.446 308.946 153.068 308.841 152.61 308.841C152.138 308.841 151.697 308.969 151.289 309.224C150.881 309.477 150.54 309.796 150.266 310.183C149.993 310.567 149.822 310.957 149.755 311.355L149.606 312.293C149.499 312.971 149.515 313.511 149.654 313.912C149.796 314.313 150.043 314.603 150.394 314.78C150.746 314.954 151.186 315.041 151.715 315.041C152.052 315.041 152.363 314.995 152.647 314.903C152.931 314.807 153.185 314.665 153.409 314.477C153.633 314.285 153.821 314.047 153.974 313.763L155.124 314.104C154.929 314.516 154.654 314.878 154.299 315.19C153.947 315.499 153.535 315.741 153.063 315.915C152.594 316.085 152.081 316.17 151.523 316.17ZM164.8 316.149C164.09 316.149 163.474 316.03 162.952 315.792C162.433 315.551 162.046 315.215 161.791 314.786C161.535 314.352 161.444 313.848 161.519 313.273H162.84C162.808 313.621 162.868 313.923 163.021 314.178C163.177 314.434 163.408 314.631 163.714 314.77C164.022 314.908 164.392 314.977 164.821 314.977C165.28 314.977 165.709 314.897 166.111 314.738C166.515 314.578 166.854 314.347 167.128 314.045C167.401 313.74 167.57 313.376 167.634 312.953C167.691 312.573 167.648 312.236 167.506 311.941C167.364 311.646 167.119 311.415 166.771 311.249C166.427 311.078 165.976 310.993 165.418 310.993H164.523L164.715 309.821H165.546C165.979 309.821 166.377 309.739 166.739 309.576C167.101 309.413 167.403 309.184 167.645 308.889C167.886 308.591 168.039 308.241 168.103 307.839C168.163 307.488 168.138 307.183 168.028 306.923C167.922 306.661 167.737 306.456 167.474 306.311C167.215 306.165 166.885 306.092 166.483 306.092C166.1 306.092 165.723 306.162 165.354 306.3C164.988 306.435 164.676 306.632 164.417 306.891C164.157 307.147 163.994 307.456 163.927 307.818H162.648C162.758 307.25 163.005 306.751 163.389 306.321C163.772 305.888 164.239 305.551 164.79 305.309C165.343 305.064 165.929 304.942 166.547 304.942C167.233 304.942 167.797 305.084 168.241 305.368C168.689 305.648 169.008 306.018 169.2 306.476C169.392 306.93 169.445 307.42 169.36 307.946C169.264 308.546 169.017 309.054 168.619 309.469C168.222 309.885 167.737 310.18 167.165 310.354V310.418C167.836 310.535 168.323 310.844 168.625 311.344C168.93 311.842 169.026 312.435 168.912 313.124C168.813 313.741 168.573 314.278 168.193 314.732C167.813 315.183 167.332 315.533 166.75 315.782C166.167 316.027 165.517 316.149 164.8 316.149ZM173.03 316.192C172.511 316.192 172.057 316.094 171.666 315.899C171.276 315.7 170.986 315.414 170.798 315.041C170.61 314.665 170.558 314.21 170.644 313.678C170.725 313.209 170.883 312.829 171.118 312.538C171.352 312.243 171.636 312.012 171.97 311.845C172.307 311.675 172.669 311.549 173.057 311.467C173.447 311.382 173.836 311.316 174.223 311.27C174.727 311.206 175.138 311.156 175.454 311.121C175.77 311.085 176.008 311.027 176.167 310.945C176.327 310.863 176.425 310.723 176.46 310.524V310.482C176.546 309.96 176.476 309.553 176.253 309.262C176.029 308.967 175.629 308.82 175.054 308.82C174.457 308.82 173.959 308.951 173.557 309.214C173.156 309.477 172.859 309.757 172.668 310.055L171.56 309.629C171.851 309.132 172.199 308.745 172.604 308.468C173.009 308.187 173.433 307.992 173.877 307.882C174.321 307.768 174.749 307.712 175.161 307.712C175.423 307.712 175.72 307.744 176.05 307.808C176.38 307.868 176.689 307.994 176.977 308.186C177.268 308.377 177.487 308.667 177.632 309.054C177.781 309.441 177.803 309.96 177.696 310.609L176.801 316H175.544L175.736 314.892H175.672C175.558 315.07 175.384 315.26 175.15 315.462C174.919 315.664 174.626 315.837 174.271 315.979C173.919 316.121 173.506 316.192 173.03 316.192ZM173.392 315.062C173.889 315.062 174.324 314.965 174.697 314.77C175.074 314.574 175.375 314.322 175.603 314.013C175.834 313.704 175.977 313.379 176.034 313.038L176.226 311.888C176.162 311.952 176.036 312.01 175.848 312.064C175.66 312.113 175.446 312.158 175.209 312.197C174.974 312.232 174.745 312.264 174.521 312.293C174.301 312.317 174.124 312.339 173.989 312.357C173.655 312.399 173.337 312.468 173.035 312.564C172.737 312.657 172.485 312.797 172.279 312.985C172.076 313.17 171.95 313.422 171.901 313.741C171.826 314.178 171.931 314.509 172.215 314.732C172.499 314.952 172.891 315.062 173.392 315.062ZM179.096 316L180.459 307.818H181.716L181.12 311.376H181.951L185.488 307.818H187.107L183.144 311.76L185.786 316H184.167L182.057 312.548H180.928L180.353 316H179.096ZM189.539 316.192C189.02 316.192 188.566 316.094 188.175 315.899C187.784 315.7 187.495 315.414 187.307 315.041C187.119 314.665 187.067 314.21 187.152 313.678C187.234 313.209 187.392 312.829 187.626 312.538C187.861 312.243 188.145 312.012 188.479 311.845C188.816 311.675 189.178 311.549 189.565 311.467C189.956 311.382 190.345 311.316 190.732 311.27C191.236 311.206 191.646 311.156 191.962 311.121C192.278 311.085 192.516 311.027 192.676 310.945C192.836 310.863 192.934 310.723 192.969 310.524V310.482C193.054 309.96 192.985 309.553 192.761 309.262C192.538 308.967 192.138 308.82 191.563 308.82C190.966 308.82 190.467 308.951 190.066 309.214C189.665 309.477 189.368 309.757 189.176 310.055L188.069 309.629C188.36 309.132 188.708 308.745 189.113 308.468C189.517 308.187 189.942 307.992 190.386 307.882C190.83 307.768 191.257 307.712 191.669 307.712C191.932 307.712 192.229 307.744 192.559 307.808C192.889 307.868 193.198 307.994 193.486 308.186C193.777 308.377 193.995 308.667 194.141 309.054C194.29 309.441 194.311 309.96 194.205 310.609L193.31 316H192.053L192.245 314.892H192.181C192.067 315.07 191.893 315.26 191.659 315.462C191.428 315.664 191.135 315.837 190.78 315.979C190.428 316.121 190.015 316.192 189.539 316.192ZM189.901 315.062C190.398 315.062 190.833 314.965 191.206 314.77C191.582 314.574 191.884 314.322 192.112 314.013C192.342 313.704 192.486 313.379 192.543 313.038L192.735 311.888C192.671 311.952 192.545 312.01 192.357 312.064C192.168 312.113 191.955 312.158 191.717 312.197C191.483 312.232 191.254 312.264 191.03 312.293C190.81 312.317 190.632 312.339 190.498 312.357C190.164 312.399 189.846 312.468 189.544 312.564C189.246 312.657 188.994 312.797 188.788 312.985C188.585 313.17 188.459 313.422 188.409 313.741C188.335 314.178 188.44 314.509 188.724 314.732C189.008 314.952 189.4 315.062 189.901 315.062ZM195.445 313.912H196.787C196.752 314.281 196.87 314.562 197.144 314.754C197.421 314.945 197.806 315.041 198.3 315.041C198.804 315.041 199.252 314.938 199.642 314.732C200.036 314.523 200.271 314.185 200.345 313.72C200.391 313.447 200.365 313.209 200.265 313.006C200.166 312.8 200.003 312.641 199.775 312.527C199.552 312.413 199.273 312.357 198.939 312.357H197.533L197.725 311.227H199.131C199.628 311.227 200.015 311.114 200.292 310.886C200.569 310.659 200.736 310.375 200.793 310.034C200.853 309.668 200.771 309.375 200.548 309.155C200.324 308.931 199.972 308.82 199.493 308.82C199.017 308.82 198.602 308.928 198.247 309.145C197.891 309.358 197.675 309.633 197.597 309.97H196.276C196.364 309.53 196.565 309.141 196.878 308.804C197.19 308.463 197.582 308.196 198.055 308.005C198.531 307.809 199.053 307.712 199.621 307.712C200.196 307.712 200.679 307.813 201.07 308.015C201.46 308.214 201.743 308.486 201.917 308.83C202.094 309.171 202.146 309.558 202.071 309.991C201.997 310.453 201.805 310.826 201.496 311.11C201.19 311.394 200.835 311.597 200.43 311.717L200.409 311.803C200.715 311.824 200.967 311.923 201.166 312.101C201.368 312.275 201.508 312.504 201.586 312.788C201.668 313.069 201.68 313.379 201.624 313.72C201.542 314.217 201.338 314.651 201.011 315.02C200.684 315.386 200.272 315.67 199.775 315.872C199.278 316.071 198.729 316.17 198.129 316.17C197.551 316.17 197.048 316.076 196.622 315.888C196.199 315.696 195.881 315.432 195.668 315.094C195.459 314.754 195.384 314.359 195.445 313.912ZM205.403 316.192C204.884 316.192 204.43 316.094 204.039 315.899C203.649 315.7 203.359 315.414 203.171 315.041C202.983 314.665 202.931 314.21 203.017 313.678C203.098 313.209 203.256 312.829 203.491 312.538C203.725 312.243 204.009 312.012 204.343 311.845C204.68 311.675 205.043 311.549 205.43 311.467C205.82 311.382 206.209 311.316 206.596 311.27C207.1 311.206 207.511 311.156 207.827 311.121C208.143 311.085 208.381 311.027 208.54 310.945C208.7 310.863 208.798 310.723 208.833 310.524V310.482C208.919 309.96 208.849 309.553 208.626 309.262C208.402 308.967 208.002 308.82 207.427 308.82C206.831 308.82 206.332 308.951 205.93 309.214C205.529 309.477 205.233 309.757 205.041 310.055L203.933 309.629C204.224 309.132 204.572 308.745 204.977 308.468C205.382 308.187 205.806 307.992 206.25 307.882C206.694 307.768 207.122 307.712 207.534 307.712C207.796 307.712 208.093 307.744 208.423 307.808C208.753 307.868 209.062 307.994 209.35 308.186C209.641 308.377 209.86 308.667 210.005 309.054C210.154 309.441 210.176 309.96 210.069 310.609L209.174 316H207.917L208.109 314.892H208.045C207.931 315.07 207.757 315.26 207.523 315.462C207.292 315.664 206.999 315.837 206.644 315.979C206.293 316.121 205.879 316.192 205.403 316.192ZM205.765 315.062C206.262 315.062 206.697 314.965 207.07 314.77C207.447 314.574 207.748 314.322 207.976 314.013C208.207 313.704 208.35 313.379 208.407 313.038L208.599 311.888C208.535 311.952 208.409 312.01 208.221 312.064C208.033 312.113 207.82 312.158 207.582 312.197C207.347 312.232 207.118 312.264 206.894 312.293C206.674 312.317 206.497 312.339 206.362 312.357C206.028 312.399 205.71 312.468 205.408 312.564C205.11 312.657 204.858 312.797 204.652 312.985C204.449 313.17 204.323 313.422 204.274 313.741C204.199 314.178 204.304 314.509 204.588 314.732C204.872 314.952 205.264 315.062 205.765 315.062Z" fill="#2E7E7C"/>
<path d="M574.053 170L571.134 164.993H569.791L568.96 170H567.639L569.45 159.091H570.771L569.983 163.821H570.558L575.714 159.091H577.291L572.092 163.885L575.629 170H574.053ZM579.943 170.17C579.19 170.17 578.559 169.991 578.052 169.632C577.544 169.274 577.185 168.771 576.976 168.125C576.77 167.479 576.736 166.726 576.874 165.866C577.009 165.028 577.277 164.299 577.679 163.677C578.084 163.052 578.586 162.569 579.186 162.228C579.79 161.884 580.454 161.712 581.178 161.712C581.931 161.712 582.56 161.893 583.064 162.255C583.572 162.614 583.93 163.118 584.14 163.768C584.35 164.414 584.385 165.17 584.247 166.037C584.112 166.868 583.84 167.594 583.432 168.216C583.027 168.833 582.524 169.315 581.924 169.659C581.328 170 580.667 170.17 579.943 170.17ZM579.964 169.041C580.539 169.041 581.038 168.894 581.461 168.599C581.887 168.304 582.231 167.915 582.494 167.433C582.76 166.95 582.94 166.428 583.032 165.866C583.117 165.334 583.114 164.838 583.021 164.38C582.929 163.919 582.732 163.548 582.43 163.267C582.128 162.983 581.704 162.841 581.157 162.841C580.582 162.841 580.079 162.99 579.65 163.288C579.223 163.587 578.879 163.979 578.616 164.466C578.353 164.952 578.178 165.476 578.089 166.037C578.004 166.57 578.005 167.065 578.094 167.523C578.187 167.978 578.384 168.345 578.685 168.626C578.991 168.903 579.417 169.041 579.964 169.041ZM591.759 165.334L591.567 166.506H587.05L587.241 165.334H591.759ZM588.136 161.818L586.773 170H585.516L586.879 161.818H588.136ZM593.314 161.818L591.95 170H590.693L592.057 161.818H593.314ZM594.305 162.99L594.496 161.818H601.144L600.952 162.99H598.268L597.117 170H595.86L597.011 162.99H594.305ZM601.103 173.068L602.989 161.818H604.203L603.99 163.118H604.139C604.253 162.976 604.409 162.795 604.608 162.575C604.81 162.351 605.082 162.152 605.423 161.978C605.767 161.8 606.206 161.712 606.739 161.712C607.427 161.712 608.005 161.884 608.47 162.228C608.935 162.573 609.263 163.061 609.455 163.693C609.647 164.325 609.672 165.071 609.53 165.93C609.388 166.797 609.116 167.548 608.715 168.184C608.313 168.816 607.823 169.306 607.245 169.654C606.666 169.998 606.035 170.17 605.354 170.17C604.828 170.17 604.421 170.083 604.134 169.909C603.846 169.732 603.637 169.531 603.505 169.308C603.374 169.08 603.273 168.892 603.202 168.743H603.095L602.371 173.068H601.103ZM603.543 165.909C603.443 166.527 603.443 167.072 603.543 167.544C603.646 168.013 603.85 168.381 604.155 168.647C604.464 168.91 604.871 169.041 605.375 169.041C605.9 169.041 606.36 168.903 606.755 168.626C607.152 168.345 607.479 167.969 607.735 167.496C607.994 167.021 608.173 166.491 608.273 165.909C608.365 165.334 608.361 164.815 608.262 164.354C608.163 163.888 607.96 163.521 607.655 163.251C607.349 162.978 606.93 162.841 606.398 162.841C605.886 162.841 605.434 162.971 605.039 163.23C604.649 163.485 604.326 163.844 604.07 164.306C603.818 164.764 603.642 165.298 603.543 165.909ZM614.147 170.17C613.394 170.17 612.763 169.991 612.256 169.632C611.748 169.274 611.389 168.771 611.18 168.125C610.974 167.479 610.94 166.726 611.078 165.866C611.213 165.028 611.482 164.299 611.883 163.677C612.288 163.052 612.79 162.569 613.39 162.228C613.994 161.884 614.658 161.712 615.382 161.712C616.135 161.712 616.764 161.893 617.268 162.255C617.776 162.614 618.135 163.118 618.344 163.768C618.554 164.414 618.589 165.17 618.451 166.037C618.316 166.868 618.044 167.594 617.636 168.216C617.231 168.833 616.728 169.315 616.128 169.659C615.532 170 614.871 170.17 614.147 170.17ZM614.168 169.041C614.743 169.041 615.242 168.894 615.665 168.599C616.091 168.304 616.435 167.915 616.698 167.433C616.964 166.95 617.144 166.428 617.236 165.866C617.321 165.334 617.318 164.838 617.225 164.38C617.133 163.919 616.936 163.548 616.634 163.267C616.332 162.983 615.908 162.841 615.361 162.841C614.786 162.841 614.283 162.99 613.854 163.288C613.428 163.587 613.083 163.979 612.82 164.466C612.558 164.952 612.382 165.476 612.293 166.037C612.208 166.57 612.21 167.065 612.298 167.523C612.391 167.978 612.588 168.345 612.89 168.626C613.195 168.903 613.621 169.041 614.168 169.041ZM618.995 170L619.187 168.828H619.485C619.73 168.828 619.942 168.78 620.119 168.684C620.3 168.585 620.462 168.413 620.604 168.168C620.75 167.919 620.886 167.575 621.014 167.134C621.146 166.69 621.282 166.126 621.424 165.44L622.17 161.818H627.625L626.261 170H625.004L626.176 162.99H623.171L622.554 165.909C622.415 166.58 622.257 167.172 622.079 167.683C621.905 168.191 621.698 168.617 621.456 168.961C621.218 169.306 620.932 169.565 620.599 169.739C620.268 169.913 619.876 170 619.421 170H618.995ZM630.528 164.78H632.871C633.83 164.78 634.521 165.023 634.943 165.51C635.37 165.996 635.524 166.612 635.407 167.358C635.322 167.848 635.132 168.294 634.837 168.695C634.542 169.093 634.155 169.411 633.676 169.648C633.196 169.883 632.637 170 631.998 170H628.567L629.931 161.818H631.188L630.016 168.828H632.19C632.69 168.828 633.122 168.699 633.484 168.439C633.85 168.176 634.065 167.837 634.128 167.422C634.203 166.985 634.102 166.632 633.825 166.362C633.551 166.088 633.17 165.952 632.68 165.952H630.336L630.528 164.78ZM647.676 170L644.757 164.993H643.414L642.583 170H641.262L643.073 159.091H644.394L643.606 163.821H644.181L649.338 159.091H650.914L645.715 163.885L649.252 170H647.676ZM653.175 170.192C652.657 170.192 652.202 170.094 651.812 169.899C651.421 169.7 651.132 169.414 650.944 169.041C650.755 168.665 650.704 168.21 650.789 167.678C650.871 167.209 651.029 166.829 651.263 166.538C651.498 166.243 651.782 166.012 652.115 165.845C652.453 165.675 652.815 165.549 653.202 165.467C653.593 165.382 653.982 165.316 654.369 165.27C654.873 165.206 655.283 165.156 655.599 165.121C655.915 165.085 656.153 165.027 656.313 164.945C656.473 164.863 656.57 164.723 656.606 164.524V164.482C656.691 163.96 656.622 163.553 656.398 163.262C656.174 162.967 655.775 162.82 655.2 162.82C654.603 162.82 654.104 162.951 653.703 163.214C653.301 163.477 653.005 163.757 652.813 164.055L651.705 163.629C651.996 163.132 652.344 162.745 652.749 162.468C653.154 162.187 653.578 161.992 654.022 161.882C654.466 161.768 654.894 161.712 655.306 161.712C655.569 161.712 655.865 161.744 656.196 161.808C656.526 161.868 656.835 161.994 657.123 162.186C657.414 162.377 657.632 162.667 657.778 163.054C657.927 163.441 657.948 163.96 657.842 164.609L656.947 170H655.69L655.881 168.892H655.817C655.704 169.07 655.53 169.26 655.295 169.462C655.065 169.664 654.772 169.837 654.417 169.979C654.065 170.121 653.651 170.192 653.175 170.192ZM653.538 169.062C654.035 169.062 654.47 168.965 654.843 168.77C655.219 168.574 655.521 168.322 655.748 168.013C655.979 167.704 656.123 167.379 656.18 167.038L656.371 165.888C656.308 165.952 656.181 166.01 655.993 166.064C655.805 166.113 655.592 166.158 655.354 166.197C655.12 166.232 654.891 166.264 654.667 166.293C654.447 166.317 654.269 166.339 654.134 166.357C653.8 166.399 653.483 166.468 653.181 166.564C652.882 166.657 652.63 166.797 652.424 166.985C652.222 167.17 652.096 167.422 652.046 167.741C651.972 168.178 652.076 168.509 652.36 168.732C652.645 168.952 653.037 169.062 653.538 169.062ZM666.89 161.818L665.548 170H664.291L665.633 161.818H666.89ZM665.761 165.717L665.569 166.889C665.267 166.996 664.969 167.09 664.674 167.172C664.38 167.25 664.074 167.312 663.758 167.358C663.446 167.401 663.105 167.422 662.736 167.422C661.805 167.422 661.102 167.172 660.626 166.671C660.15 166.17 659.994 165.419 660.157 164.418L660.584 161.797H661.841L661.415 164.418C661.347 164.837 661.37 165.181 661.484 165.451C661.597 165.721 661.78 165.922 662.032 166.053C662.288 166.184 662.586 166.25 662.927 166.25C663.456 166.25 663.945 166.202 664.392 166.106C664.843 166.007 665.299 165.877 665.761 165.717ZM671.264 170.17C670.479 170.17 669.831 169.996 669.319 169.648C668.808 169.297 668.451 168.807 668.249 168.178C668.046 167.546 668.014 166.811 668.153 165.973C668.291 165.135 668.566 164.396 668.978 163.757C669.39 163.114 669.903 162.614 670.518 162.255C671.132 161.893 671.807 161.712 672.542 161.712C672.968 161.712 673.378 161.783 673.772 161.925C674.167 162.067 674.508 162.298 674.795 162.617C675.083 162.933 675.283 163.352 675.397 163.874C675.511 164.396 675.504 165.039 675.376 165.803L675.291 166.335H668.984L669.154 165.249H674.183C674.264 164.787 674.243 164.375 674.119 164.013C673.998 163.651 673.787 163.365 673.485 163.155C673.187 162.946 672.808 162.841 672.35 162.841C671.878 162.841 671.438 162.969 671.029 163.224C670.621 163.477 670.28 163.796 670.006 164.183C669.733 164.567 669.563 164.957 669.495 165.355L669.346 166.293C669.239 166.971 669.255 167.511 669.394 167.912C669.536 168.313 669.783 168.603 670.134 168.78C670.486 168.954 670.926 169.041 671.455 169.041C671.793 169.041 672.103 168.995 672.388 168.903C672.672 168.807 672.926 168.665 673.149 168.477C673.373 168.285 673.561 168.047 673.714 167.763L674.864 168.104C674.669 168.516 674.394 168.878 674.039 169.19C673.687 169.499 673.275 169.741 672.803 169.915C672.334 170.085 671.821 170.17 671.264 170.17ZM679.917 170.17C679.146 170.17 678.514 169.989 678.021 169.627C677.53 169.265 677.19 168.766 676.998 168.13C676.806 167.495 676.778 166.768 676.913 165.952C677.047 165.121 677.321 164.387 677.733 163.752C678.145 163.113 678.658 162.614 679.272 162.255C679.887 161.893 680.563 161.712 681.302 161.712C681.877 161.712 682.378 161.818 682.804 162.031C683.23 162.244 683.559 162.543 683.789 162.926C684.02 163.31 684.128 163.757 684.114 164.268H682.857C682.822 163.896 682.662 163.565 682.378 163.278C682.097 162.987 681.682 162.841 681.131 162.841C680.641 162.841 680.19 162.969 679.778 163.224C679.366 163.477 679.02 163.833 678.74 164.295C678.459 164.753 678.269 165.291 678.17 165.909C678.063 166.541 678.072 167.092 678.196 167.56C678.321 168.029 678.546 168.393 678.873 168.652C679.199 168.912 679.611 169.041 680.109 169.041C680.435 169.041 680.741 168.984 681.025 168.871C681.309 168.757 681.561 168.594 681.781 168.381C682.001 168.168 682.175 167.912 682.303 167.614H683.56C683.404 168.097 683.154 168.532 682.809 168.919C682.465 169.302 682.047 169.608 681.557 169.835C681.067 170.059 680.521 170.17 679.917 170.17ZM685.521 162.99L685.712 161.818H692.36L692.168 162.99H689.484L688.333 170H687.076L688.226 162.99H685.521ZM692.83 170L694.194 161.818H697.539C698.412 161.818 699.077 162.019 699.531 162.42C699.986 162.818 700.16 163.342 700.053 163.991C699.968 164.492 699.755 164.877 699.414 165.147C699.073 165.417 698.668 165.6 698.199 165.696C698.491 165.739 698.764 165.845 699.02 166.016C699.279 166.186 699.476 166.42 699.611 166.719C699.749 167.017 699.783 167.379 699.712 167.805C699.641 168.224 699.471 168.599 699.201 168.929C698.934 169.26 698.586 169.521 698.157 169.712C697.731 169.904 697.241 170 696.687 170H692.83ZM694.215 168.849H696.878C697.315 168.849 697.674 168.746 697.954 168.54C698.235 168.331 698.402 168.05 698.455 167.699C698.53 167.273 698.462 166.939 698.253 166.697C698.047 166.456 697.731 166.335 697.305 166.335H694.641L694.215 168.849ZM694.812 165.249H696.964C697.297 165.249 697.594 165.202 697.853 165.11C698.112 165.014 698.322 164.879 698.482 164.705C698.642 164.528 698.739 164.318 698.775 164.077C698.839 163.736 698.741 163.466 698.482 163.267C698.226 163.068 697.848 162.969 697.347 162.969H695.195L694.812 165.249ZM703.639 170.192C703.121 170.192 702.666 170.094 702.276 169.899C701.885 169.7 701.596 169.414 701.407 169.041C701.219 168.665 701.168 168.21 701.253 167.678C701.335 167.209 701.493 166.829 701.727 166.538C701.961 166.243 702.245 166.012 702.579 165.845C702.917 165.675 703.279 165.549 703.666 165.467C704.057 165.382 704.445 165.316 704.832 165.27C705.337 165.206 705.747 165.156 706.063 165.121C706.379 165.085 706.617 165.027 706.777 164.945C706.937 164.863 707.034 164.723 707.07 164.524V164.482C707.155 163.96 707.086 163.553 706.862 163.262C706.638 162.967 706.239 162.82 705.663 162.82C705.067 162.82 704.568 162.951 704.167 163.214C703.765 163.477 703.469 163.757 703.277 164.055L702.169 163.629C702.46 163.132 702.808 162.745 703.213 162.468C703.618 162.187 704.042 161.992 704.486 161.882C704.93 161.768 705.358 161.712 705.77 161.712C706.033 161.712 706.329 161.744 706.66 161.808C706.99 161.868 707.299 161.994 707.586 162.186C707.878 162.377 708.096 162.667 708.242 163.054C708.391 163.441 708.412 163.96 708.305 164.609L707.411 170H706.153L706.345 168.892H706.281C706.168 169.07 705.994 169.26 705.759 169.462C705.528 169.664 705.236 169.837 704.88 169.979C704.529 170.121 704.115 170.192 703.639 170.192ZM704.002 169.062C704.499 169.062 704.934 168.965 705.307 168.77C705.683 168.574 705.985 168.322 706.212 168.013C706.443 167.704 706.587 167.379 706.644 167.038L706.835 165.888C706.771 165.952 706.645 166.01 706.457 166.064C706.269 166.113 706.056 166.158 705.818 166.197C705.584 166.232 705.354 166.264 705.131 166.293C704.911 166.317 704.733 166.339 704.598 166.357C704.264 166.399 703.946 166.468 703.645 166.564C703.346 166.657 703.094 166.797 702.888 166.985C702.686 167.17 702.56 167.422 702.51 167.741C702.435 168.178 702.54 168.509 702.824 168.732C703.108 168.952 703.501 169.062 704.002 169.062ZM569.045 187.146L574.031 180.818H575.48L574.116 189H572.859L573.903 182.672L568.939 189H567.469L568.832 180.818H570.089L569.045 187.146ZM590.78 178.091L588.969 189H587.648L589.267 179.263H583.77L582.15 189H580.829L582.641 178.091H590.78ZM590.952 192.068L592.837 180.818H594.052L593.839 182.118H593.988C594.101 181.976 594.258 181.795 594.456 181.575C594.659 181.351 594.931 181.152 595.271 180.978C595.616 180.8 596.055 180.712 596.587 180.712C597.276 180.712 597.853 180.884 598.318 181.228C598.784 181.573 599.112 182.061 599.304 182.693C599.496 183.325 599.52 184.071 599.378 184.93C599.236 185.797 598.965 186.548 598.563 187.184C598.162 187.816 597.672 188.306 597.093 188.654C596.514 188.998 595.884 189.17 595.202 189.17C594.677 189.17 594.27 189.083 593.982 188.909C593.695 188.732 593.485 188.531 593.354 188.308C593.222 188.08 593.121 187.892 593.05 187.743H592.944L592.219 192.068H590.952ZM593.391 184.909C593.292 185.527 593.292 186.072 593.391 186.544C593.494 187.013 593.698 187.381 594.004 187.647C594.313 187.91 594.719 188.041 595.224 188.041C595.749 188.041 596.209 187.903 596.603 187.626C597.001 187.345 597.328 186.969 597.583 186.496C597.843 186.021 598.022 185.491 598.121 184.909C598.214 184.334 598.21 183.815 598.111 183.354C598.011 182.888 597.809 182.521 597.503 182.251C597.198 181.978 596.779 181.841 596.246 181.841C595.735 181.841 595.282 181.971 594.888 182.23C594.497 182.485 594.174 182.844 593.919 183.306C593.666 183.764 593.491 184.298 593.391 184.909ZM603.995 189.17C603.242 189.17 602.612 188.991 602.104 188.632C601.597 188.274 601.238 187.771 601.028 187.125C600.822 186.479 600.789 185.726 600.927 184.866C601.062 184.028 601.33 183.299 601.731 182.677C602.136 182.052 602.639 181.569 603.239 181.228C603.843 180.884 604.507 180.712 605.231 180.712C605.984 180.712 606.612 180.893 607.117 181.255C607.625 181.614 607.983 182.118 608.193 182.768C608.402 183.414 608.438 184.17 608.299 185.037C608.164 185.868 607.893 186.594 607.484 187.216C607.079 187.833 606.577 188.315 605.977 188.659C605.38 189 604.72 189.17 603.995 189.17ZM604.017 188.041C604.592 188.041 605.091 187.894 605.513 187.599C605.94 187.304 606.284 186.915 606.547 186.433C606.813 185.95 606.992 185.428 607.085 184.866C607.17 184.334 607.166 183.838 607.074 183.38C606.982 182.919 606.785 182.548 606.483 182.267C606.181 181.983 605.757 181.841 605.21 181.841C604.634 181.841 604.132 181.99 603.702 182.288C603.276 182.587 602.932 182.979 602.669 183.466C602.406 183.952 602.23 184.476 602.142 185.037C602.056 185.57 602.058 186.065 602.147 186.523C602.239 186.978 602.436 187.345 602.738 187.626C603.044 187.903 603.47 188.041 604.017 188.041ZM617.367 180.818L616.2 187.828H617.345L616.727 191.642H615.47L615.896 189H609.568L610.932 180.818H612.189L611.017 187.828H614.938L616.11 180.818H617.367ZM622.411 189.17C621.626 189.17 620.978 188.996 620.467 188.648C619.955 188.297 619.599 187.807 619.396 187.178C619.194 186.546 619.162 185.811 619.3 184.973C619.439 184.135 619.714 183.396 620.126 182.757C620.538 182.114 621.051 181.614 621.665 181.255C622.28 180.893 622.954 180.712 623.689 180.712C624.116 180.712 624.526 180.783 624.92 180.925C625.314 181.067 625.655 181.298 625.943 181.617C626.23 181.933 626.431 182.352 626.545 182.874C626.658 183.396 626.651 184.039 626.523 184.803L626.438 185.335H620.131L620.302 184.249H625.33C625.412 183.787 625.39 183.375 625.266 183.013C625.145 182.651 624.934 182.365 624.632 182.155C624.334 181.946 623.956 181.841 623.498 181.841C623.025 181.841 622.585 181.969 622.177 182.224C621.768 182.477 621.427 182.796 621.154 183.183C620.881 183.567 620.71 183.957 620.643 184.355L620.493 185.293C620.387 185.971 620.403 186.511 620.541 186.912C620.683 187.313 620.93 187.603 621.282 187.78C621.633 187.954 622.074 188.041 622.603 188.041C622.94 188.041 623.251 187.995 623.535 187.903C623.819 187.807 624.073 187.665 624.297 187.477C624.52 187.285 624.709 187.047 624.861 186.763L626.012 187.104C625.817 187.516 625.541 187.878 625.186 188.19C624.835 188.499 624.423 188.741 623.95 188.915C623.482 189.085 622.969 189.17 622.411 189.17ZM631.064 189.17C630.294 189.17 629.662 188.989 629.168 188.627C628.678 188.265 628.337 187.766 628.145 187.13C627.953 186.495 627.925 185.768 628.06 184.952C628.195 184.121 628.468 183.387 628.88 182.752C629.292 182.113 629.805 181.614 630.42 181.255C631.034 180.893 631.711 180.712 632.449 180.712C633.025 180.712 633.525 180.818 633.951 181.031C634.377 181.244 634.706 181.543 634.937 181.926C635.168 182.31 635.276 182.757 635.262 183.268H634.005C633.969 182.896 633.809 182.565 633.525 182.278C633.245 181.987 632.829 181.841 632.279 181.841C631.789 181.841 631.338 181.969 630.926 182.224C630.514 182.477 630.168 182.833 629.887 183.295C629.607 183.753 629.417 184.291 629.317 184.909C629.211 185.541 629.219 186.092 629.344 186.56C629.468 187.029 629.694 187.393 630.02 187.652C630.347 187.912 630.759 188.041 631.256 188.041C631.583 188.041 631.888 187.984 632.172 187.871C632.456 187.757 632.708 187.594 632.929 187.381C633.149 187.168 633.323 186.912 633.451 186.614H634.708C634.551 187.097 634.301 187.532 633.957 187.919C633.612 188.302 633.195 188.608 632.705 188.835C632.215 189.059 631.668 189.17 631.064 189.17ZM639.443 189.17C638.673 189.17 638.04 188.989 637.547 188.627C637.057 188.265 636.716 187.766 636.524 187.13C636.332 186.495 636.304 185.768 636.439 184.952C636.574 184.121 636.847 183.387 637.259 182.752C637.671 182.113 638.184 181.614 638.799 181.255C639.413 180.893 640.089 180.712 640.828 180.712C641.403 180.712 641.904 180.818 642.33 181.031C642.756 181.244 643.085 181.543 643.316 181.926C643.547 182.31 643.655 182.757 643.641 183.268H642.384C642.348 182.896 642.188 182.565 641.904 182.278C641.624 181.987 641.208 181.841 640.658 181.841C640.168 181.841 639.717 181.969 639.305 182.224C638.893 182.477 638.547 182.833 638.266 183.295C637.985 183.753 637.795 184.291 637.696 184.909C637.589 185.541 637.598 186.092 637.723 186.56C637.847 187.029 638.072 187.393 638.399 187.652C638.726 187.912 639.138 188.041 639.635 188.041C639.962 188.041 640.267 187.984 640.551 187.871C640.835 187.757 641.087 187.594 641.308 187.381C641.528 187.168 641.702 186.912 641.83 186.614H643.087C642.93 187.097 642.68 187.532 642.336 187.919C641.991 188.302 641.574 188.608 641.084 188.835C640.594 189.059 640.047 189.17 639.443 189.17ZM646.906 189.192C646.387 189.192 645.933 189.094 645.542 188.899C645.152 188.7 644.862 188.414 644.674 188.041C644.486 187.665 644.434 187.21 644.52 186.678C644.601 186.209 644.759 185.829 644.994 185.538C645.228 185.243 645.512 185.012 645.846 184.845C646.183 184.675 646.545 184.549 646.933 184.467C647.323 184.382 647.712 184.316 648.099 184.27C648.603 184.206 649.013 184.156 649.33 184.121C649.646 184.085 649.884 184.027 650.043 183.945C650.203 183.863 650.301 183.723 650.336 183.524V183.482C650.422 182.96 650.352 182.553 650.129 182.262C649.905 181.967 649.505 181.82 648.93 181.82C648.333 181.82 647.835 181.951 647.433 182.214C647.032 182.477 646.735 182.757 646.544 183.055L645.436 182.629C645.727 182.132 646.075 181.745 646.48 181.468C646.885 181.187 647.309 180.992 647.753 180.882C648.197 180.768 648.625 180.712 649.037 180.712C649.299 180.712 649.596 180.744 649.926 180.808C650.256 180.868 650.565 180.994 650.853 181.186C651.144 181.377 651.363 181.667 651.508 182.054C651.657 182.441 651.679 182.96 651.572 183.609L650.677 189H649.42L649.612 187.892H649.548C649.434 188.07 649.26 188.26 649.026 188.462C648.795 188.664 648.502 188.837 648.147 188.979C647.795 189.121 647.382 189.192 646.906 189.192ZM647.268 188.062C647.765 188.062 648.2 187.965 648.573 187.77C648.95 187.574 649.251 187.322 649.479 187.013C649.71 186.704 649.853 186.379 649.91 186.038L650.102 184.888C650.038 184.952 649.912 185.01 649.724 185.064C649.536 185.113 649.322 185.158 649.085 185.197C648.85 185.232 648.621 185.264 648.397 185.293C648.177 185.317 648 185.339 647.865 185.357C647.531 185.399 647.213 185.468 646.911 185.564C646.613 185.657 646.361 185.797 646.155 185.985C645.952 186.17 645.826 186.422 645.777 186.741C645.702 187.178 645.807 187.509 646.091 187.732C646.375 187.952 646.767 188.062 647.268 188.062ZM667.332 178.091L665.521 189H664.2L665.82 179.263H660.323L658.703 189H657.382L659.193 178.091H667.332ZM667.504 192.068L669.39 180.818H670.604L670.391 182.118H670.54C670.654 181.976 670.81 181.795 671.009 181.575C671.212 181.351 671.483 181.152 671.824 180.978C672.169 180.8 672.607 180.712 673.14 180.712C673.829 180.712 674.406 180.884 674.871 181.228C675.336 181.573 675.665 182.061 675.857 182.693C676.048 183.325 676.073 184.071 675.931 184.93C675.789 185.797 675.517 186.548 675.116 187.184C674.715 187.816 674.225 188.306 673.646 188.654C673.067 188.998 672.437 189.17 671.755 189.17C671.229 189.17 670.823 189.083 670.535 188.909C670.248 188.732 670.038 188.531 669.907 188.308C669.775 188.08 669.674 187.892 669.603 187.743H669.496L668.772 192.068H667.504ZM669.944 184.909C669.844 185.527 669.844 186.072 669.944 186.544C670.047 187.013 670.251 187.381 670.556 187.647C670.865 187.91 671.272 188.041 671.776 188.041C672.302 188.041 672.762 187.903 673.156 187.626C673.554 187.345 673.88 186.969 674.136 186.496C674.395 186.021 674.575 185.491 674.674 184.909C674.766 184.334 674.763 183.815 674.663 183.354C674.564 182.888 674.362 182.521 674.056 182.251C673.751 181.978 673.332 181.841 672.799 181.841C672.288 181.841 671.835 181.971 671.441 182.23C671.05 182.485 670.727 182.844 670.471 183.306C670.219 183.764 670.043 184.298 669.944 184.909ZM680.548 189.17C679.795 189.17 679.165 188.991 678.657 188.632C678.149 188.274 677.791 187.771 677.581 187.125C677.375 186.479 677.341 185.726 677.48 184.866C677.615 184.028 677.883 183.299 678.284 182.677C678.689 182.052 679.191 181.569 679.792 181.228C680.395 180.884 681.059 180.712 681.784 180.712C682.537 180.712 683.165 180.893 683.669 181.255C684.177 181.614 684.536 182.118 684.745 182.768C684.955 183.414 684.991 184.17 684.852 185.037C684.717 185.868 684.445 186.594 684.037 187.216C683.632 187.833 683.13 188.315 682.53 188.659C681.933 189 681.272 189.17 680.548 189.17ZM680.569 188.041C681.145 188.041 681.644 187.894 682.066 187.599C682.492 187.304 682.837 186.915 683.1 186.433C683.366 185.95 683.545 185.428 683.638 184.866C683.723 184.334 683.719 183.838 683.627 183.38C683.535 182.919 683.337 182.548 683.036 182.267C682.734 181.983 682.309 181.841 681.763 181.841C681.187 181.841 680.685 181.99 680.255 182.288C679.829 182.587 679.484 182.979 679.222 183.466C678.959 183.952 678.783 184.476 678.694 185.037C678.609 185.57 678.611 186.065 678.7 186.523C678.792 186.978 678.989 187.345 679.291 187.626C679.596 187.903 680.022 188.041 680.569 188.041ZM687.698 187.146L692.684 180.818H694.132L692.769 189H691.512L692.556 182.672L687.591 189H686.121L687.485 180.818H688.742L687.698 187.146ZM694.911 186.912H696.254C696.218 187.281 696.337 187.562 696.611 187.754C696.888 187.945 697.273 188.041 697.767 188.041C698.271 188.041 698.718 187.938 699.109 187.732C699.503 187.523 699.737 187.185 699.812 186.72C699.858 186.447 699.832 186.209 699.732 186.006C699.633 185.8 699.469 185.641 699.242 185.527C699.018 185.413 698.74 185.357 698.406 185.357H697L697.191 184.227H698.598C699.095 184.227 699.482 184.114 699.759 183.886C700.036 183.659 700.203 183.375 700.259 183.034C700.32 182.668 700.238 182.375 700.014 182.155C699.791 181.931 699.439 181.82 698.96 181.82C698.484 181.82 698.068 181.928 697.713 182.145C697.358 182.358 697.142 182.633 697.063 182.97H695.742C695.831 182.53 696.032 182.141 696.344 181.804C696.657 181.463 697.049 181.196 697.522 181.005C697.997 180.809 698.519 180.712 699.088 180.712C699.663 180.712 700.146 180.813 700.536 181.015C700.927 181.214 701.209 181.486 701.383 181.83C701.561 182.171 701.612 182.558 701.538 182.991C701.463 183.453 701.272 183.826 700.963 184.11C700.657 184.394 700.302 184.597 699.897 184.717L699.876 184.803C700.181 184.824 700.434 184.923 700.632 185.101C700.835 185.275 700.975 185.504 701.053 185.788C701.135 186.069 701.147 186.379 701.09 186.72C701.009 187.217 700.805 187.651 700.478 188.02C700.151 188.386 699.739 188.67 699.242 188.872C698.745 189.071 698.196 189.17 697.596 189.17C697.017 189.17 696.515 189.076 696.089 188.888C695.666 188.696 695.348 188.432 695.135 188.094C694.926 187.754 694.851 187.359 694.911 186.912ZM702.483 189L703.847 180.818H707.192C708.066 180.818 708.73 181.019 709.184 181.42C709.639 181.818 709.813 182.342 709.706 182.991C709.621 183.492 709.408 183.877 709.067 184.147C708.726 184.417 708.321 184.6 707.853 184.696C708.144 184.739 708.417 184.845 708.673 185.016C708.932 185.186 709.129 185.42 709.264 185.719C709.403 186.017 709.437 186.379 709.366 186.805C709.294 187.224 709.124 187.599 708.854 187.929C708.588 188.26 708.24 188.521 707.81 188.712C707.384 188.904 706.894 189 706.34 189H702.483ZM703.868 187.849H706.532C706.968 187.849 707.327 187.746 707.608 187.54C707.888 187.331 708.055 187.05 708.108 186.699C708.183 186.273 708.116 185.939 707.906 185.697C707.7 185.456 707.384 185.335 706.958 185.335H704.294L703.868 187.849ZM704.465 184.249H706.617C706.951 184.249 707.247 184.202 707.506 184.11C707.766 184.014 707.975 183.879 708.135 183.705C708.295 183.528 708.392 183.318 708.428 183.077C708.492 182.736 708.394 182.466 708.135 182.267C707.879 182.068 707.501 181.969 707 181.969H704.848L704.465 184.249ZM714.283 189.17C713.531 189.17 712.9 188.991 712.392 188.632C711.885 188.274 711.526 187.771 711.316 187.125C711.11 186.479 711.077 185.726 711.215 184.866C711.35 184.028 711.618 183.299 712.02 182.677C712.424 182.052 712.927 181.569 713.527 181.228C714.131 180.884 714.795 180.712 715.519 180.712C716.272 180.712 716.901 180.893 717.405 181.255C717.913 181.614 718.271 182.118 718.481 182.768C718.69 183.414 718.726 184.17 718.587 185.037C718.452 185.868 718.181 186.594 717.772 187.216C717.368 187.833 716.865 188.315 716.265 188.659C715.668 189 715.008 189.17 714.283 189.17ZM714.305 188.041C714.88 188.041 715.379 187.894 715.801 187.599C716.228 187.304 716.572 186.915 716.835 186.433C717.101 185.95 717.281 185.428 717.373 184.866C717.458 184.334 717.455 183.838 717.362 183.38C717.27 182.919 717.073 182.548 716.771 182.267C716.469 181.983 716.045 181.841 715.498 181.841C714.923 181.841 714.42 181.99 713.99 182.288C713.564 182.587 713.22 182.979 712.957 183.466C712.694 183.952 712.518 184.476 712.43 185.037C712.344 185.57 712.346 186.065 712.435 186.523C712.527 186.978 712.724 187.345 713.026 187.626C713.332 187.903 713.758 188.041 714.305 188.041ZM718.599 191.344L719.196 187.828H719.878C720.07 187.654 720.242 187.466 720.394 187.263C720.551 187.061 720.696 186.821 720.831 186.544C720.966 186.264 721.099 185.923 721.231 185.522C721.362 185.117 721.501 184.629 721.646 184.057L722.456 180.818H727.655L726.504 187.828H727.761L727.165 191.344H725.908L726.291 189H720.24L719.856 191.344H718.599ZM721.305 187.828H725.247L726.206 181.99H723.436L722.882 184.057C722.651 184.913 722.417 185.66 722.179 186.299C721.945 186.939 721.653 187.448 721.305 187.828ZM732.534 189.17C731.763 189.17 731.131 188.989 730.638 188.627C730.148 188.265 729.807 187.766 729.615 187.13C729.423 186.495 729.395 185.768 729.53 184.952C729.665 184.121 729.938 183.387 730.35 182.752C730.762 182.113 731.275 181.614 731.889 181.255C732.504 180.893 733.18 180.712 733.919 180.712C734.494 180.712 734.995 180.818 735.421 181.031C735.847 181.244 736.176 181.543 736.407 181.926C736.637 182.31 736.746 182.757 736.731 183.268H735.474C735.439 182.896 735.279 182.565 734.995 182.278C734.714 181.987 734.299 181.841 733.748 181.841C733.258 181.841 732.807 181.969 732.396 182.224C731.984 182.477 731.637 182.833 731.357 183.295C731.076 183.753 730.886 184.291 730.787 184.909C730.68 185.541 730.689 186.092 730.813 186.56C730.938 187.029 731.163 187.393 731.49 187.652C731.817 187.912 732.229 188.041 732.726 188.041C733.052 188.041 733.358 187.984 733.642 187.871C733.926 187.757 734.178 187.594 734.398 187.381C734.619 187.168 734.793 186.912 734.92 186.614H736.177C736.021 187.097 735.771 187.532 735.426 187.919C735.082 188.302 734.665 188.608 734.175 188.835C733.685 189.059 733.138 189.17 732.534 189.17ZM738.138 181.99L738.329 180.818H744.977L744.785 181.99H742.101L740.95 189H739.693L740.844 181.99H738.138ZM745.447 189L746.811 180.818H750.156C751.03 180.818 751.694 181.019 752.148 181.42C752.603 181.818 752.777 182.342 752.67 182.991C752.585 183.492 752.372 183.877 752.031 184.147C751.69 184.417 751.285 184.6 750.817 184.696C751.108 184.739 751.381 184.845 751.637 185.016C751.896 185.186 752.093 185.42 752.228 185.719C752.367 186.017 752.4 186.379 752.329 186.805C752.258 187.224 752.088 187.599 751.818 187.929C751.552 188.26 751.204 188.521 750.774 188.712C750.348 188.904 749.858 189 749.304 189H745.447ZM746.832 187.849H749.496C749.932 187.849 750.291 187.746 750.572 187.54C750.852 187.331 751.019 187.05 751.072 186.699C751.147 186.273 751.079 185.939 750.87 185.697C750.664 185.456 750.348 185.335 749.922 185.335H747.258L746.832 187.849ZM747.429 184.249H749.581C749.915 184.249 750.211 184.202 750.47 184.11C750.73 184.014 750.939 183.879 751.099 183.705C751.259 183.528 751.356 183.318 751.392 183.077C751.456 182.736 751.358 182.466 751.099 182.267C750.843 182.068 750.465 181.969 749.964 181.969H747.812L747.429 184.249ZM756.256 189.192C755.738 189.192 755.283 189.094 754.893 188.899C754.502 188.7 754.213 188.414 754.025 188.041C753.836 187.665 753.785 187.21 753.87 186.678C753.952 186.209 754.11 185.829 754.344 185.538C754.579 185.243 754.863 185.012 755.196 184.845C755.534 184.675 755.896 184.549 756.283 184.467C756.674 184.382 757.063 184.316 757.45 184.27C757.954 184.206 758.364 184.156 758.68 184.121C758.996 184.085 759.234 184.027 759.394 183.945C759.554 183.863 759.651 183.723 759.687 183.524V183.482C759.772 182.96 759.703 182.553 759.479 182.262C759.255 181.967 758.856 181.82 758.281 181.82C757.684 181.82 757.185 181.951 756.784 182.214C756.383 182.477 756.086 182.757 755.894 183.055L754.786 182.629C755.078 182.132 755.426 181.745 755.83 181.468C756.235 181.187 756.66 180.992 757.103 180.882C757.547 180.768 757.975 180.712 758.387 180.712C758.65 180.712 758.946 180.744 759.277 180.808C759.607 180.868 759.916 180.994 760.204 181.186C760.495 181.377 760.713 181.667 760.859 182.054C761.008 182.441 761.029 182.96 760.923 183.609L760.028 189H758.771L758.962 187.892H758.899C758.785 188.07 758.611 188.26 758.377 188.462C758.146 188.664 757.853 188.837 757.498 188.979C757.146 189.121 756.732 189.192 756.256 189.192ZM756.619 188.062C757.116 188.062 757.551 187.965 757.924 187.77C758.3 187.574 758.602 187.322 758.829 187.013C759.06 186.704 759.204 186.379 759.261 186.038L759.453 184.888C759.389 184.952 759.263 185.01 759.074 185.064C758.886 185.113 758.673 185.158 758.435 185.197C758.201 185.232 757.972 185.264 757.748 185.293C757.528 185.317 757.35 185.339 757.215 185.357C756.881 185.399 756.564 185.468 756.262 185.564C755.964 185.657 755.711 185.797 755.505 185.985C755.303 186.17 755.177 186.422 755.127 186.741C755.053 187.178 755.157 187.509 755.441 187.732C755.726 187.952 756.118 188.062 756.619 188.062Z" fill="#2E7E7C"/>
<path d="M369.626 66.1377C344.161 64.8904 319.004 72.1407 298.108 86.7489C277.213 101.357 261.764 122.495 254.191 146.84L261.814 149.211C268.862 126.557 283.238 106.886 302.683 93.2921C322.127 79.6981 345.538 72.9511 369.236 74.1118L369.626 66.1377Z" fill="#2E7E7C"/>
<path d="M249.577 169.499C246.939 195.736 253.399 222.082 267.873 244.123C282.346 266.165 303.955 282.563 329.079 290.57L331.504 282.963C308.124 275.512 288.015 260.252 274.546 239.741C261.077 219.23 255.066 194.713 257.52 170.297L249.577 169.499Z" fill="#2E7E7C"/>
<path d="M356.571 295.76C372.386 296.783 388.241 294.528 403.142 289.134C418.043 283.74 431.669 275.324 443.164 264.415C454.659 253.506 463.775 240.339 469.94 225.74C476.105 211.141 479.187 195.426 478.991 179.579L471.008 179.678C471.19 194.424 468.323 209.049 462.585 222.634C456.848 236.22 448.365 248.473 437.668 258.624C426.971 268.776 414.291 276.607 400.425 281.627C386.558 286.646 371.804 288.745 357.087 287.793L356.571 295.76Z" fill="#2E7E7C"/>
<path d="M346.627 292.15L327 295.845L333.614 277L346.627 292.15Z" fill="#2E7E7C"/>
<path d="M253.537 161.478L249.124 142L268.199 147.917L253.537 161.478Z" fill="#2E7E7C"/>
<path d="M453 181C453 230.153 413.153 270 364 270C314.847 270 275 230.153 275 181C275 131.847 314.847 92 364 92C413.153 92 453 131.847 453 181Z" fill="white"/>
<circle cx="271" cy="240" r="12.5" fill="#F4F7FB" stroke="#2E7E7C"/>
<path d="M266.365 245L266.536 244.041L270.776 240.099C271.273 239.638 271.687 239.235 272.017 238.89C272.351 238.546 272.61 238.223 272.795 237.921C272.983 237.619 273.105 237.301 273.162 236.967C273.226 236.584 273.192 236.252 273.061 235.971C272.93 235.691 272.722 235.474 272.438 235.321C272.154 235.169 271.813 235.092 271.415 235.092C270.996 235.092 270.614 235.179 270.27 235.353C269.925 235.524 269.64 235.765 269.412 236.078C269.185 236.387 269.036 236.747 268.965 237.159H267.708C267.814 236.52 268.058 235.959 268.438 235.476C268.821 234.993 269.292 234.616 269.849 234.347C270.41 234.077 271.01 233.942 271.65 233.942C272.289 233.942 272.83 234.077 273.274 234.347C273.718 234.616 274.039 234.98 274.238 235.439C274.437 235.897 274.49 236.406 274.398 236.967C274.327 237.372 274.187 237.765 273.977 238.145C273.768 238.525 273.446 238.949 273.013 239.418C272.583 239.883 272.001 240.451 271.266 241.122L268.39 243.743L268.368 243.828H273.439L273.248 245H266.365Z" fill="#2E7E7C"/>
<path d="M296.945 217.091H298.266L296.966 224.932C296.852 225.628 296.636 226.216 296.316 226.695C296 227.171 295.595 227.533 295.102 227.782C294.612 228.027 294.047 228.149 293.408 228.149C292.797 228.149 292.271 228.039 291.831 227.819C291.391 227.599 291.068 227.286 290.862 226.881C290.656 226.477 290.595 225.997 290.681 225.443H291.938C291.895 225.763 291.929 226.038 292.039 226.269C292.149 226.496 292.323 226.672 292.561 226.796C292.802 226.917 293.092 226.977 293.429 226.977C293.82 226.977 294.168 226.896 294.473 226.732C294.782 226.565 295.038 226.324 295.24 226.008C295.446 225.688 295.588 225.301 295.666 224.847L296.945 217.091ZM309.116 220.5H307.817C307.802 220.12 307.724 219.786 307.582 219.499C307.44 219.211 307.248 218.969 307.007 218.774C306.769 218.575 306.496 218.426 306.187 218.327C305.878 218.227 305.547 218.178 305.196 218.178C304.521 218.178 303.882 218.35 303.278 218.694C302.675 219.035 302.158 219.538 301.728 220.202C301.298 220.862 301.006 221.672 300.849 222.631C300.693 223.561 300.716 224.344 300.919 224.98C301.121 225.615 301.456 226.097 301.925 226.423C302.394 226.75 302.952 226.913 303.598 226.913C303.971 226.913 304.336 226.864 304.695 226.764C305.057 226.665 305.395 226.517 305.707 226.322C306.023 226.123 306.304 225.88 306.549 225.592C306.797 225.301 306.993 224.967 307.135 224.591H308.456C308.26 225.148 307.996 225.647 307.662 226.088C307.332 226.528 306.95 226.903 306.517 227.212C306.084 227.517 305.617 227.75 305.116 227.909C304.615 228.069 304.095 228.149 303.555 228.149C302.611 228.149 301.806 227.918 301.142 227.457C300.482 226.991 300.009 226.335 299.725 225.486C299.445 224.634 299.4 223.625 299.592 222.46C299.784 221.324 300.151 220.344 300.695 219.52C301.238 218.692 301.904 218.057 302.692 217.613C303.481 217.165 304.336 216.942 305.26 216.942C305.814 216.942 306.323 217.022 306.789 217.181C307.254 217.341 307.659 217.576 308.003 217.885C308.347 218.19 308.616 218.563 308.807 219.003C309.003 219.44 309.106 219.939 309.116 220.5ZM311.038 218.263L311.23 217.091H319.411L319.22 218.263H315.789L314.17 228H312.849L314.468 218.263H311.038Z" fill="#2E7E7C"/>
<path d="M196.5 213L175.282 176.25L217.718 176.25L196.5 213Z" fill="#F4F7FB"/>
<path d="M399.283 168.631C399.091 169.767 398.723 170.749 398.18 171.576C397.637 172.4 396.973 173.036 396.188 173.483C395.403 173.927 394.552 174.149 393.636 174.149C392.692 174.149 391.887 173.918 391.223 173.457C390.563 172.991 390.09 172.335 389.806 171.486C389.526 170.634 389.481 169.625 389.673 168.46C389.865 167.324 390.233 166.344 390.776 165.52C391.319 164.692 391.985 164.057 392.773 163.613C393.562 163.165 394.418 162.942 395.341 162.942C396.278 162.942 397.076 163.174 397.733 163.64C398.393 164.101 398.864 164.758 399.144 165.61C399.428 166.459 399.474 167.466 399.283 168.631ZM398.025 168.46C398.182 167.53 398.159 166.747 397.956 166.111C397.754 165.475 397.418 164.994 396.949 164.668C396.481 164.341 395.923 164.178 395.277 164.178C394.602 164.178 393.963 164.35 393.359 164.694C392.756 165.035 392.239 165.538 391.809 166.202C391.38 166.862 391.087 167.672 390.93 168.631C390.774 169.561 390.797 170.344 391 170.98C391.202 171.615 391.538 172.097 392.006 172.423C392.475 172.75 393.033 172.913 393.679 172.913C394.354 172.913 394.993 172.743 395.597 172.402C396.2 172.058 396.717 171.555 397.147 170.895C397.576 170.23 397.869 169.419 398.025 168.46ZM401.142 166.99L401.333 165.818H407.981L407.789 166.99H405.105L403.954 174H402.697L403.848 166.99H401.142ZM414.865 165.818L414.673 166.99H410.88L409.708 174H408.451L409.815 165.818H414.865ZM414.825 177.068L416.71 165.818H417.925L417.712 167.118H417.861C417.974 166.976 418.131 166.795 418.33 166.575C418.532 166.351 418.804 166.152 419.145 165.978C419.489 165.8 419.928 165.712 420.46 165.712C421.149 165.712 421.726 165.884 422.191 166.228C422.657 166.573 422.985 167.061 423.177 167.693C423.369 168.325 423.393 169.071 423.251 169.93C423.109 170.797 422.838 171.548 422.436 172.184C422.035 172.816 421.545 173.306 420.966 173.654C420.387 173.998 419.757 174.17 419.075 174.17C418.55 174.17 418.143 174.083 417.855 173.909C417.568 173.732 417.358 173.531 417.227 173.308C417.096 173.08 416.994 172.892 416.923 172.743H416.817L416.092 177.068H414.825ZM417.264 169.909C417.165 170.527 417.165 171.072 417.264 171.544C417.367 172.013 417.571 172.381 417.877 172.647C418.186 172.91 418.592 173.041 419.097 173.041C419.622 173.041 420.082 172.903 420.476 172.626C420.874 172.345 421.201 171.969 421.456 171.496C421.716 171.021 421.895 170.491 421.994 169.909C422.087 169.334 422.083 168.815 421.984 168.354C421.884 167.888 421.682 167.521 421.376 167.251C421.071 166.978 420.652 166.841 420.119 166.841C419.608 166.841 419.155 166.971 418.761 167.23C418.37 167.485 418.047 167.844 417.792 168.306C417.539 168.764 417.364 169.298 417.264 169.909ZM424.507 177.068C424.294 177.068 424.106 177.05 423.943 177.015C423.783 176.983 423.673 176.951 423.612 176.919L424.124 175.811C424.415 175.889 424.674 175.912 424.901 175.88C425.132 175.852 425.351 175.74 425.557 175.545C425.766 175.353 425.984 175.051 426.212 174.639L426.563 174L424.923 165.818H426.233L427.405 172.359H427.49L430.835 165.818H432.252L427.234 175.183C427 175.619 426.743 175.976 426.462 176.253C426.182 176.53 425.878 176.734 425.551 176.866C425.225 177.001 424.877 177.068 424.507 177.068ZM432.388 171.912H433.73C433.695 172.281 433.814 172.562 434.087 172.754C434.364 172.945 434.75 173.041 435.243 173.041C435.747 173.041 436.195 172.938 436.585 172.732C436.98 172.523 437.214 172.185 437.289 171.72C437.335 171.447 437.308 171.209 437.209 171.006C437.109 170.8 436.946 170.641 436.719 170.527C436.495 170.413 436.216 170.357 435.882 170.357H434.476L434.668 169.227H436.074C436.571 169.227 436.958 169.114 437.235 168.886C437.512 168.659 437.679 168.375 437.736 168.034C437.796 167.668 437.715 167.375 437.491 167.155C437.267 166.931 436.916 166.82 436.436 166.82C435.96 166.82 435.545 166.928 435.19 167.145C434.835 167.358 434.618 167.633 434.54 167.97H433.219C433.308 167.53 433.508 167.141 433.821 166.804C434.133 166.463 434.526 166.196 434.998 166.005C435.474 165.809 435.996 165.712 436.564 165.712C437.139 165.712 437.622 165.813 438.013 166.015C438.404 166.214 438.686 166.486 438.86 166.83C439.038 167.171 439.089 167.558 439.014 167.991C438.94 168.453 438.748 168.826 438.439 169.11C438.134 169.394 437.779 169.597 437.374 169.717L437.353 169.803C437.658 169.824 437.91 169.923 438.109 170.101C438.311 170.275 438.452 170.504 438.53 170.788C438.611 171.069 438.624 171.379 438.567 171.72C438.485 172.217 438.281 172.651 437.954 173.02C437.628 173.386 437.216 173.67 436.719 173.872C436.222 174.071 435.673 174.17 435.073 174.17C434.494 174.17 433.991 174.076 433.565 173.888C433.143 173.696 432.825 173.432 432.612 173.094C432.402 172.754 432.328 172.359 432.388 171.912ZM439.96 174L441.324 165.818H442.581L441.984 169.376H442.815L446.352 165.818H447.971L444.008 169.76L446.65 174H445.031L442.922 170.548H441.792L441.217 174H439.96ZM450.403 174.192C449.884 174.192 449.43 174.094 449.039 173.899C448.649 173.7 448.359 173.414 448.171 173.041C447.983 172.665 447.931 172.21 448.017 171.678C448.098 171.209 448.256 170.829 448.491 170.538C448.725 170.243 449.009 170.012 449.343 169.845C449.68 169.675 450.043 169.549 450.43 169.467C450.82 169.382 451.209 169.316 451.596 169.27C452.1 169.206 452.511 169.156 452.827 169.121C453.143 169.085 453.381 169.027 453.54 168.945C453.7 168.863 453.798 168.723 453.833 168.524V168.482C453.919 167.96 453.849 167.553 453.626 167.262C453.402 166.967 453.002 166.82 452.427 166.82C451.831 166.82 451.332 166.951 450.93 167.214C450.529 167.477 450.233 167.757 450.041 168.055L448.933 167.629C449.224 167.132 449.572 166.745 449.977 166.468C450.382 166.187 450.806 165.992 451.25 165.882C451.694 165.768 452.122 165.712 452.534 165.712C452.796 165.712 453.093 165.744 453.423 165.808C453.753 165.868 454.062 165.994 454.35 166.186C454.641 166.377 454.86 166.667 455.005 167.054C455.154 167.441 455.176 167.96 455.069 168.609L454.174 174H452.917L453.109 172.892H453.045C452.931 173.07 452.757 173.26 452.523 173.462C452.292 173.664 451.999 173.837 451.644 173.979C451.293 174.121 450.879 174.192 450.403 174.192ZM450.765 173.062C451.262 173.062 451.697 172.965 452.07 172.77C452.447 172.574 452.748 172.322 452.976 172.013C453.207 171.704 453.35 171.379 453.407 171.038L453.599 169.888C453.535 169.952 453.409 170.01 453.221 170.064C453.033 170.113 452.82 170.158 452.582 170.197C452.347 170.232 452.118 170.264 451.894 170.293C451.674 170.317 451.497 170.339 451.362 170.357C451.028 170.399 450.71 170.468 450.408 170.564C450.11 170.657 449.858 170.797 449.652 170.985C449.449 171.17 449.323 171.422 449.274 171.741C449.199 172.178 449.304 172.509 449.588 172.732C449.872 172.952 450.264 173.062 450.765 173.062Z" fill="#2E7E7C"/>
<circle cx="475" cy="169" r="12.5" fill="#F4F7FB" stroke="#2E7E7C"/>
<path d="M473.625 174.149C472.915 174.149 472.299 174.03 471.777 173.792C471.259 173.551 470.871 173.215 470.616 172.786C470.36 172.352 470.27 171.848 470.344 171.273H471.665C471.633 171.621 471.694 171.923 471.846 172.178C472.002 172.434 472.233 172.631 472.539 172.77C472.848 172.908 473.217 172.977 473.647 172.977C474.105 172.977 474.534 172.897 474.936 172.738C475.341 172.578 475.68 172.347 475.953 172.045C476.227 171.74 476.395 171.376 476.459 170.953C476.516 170.573 476.473 170.236 476.331 169.941C476.189 169.646 475.944 169.415 475.596 169.249C475.252 169.078 474.801 168.993 474.243 168.993H473.348L473.54 167.821H474.371C474.804 167.821 475.202 167.739 475.564 167.576C475.926 167.413 476.228 167.184 476.47 166.889C476.711 166.591 476.864 166.241 476.928 165.839C476.988 165.488 476.963 165.183 476.853 164.923C476.747 164.661 476.562 164.456 476.299 164.311C476.04 164.165 475.71 164.092 475.309 164.092C474.925 164.092 474.549 164.162 474.179 164.3C473.814 164.435 473.501 164.632 473.242 164.891C472.983 165.147 472.819 165.456 472.752 165.818H471.473C471.583 165.25 471.83 164.751 472.214 164.321C472.597 163.888 473.064 163.551 473.615 163.309C474.169 163.064 474.755 162.942 475.373 162.942C476.058 162.942 476.623 163.084 477.066 163.368C477.514 163.648 477.833 164.018 478.025 164.476C478.217 164.93 478.27 165.42 478.185 165.946C478.089 166.546 477.842 167.054 477.445 167.469C477.047 167.885 476.562 168.18 475.99 168.354V168.418C476.662 168.535 477.148 168.844 477.45 169.344C477.755 169.842 477.851 170.435 477.738 171.124C477.638 171.741 477.398 172.278 477.018 172.732C476.638 173.183 476.157 173.533 475.575 173.782C474.993 174.027 474.343 174.149 473.625 174.149Z" fill="#2E7E7C"/>
<path d="M351.133 94.5H349.833C349.819 94.12 349.741 93.7862 349.599 93.4986C349.457 93.2109 349.265 92.9695 349.024 92.7741C348.786 92.5753 348.512 92.4261 348.203 92.3267C347.894 92.2273 347.564 92.1776 347.212 92.1776C346.538 92.1776 345.899 92.3498 345.295 92.6942C344.691 93.0352 344.174 93.5376 343.745 94.2017C343.315 94.8622 343.022 95.6719 342.866 96.6307C342.71 97.5611 342.733 98.3441 342.935 98.9798C343.138 99.6154 343.473 100.097 343.942 100.423C344.411 100.75 344.968 100.913 345.614 100.913C345.987 100.913 346.353 100.864 346.712 100.764C347.074 100.665 347.411 100.517 347.724 100.322C348.04 100.123 348.32 99.88 348.565 99.5923C348.814 99.3011 349.009 98.9673 349.151 98.5909H350.472C350.277 99.1484 350.013 99.6474 349.679 100.088C349.348 100.528 348.967 100.903 348.533 101.212C348.1 101.517 347.633 101.75 347.133 101.909C346.632 102.069 346.112 102.149 345.572 102.149C344.627 102.149 343.823 101.918 343.159 101.457C342.498 100.991 342.026 100.335 341.742 99.4858C341.461 98.6335 341.417 97.625 341.609 96.4602C341.801 95.3239 342.168 94.3437 342.711 93.5199C343.255 92.6925 343.921 92.0568 344.709 91.6129C345.497 91.1655 346.353 90.9418 347.276 90.9418C347.83 90.9418 348.34 91.0217 348.805 91.1815C349.27 91.3413 349.675 91.5756 350.02 91.8846C350.364 92.19 350.632 92.5629 350.824 93.0032C351.019 93.44 351.122 93.9389 351.133 94.5ZM352.564 94.9901L352.756 93.8182H359.404L359.212 94.9901H356.528L355.377 102H354.12L355.27 94.9901H352.564ZM361.836 102.192C361.317 102.192 360.863 102.094 360.472 101.899C360.081 101.7 359.792 101.414 359.604 101.041C359.415 100.665 359.364 100.21 359.449 99.6776C359.531 99.2088 359.689 98.8288 359.923 98.5376C360.158 98.2429 360.442 98.0121 360.776 97.8452C361.113 97.6747 361.475 97.5487 361.862 97.467C362.253 97.3817 362.642 97.3161 363.029 97.2699C363.533 97.206 363.943 97.1562 364.259 97.1207C364.575 97.0852 364.813 97.0266 364.973 96.945C365.133 96.8633 365.23 96.723 365.266 96.5241V96.4815C365.351 95.9595 365.282 95.5529 365.058 95.2617C364.835 94.967 364.435 94.8196 363.86 94.8196C363.263 94.8196 362.764 94.951 362.363 95.2138C361.962 95.4766 361.665 95.7571 361.473 96.0554L360.365 95.6293C360.657 95.1321 361.005 94.745 361.409 94.468C361.814 94.1875 362.239 93.9922 362.683 93.8821C363.126 93.7685 363.554 93.7116 363.966 93.7116C364.229 93.7116 364.526 93.7436 364.856 93.8075C365.186 93.8679 365.495 93.994 365.783 94.1857C366.074 94.3775 366.292 94.6669 366.438 95.054C366.587 95.4411 366.608 95.9595 366.502 96.6094L365.607 102H364.35L364.542 100.892H364.478C364.364 101.07 364.19 101.26 363.956 101.462C363.725 101.664 363.432 101.837 363.077 101.979C362.725 102.121 362.311 102.192 361.836 102.192ZM362.198 101.062C362.695 101.062 363.13 100.965 363.503 100.77C363.879 100.574 364.181 100.322 364.408 100.013C364.639 99.7042 364.783 99.3793 364.84 99.0384L365.032 97.8878C364.968 97.9517 364.842 98.0103 364.653 98.0636C364.465 98.1133 364.252 98.1577 364.014 98.1967C363.78 98.2322 363.551 98.2642 363.327 98.2926C363.107 98.3175 362.929 98.3388 362.794 98.3565C362.461 98.3991 362.143 98.4684 361.841 98.5643C361.543 98.6566 361.29 98.7969 361.085 98.9851C360.882 99.1697 360.756 99.4219 360.706 99.7415C360.632 100.178 360.737 100.509 361.021 100.732C361.305 100.952 361.697 101.062 362.198 101.062ZM367.39 105.068L369.276 93.8182H370.49L370.277 95.1179H370.426C370.54 94.9759 370.696 94.7947 370.895 94.5746C371.097 94.3509 371.369 94.152 371.71 93.978C372.054 93.8004 372.493 93.7116 373.026 93.7116C373.715 93.7116 374.292 93.8839 374.757 94.2283C375.222 94.5728 375.551 95.0611 375.742 95.6932C375.934 96.3253 375.959 97.071 375.817 97.9304C375.675 98.7969 375.403 99.5479 375.002 100.184C374.601 100.816 374.111 101.306 373.532 101.654C372.953 101.998 372.323 102.17 371.641 102.17C371.115 102.17 370.709 102.083 370.421 101.909C370.133 101.732 369.924 101.531 369.792 101.308C369.661 101.08 369.56 100.892 369.489 100.743H369.382L368.658 105.068H367.39ZM369.83 97.9091C369.73 98.527 369.73 99.0721 369.83 99.5444C369.933 100.013 370.137 100.381 370.442 100.647C370.751 100.91 371.158 101.041 371.662 101.041C372.188 101.041 372.647 100.903 373.042 100.626C373.439 100.345 373.766 99.9687 374.022 99.4964C374.281 99.0206 374.46 98.4915 374.56 97.9091C374.652 97.3338 374.649 96.8153 374.549 96.3537C374.45 95.8885 374.247 95.521 373.942 95.2511C373.636 94.9776 373.217 94.8409 372.685 94.8409C372.173 94.8409 371.721 94.9705 371.326 95.2298C370.936 95.4854 370.613 95.8441 370.357 96.3058C370.105 96.7638 369.929 97.2983 369.83 97.9091ZM377.159 94.9901L377.351 93.8182H383.999L383.807 94.9901H381.122L379.972 102H378.715L379.865 94.9901H377.159Z" fill="#2E7E7C"/>
<circle cx="363" cy="70" r="12.5" fill="#F4F7FB" stroke="#2E7E7C"/>
<path d="M365.121 64.0909L363.31 75H361.989L363.566 65.4759H363.502L360.54 67.2443L360.775 65.902L363.8 64.0909H365.121Z" fill="#2E7E7C"/>
<path d="M83.5044 63L85.3155 52.0909H89.1294C89.8894 52.0909 90.4949 52.2223 90.9458 52.4851C91.3968 52.7443 91.7058 53.0941 91.8727 53.5344C92.0396 53.9712 92.0769 54.456 91.9846 54.9886C91.9064 55.4574 91.7591 55.8445 91.5424 56.1499C91.3294 56.4553 91.0737 56.6967 90.7754 56.8743C90.4806 57.0518 90.1735 57.1832 89.8539 57.2685L89.8326 57.375C90.1593 57.3963 90.4735 57.5135 90.7754 57.7266C91.0772 57.9396 91.3098 58.245 91.4732 58.6428C91.6365 59.0405 91.6721 59.527 91.5797 60.1023C91.4874 60.6491 91.2797 61.141 90.9565 61.5778C90.6333 62.0146 90.1824 62.3608 89.6035 62.6165C89.0247 62.8722 88.3056 63 87.4462 63H83.5044ZM85.0172 61.8281H87.638C88.5009 61.8281 89.1419 61.6612 89.5609 61.3274C89.9835 60.9901 90.2374 60.5817 90.3226 60.1023C90.3794 59.733 90.3386 59.392 90.2001 59.0795C90.0652 58.7635 89.8397 58.5114 89.5236 58.3232C89.2111 58.1314 88.8169 58.0355 88.3411 58.0355H85.6564L85.0172 61.8281ZM85.8482 56.8849H88.2985C88.6962 56.8849 89.0691 56.8068 89.4171 56.6506C89.7651 56.4943 90.0563 56.2741 90.2907 55.9901C90.525 55.706 90.6706 55.3722 90.7275 54.9886C90.8127 54.5092 90.7168 54.1026 90.4398 53.7688C90.1628 53.4315 89.6621 53.2628 88.9377 53.2628H86.4448L85.8482 56.8849ZM95.0501 57.7798H97.3938C98.3526 57.7798 99.0433 58.0231 99.4659 58.5096C99.892 58.9961 100.047 59.6122 99.9293 60.358C99.8441 60.848 99.6541 61.2937 99.3594 61.695C99.0646 62.0927 98.6776 62.4105 98.1982 62.6484C97.7188 62.8828 97.1594 63 96.5202 63H93.0898L94.4535 54.8182H95.7106L94.5387 61.8281H96.712C97.2127 61.8281 97.6442 61.6985 98.0064 61.4393C98.3722 61.1765 98.587 60.8374 98.6509 60.4219C98.7255 59.9851 98.6243 59.6317 98.3473 59.3619C98.0739 59.0884 97.6921 58.9517 97.2021 58.9517H94.8583L95.0501 57.7798ZM100.782 63L102.145 54.8182H103.402L102.039 63H100.782ZM112.287 51.75L112.799 52.517C112.515 52.7585 112.2 52.9272 111.856 53.0231C111.515 53.119 111.137 53.1776 110.721 53.1989C110.309 53.2202 109.851 53.2415 109.347 53.2628C108.772 53.2841 108.275 53.4226 107.855 53.6783C107.44 53.9339 107.092 54.3033 106.811 54.7862C106.531 55.2692 106.304 55.8622 106.13 56.5653H106.236C106.598 56.054 107.044 55.6776 107.573 55.4361C108.102 55.1946 108.651 55.0739 109.219 55.0739C109.855 55.0739 110.402 55.223 110.86 55.5213C111.321 55.8196 111.653 56.2617 111.856 56.8477C112.058 57.4336 112.088 58.1562 111.946 59.0156C111.804 59.8714 111.531 60.6101 111.126 61.2315C110.721 61.853 110.217 62.3324 109.613 62.6697C109.013 63.0036 108.349 63.1705 107.621 63.1705C106.89 63.1705 106.277 62.9982 105.783 62.6538C105.29 62.3058 104.945 61.7908 104.75 61.109C104.555 60.4237 104.539 59.5767 104.702 58.5682L104.851 57.6946C105.157 55.8729 105.696 54.4915 106.471 53.5504C107.248 52.6094 108.264 52.1229 109.517 52.0909C109.958 52.0767 110.348 52.0732 110.689 52.0803C111.034 52.0874 111.336 52.0714 111.595 52.0323C111.858 51.9933 112.088 51.8991 112.287 51.75ZM107.792 62.0412C108.289 62.0412 108.736 61.9169 109.134 61.6683C109.535 61.4197 109.869 61.07 110.135 60.619C110.402 60.1644 110.586 59.63 110.689 59.0156C110.789 58.419 110.776 57.9112 110.652 57.4922C110.528 57.0732 110.304 56.7536 109.981 56.5334C109.658 56.3132 109.248 56.2031 108.75 56.2031C108.385 56.2031 108.045 56.2653 107.733 56.3896C107.42 56.5138 107.14 56.6967 106.891 56.9382C106.646 57.1797 106.439 57.4744 106.268 57.8224C106.101 58.1705 105.977 58.5682 105.895 59.0156C105.743 59.9318 105.835 60.6651 106.172 61.2156C106.513 61.766 107.053 62.0412 107.792 62.0412ZM116.579 63.1705C115.826 63.1705 115.196 62.9911 114.688 62.6325C114.18 62.2738 113.822 61.7713 113.612 61.125C113.406 60.4787 113.373 59.7259 113.511 58.8665C113.646 58.0284 113.914 57.2987 114.315 56.6772C114.72 56.0522 115.223 55.5692 115.823 55.2283C116.427 54.8839 117.091 54.7116 117.815 54.7116C118.568 54.7116 119.196 54.8928 119.701 55.255C120.209 55.6136 120.567 56.1179 120.777 56.7678C120.986 57.4141 121.022 58.1705 120.883 59.0369C120.748 59.8679 120.477 60.5941 120.068 61.2156C119.663 61.8335 119.161 62.3146 118.561 62.6591C117.964 63 117.304 63.1705 116.579 63.1705ZM116.601 62.0412C117.176 62.0412 117.675 61.8938 118.097 61.5991C118.524 61.3043 118.868 60.9155 119.131 60.4325C119.397 59.9496 119.576 59.4276 119.669 58.8665C119.754 58.3338 119.75 57.8384 119.658 57.3803C119.566 56.9187 119.369 56.5476 119.067 56.267C118.765 55.983 118.341 55.8409 117.794 55.8409C117.218 55.8409 116.716 55.9901 116.286 56.2884C115.86 56.5866 115.516 56.979 115.253 57.4656C114.99 57.9521 114.814 58.4759 114.726 59.0369C114.64 59.5696 114.642 60.065 114.731 60.5231C114.823 60.9776 115.02 61.3452 115.322 61.6257C115.628 61.9027 116.054 62.0412 116.601 62.0412ZM121.641 66.0682L123.527 54.8182H124.741L124.528 56.1179H124.677C124.791 55.9759 124.947 55.7947 125.146 55.5746C125.348 55.3509 125.62 55.152 125.961 54.978C126.305 54.8004 126.744 54.7116 127.277 54.7116C127.966 54.7116 128.543 54.8839 129.008 55.2283C129.473 55.5728 129.801 56.0611 129.993 56.6932C130.185 57.3253 130.21 58.071 130.068 58.9304C129.926 59.7969 129.654 60.5479 129.253 61.1836C128.852 61.8157 128.362 62.3058 127.783 62.6538C127.204 62.9982 126.574 63.1705 125.892 63.1705C125.366 63.1705 124.96 63.0835 124.672 62.9094C124.384 62.7319 124.175 62.5312 124.043 62.3075C123.912 62.0803 123.811 61.892 123.74 61.7429H123.633L122.909 66.0682H121.641ZM124.081 58.9091C123.981 59.527 123.981 60.0721 124.081 60.5444C124.184 61.0131 124.388 61.3807 124.693 61.647C125.002 61.9098 125.409 62.0412 125.913 62.0412C126.439 62.0412 126.898 61.9027 127.293 61.6257C127.69 61.3452 128.017 60.9687 128.273 60.4964C128.532 60.0206 128.711 59.4915 128.811 58.9091C128.903 58.3338 128.9 57.8153 128.8 57.3537C128.701 56.8885 128.498 56.521 128.193 56.2511C127.887 55.9776 127.468 55.8409 126.936 55.8409C126.424 55.8409 125.972 55.9705 125.577 56.2298C125.187 56.4854 124.864 56.8441 124.608 57.3058C124.356 57.7638 124.18 58.2983 124.081 58.9091ZM145.668 52.0909L143.857 63H142.536L144.156 53.2628H138.658L137.039 63H135.718L137.529 52.0909H145.668ZM148.738 63.1918C148.219 63.1918 147.765 63.0941 147.374 62.8988C146.984 62.6999 146.694 62.4141 146.506 62.0412C146.318 61.6648 146.266 61.2102 146.352 60.6776C146.433 60.2088 146.591 59.8288 146.826 59.5376C147.06 59.2429 147.344 59.0121 147.678 58.8452C148.015 58.6747 148.377 58.5487 148.765 58.467C149.155 58.3817 149.544 58.3161 149.931 58.2699C150.435 58.206 150.846 58.1562 151.162 58.1207C151.478 58.0852 151.716 58.0266 151.875 57.945C152.035 57.8633 152.133 57.723 152.168 57.5241V57.4815C152.254 56.9595 152.184 56.5529 151.961 56.2617C151.737 55.967 151.337 55.8196 150.762 55.8196C150.165 55.8196 149.667 55.951 149.265 56.2138C148.864 56.4766 148.567 56.7571 148.376 57.0554L147.268 56.6293C147.559 56.1321 147.907 55.745 148.312 55.468C148.717 55.1875 149.141 54.9922 149.585 54.8821C150.029 54.7685 150.457 54.7116 150.869 54.7116C151.131 54.7116 151.428 54.7436 151.758 54.8075C152.088 54.8679 152.397 54.994 152.685 55.1857C152.976 55.3775 153.195 55.6669 153.34 56.054C153.489 56.4411 153.511 56.9595 153.404 57.6094L152.509 63H151.252L151.444 61.892H151.38C151.266 62.0696 151.092 62.2596 150.858 62.462C150.627 62.6644 150.334 62.8366 149.979 62.9787C149.627 63.1207 149.214 63.1918 148.738 63.1918ZM149.1 62.0625C149.597 62.0625 150.032 61.9648 150.405 61.7695C150.782 61.5742 151.083 61.3221 151.311 61.0131C151.542 60.7042 151.685 60.3793 151.742 60.0384L151.934 58.8878C151.87 58.9517 151.744 59.0103 151.556 59.0636C151.368 59.1133 151.154 59.1577 150.917 59.1967C150.682 59.2322 150.453 59.2642 150.229 59.2926C150.009 59.3175 149.832 59.3388 149.697 59.3565C149.363 59.3991 149.045 59.4684 148.743 59.5643C148.445 59.6566 148.193 59.7969 147.987 59.9851C147.784 60.1697 147.658 60.4219 147.609 60.7415C147.534 61.1783 147.639 61.5085 147.923 61.7322C148.207 61.9524 148.599 62.0625 149.1 62.0625ZM154.292 66.0682L156.178 54.8182H157.392L157.179 56.1179H157.329C157.442 55.9759 157.598 55.7947 157.797 55.5746C158 55.3509 158.271 55.152 158.612 54.978C158.957 54.8004 159.395 54.7116 159.928 54.7116C160.617 54.7116 161.194 54.8839 161.659 55.2283C162.124 55.5728 162.453 56.0611 162.645 56.6932C162.836 57.3253 162.861 58.071 162.719 58.9304C162.577 59.7969 162.305 60.5479 161.904 61.1836C161.503 61.8157 161.013 62.3058 160.434 62.6538C159.855 62.9982 159.225 63.1705 158.543 63.1705C158.017 63.1705 157.611 63.0835 157.323 62.9094C157.036 62.7319 156.826 62.5312 156.695 62.3075C156.563 62.0803 156.462 61.892 156.391 61.7429H156.285L155.56 66.0682H154.292ZM156.732 58.9091C156.633 59.527 156.633 60.0721 156.732 60.5444C156.835 61.0131 157.039 61.3807 157.345 61.647C157.653 61.9098 158.06 62.0412 158.564 62.0412C159.09 62.0412 159.55 61.9027 159.944 61.6257C160.342 61.3452 160.668 60.9687 160.924 60.4964C161.183 60.0206 161.363 59.4915 161.462 58.9091C161.554 58.3338 161.551 57.8153 161.451 57.3537C161.352 56.8885 161.15 56.521 160.844 56.2511C160.539 55.9776 160.12 55.8409 159.587 55.8409C159.076 55.8409 158.623 55.9705 158.229 56.2298C157.838 56.4854 157.515 56.8441 157.259 57.3058C157.007 57.7638 156.831 58.2983 156.732 58.9091ZM164.062 55.9901L164.253 54.8182H170.901L170.709 55.9901H168.025L166.874 63H165.617L166.767 55.9901H164.062ZM177.614 58.3338L177.422 59.5057H172.905L173.097 58.3338H177.614ZM173.992 54.8182L172.628 63H171.371L172.735 54.8182H173.992ZM179.169 54.8182L177.806 63H176.549L177.912 54.8182H179.169ZM183.511 63.1705C182.726 63.1705 182.078 62.9964 181.566 62.6484C181.055 62.2969 180.698 61.8068 180.496 61.1783C180.293 60.5462 180.261 59.8111 180.4 58.973C180.538 58.1349 180.814 57.3963 181.225 56.7571C181.637 56.1143 182.151 55.6136 182.765 55.255C183.379 54.8928 184.054 54.7116 184.789 54.7116C185.215 54.7116 185.625 54.7827 186.02 54.9247C186.414 55.0668 186.755 55.2976 187.042 55.6172C187.33 55.9332 187.531 56.3523 187.644 56.8743C187.758 57.3963 187.751 58.0391 187.623 58.8026L187.538 59.3352H181.231L181.401 58.2486H186.43C186.511 57.7869 186.49 57.375 186.366 57.0128C186.245 56.6506 186.034 56.3647 185.732 56.1552C185.434 55.9457 185.055 55.8409 184.597 55.8409C184.125 55.8409 183.685 55.9687 183.276 56.2244C182.868 56.4766 182.527 56.7962 182.254 57.1832C181.98 57.5668 181.81 57.9574 181.742 58.3551L181.593 59.2926C181.487 59.9709 181.502 60.5107 181.641 60.9119C181.783 61.3132 182.03 61.6026 182.381 61.7802C182.733 61.9542 183.173 62.0412 183.702 62.0412C184.04 62.0412 184.35 61.995 184.635 61.9027C184.919 61.8068 185.173 61.6648 185.396 61.4766C185.62 61.2848 185.808 61.0469 185.961 60.7628L187.112 61.1037C186.916 61.5156 186.641 61.8778 186.286 62.1903C185.934 62.4993 185.522 62.7408 185.05 62.9148C184.581 63.0852 184.068 63.1705 183.511 63.1705ZM183.457 53.4545C183.223 53.4545 183.028 53.3604 182.871 53.1722C182.715 52.9805 182.655 52.7621 182.69 52.517C182.722 52.2933 182.829 52.1104 183.01 51.9684C183.191 51.8228 183.383 51.75 183.585 51.75C183.852 51.75 184.059 51.8406 184.208 52.0217C184.361 52.1992 184.416 52.4212 184.374 52.6875C184.342 52.8899 184.239 53.0692 184.065 53.2255C183.894 53.3782 183.692 53.4545 183.457 53.4545ZM186.526 53.4545C186.291 53.4545 186.094 53.3622 185.934 53.1776C185.775 52.9929 185.716 52.7727 185.759 52.517C185.798 52.2933 185.906 52.1104 186.083 51.9684C186.261 51.8228 186.451 51.75 186.653 51.75C186.92 51.75 187.127 51.8406 187.277 52.0217C187.429 52.1992 187.484 52.4212 187.442 52.6875C187.41 52.8899 187.307 53.0692 187.133 53.2255C186.962 53.3782 186.76 53.4545 186.526 53.4545ZM188.35 66.0682L190.236 54.8182H191.45L191.237 56.1179H191.386C191.5 55.9759 191.656 55.7947 191.855 55.5746C192.057 55.3509 192.329 55.152 192.67 54.978C193.014 54.8004 193.453 54.7116 193.986 54.7116C194.675 54.7116 195.252 54.8839 195.717 55.2283C196.182 55.5728 196.51 56.0611 196.702 56.6932C196.894 57.3253 196.919 58.071 196.777 58.9304C196.635 59.7969 196.363 60.5479 195.962 61.1836C195.561 61.8157 195.07 62.3058 194.492 62.6538C193.913 62.9982 193.282 63.1705 192.601 63.1705C192.075 63.1705 191.669 63.0835 191.381 62.9094C191.093 62.7319 190.884 62.5312 190.752 62.3075C190.621 62.0803 190.52 61.892 190.449 61.7429H190.342L189.618 66.0682H188.35ZM190.79 58.9091C190.69 59.527 190.69 60.0721 190.79 60.5444C190.893 61.0131 191.097 61.3807 191.402 61.647C191.711 61.9098 192.118 62.0412 192.622 62.0412C193.148 62.0412 193.607 61.9027 194.002 61.6257C194.399 61.3452 194.726 60.9687 194.982 60.4964C195.241 60.0206 195.42 59.4915 195.52 58.9091C195.612 58.3338 195.608 57.8153 195.509 57.3537C195.41 56.8885 195.207 56.521 194.902 56.2511C194.596 55.9776 194.177 55.8409 193.645 55.8409C193.133 55.8409 192.681 55.9705 192.286 56.2298C191.896 56.4854 191.573 56.8441 191.317 57.3058C191.065 57.7638 190.889 58.2983 190.79 58.9091ZM200.403 63.1918C199.884 63.1918 199.43 63.0941 199.039 62.8988C198.649 62.6999 198.359 62.4141 198.171 62.0412C197.983 61.6648 197.931 61.2102 198.017 60.6776C198.098 60.2088 198.256 59.8288 198.491 59.5376C198.725 59.2429 199.009 59.0121 199.343 58.8452C199.68 58.6747 200.043 58.5487 200.43 58.467C200.82 58.3817 201.209 58.3161 201.596 58.2699C202.1 58.206 202.511 58.1562 202.827 58.1207C203.143 58.0852 203.381 58.0266 203.54 57.945C203.7 57.8633 203.798 57.723 203.833 57.5241V57.4815C203.919 56.9595 203.849 56.5529 203.626 56.2617C203.402 55.967 203.002 55.8196 202.427 55.8196C201.831 55.8196 201.332 55.951 200.93 56.2138C200.529 56.4766 200.233 56.7571 200.041 57.0554L198.933 56.6293C199.224 56.1321 199.572 55.745 199.977 55.468C200.382 55.1875 200.806 54.9922 201.25 54.8821C201.694 54.7685 202.122 54.7116 202.534 54.7116C202.796 54.7116 203.093 54.7436 203.423 54.8075C203.753 54.8679 204.062 54.994 204.35 55.1857C204.641 55.3775 204.86 55.6669 205.005 56.054C205.154 56.4411 205.176 56.9595 205.069 57.6094L204.174 63H202.917L203.109 61.892H203.045C202.931 62.0696 202.757 62.2596 202.523 62.462C202.292 62.6644 201.999 62.8366 201.644 62.9787C201.293 63.1207 200.879 63.1918 200.403 63.1918ZM200.765 62.0625C201.262 62.0625 201.697 61.9648 202.07 61.7695C202.447 61.5742 202.748 61.3221 202.976 61.0131C203.207 60.7042 203.35 60.3793 203.407 60.0384L203.599 58.8878C203.535 58.9517 203.409 59.0103 203.221 59.0636C203.033 59.1133 202.82 59.1577 202.582 59.1967C202.347 59.2322 202.118 59.2642 201.894 59.2926C201.674 59.3175 201.497 59.3388 201.362 59.3565C201.028 59.3991 200.71 59.4684 200.408 59.5643C200.11 59.6566 199.858 59.7969 199.652 59.9851C199.449 60.1697 199.323 60.4219 199.274 60.7415C199.199 61.1783 199.304 61.5085 199.588 61.7322C199.872 61.9524 200.264 62.0625 200.765 62.0625Z" fill="#2E7E7C"/>
<circle cx="252" cy="306" r="27" fill="#F4F7FB"/>
<circle cx="252" cy="306" r="18" fill="#2E7E7C"/>
<path d="M246.537 312L246.741 310.849L251.83 306.119C252.426 305.565 252.923 305.082 253.319 304.668C253.719 304.255 254.031 303.867 254.252 303.505C254.478 303.143 254.625 302.761 254.693 302.361C254.77 301.901 254.729 301.502 254.572 301.165C254.414 300.829 254.165 300.569 253.824 300.386C253.483 300.202 253.074 300.111 252.597 300.111C252.094 300.111 251.636 300.215 251.222 300.424C250.809 300.629 250.466 300.918 250.193 301.293C249.92 301.664 249.741 302.097 249.656 302.591H248.148C248.276 301.824 248.567 301.151 249.023 300.571C249.484 299.991 250.048 299.54 250.717 299.216C251.391 298.892 252.111 298.73 252.878 298.73C253.645 298.73 254.295 298.892 254.827 299.216C255.36 299.54 255.746 299.977 255.984 300.526C256.223 301.076 256.287 301.688 256.176 302.361C256.091 302.847 255.923 303.317 255.671 303.773C255.42 304.229 255.034 304.739 254.514 305.301C253.999 305.859 253.3 306.541 252.418 307.347L248.966 310.491L248.94 310.594H255.026L254.795 312H246.537Z" fill="white"/>
<circle cx="531" cy="179" r="27" fill="#F4F7FB"/>
<circle cx="531" cy="179" r="18" fill="#2E7E7C"/>
<path d="M530.011 185.179C529.159 185.179 528.42 185.036 527.793 184.751C527.171 184.461 526.707 184.058 526.4 183.543C526.093 183.023 525.984 182.418 526.074 181.727H527.659C527.621 182.145 527.693 182.507 527.876 182.814C528.064 183.121 528.341 183.357 528.707 183.523C529.078 183.69 529.521 183.773 530.037 183.773C530.587 183.773 531.102 183.677 531.584 183.485C532.07 183.293 532.477 183.016 532.805 182.654C533.133 182.288 533.335 181.851 533.412 181.344C533.48 180.888 533.429 180.483 533.259 180.129C533.088 179.776 532.794 179.499 532.376 179.298C531.963 179.094 531.422 178.991 530.753 178.991H529.679L529.909 177.585H530.906C531.426 177.585 531.903 177.487 532.338 177.291C532.773 177.095 533.135 176.82 533.425 176.467C533.714 176.109 533.898 175.689 533.974 175.207C534.047 174.786 534.017 174.419 533.885 174.108C533.757 173.793 533.536 173.548 533.22 173.373C532.909 173.198 532.513 173.111 532.031 173.111C531.571 173.111 531.119 173.194 530.676 173.36C530.237 173.522 529.862 173.759 529.551 174.07C529.24 174.376 529.044 174.747 528.963 175.182H527.429C527.561 174.5 527.857 173.901 528.317 173.386C528.778 172.866 529.338 172.461 529.999 172.171C530.663 171.877 531.366 171.73 532.108 171.73C532.93 171.73 533.608 171.901 534.141 172.241C534.678 172.578 535.061 173.021 535.291 173.571C535.521 174.116 535.585 174.705 535.483 175.335C535.368 176.055 535.072 176.665 534.594 177.163C534.117 177.662 533.536 178.016 532.849 178.224V178.301C533.655 178.442 534.239 178.812 534.601 179.413C534.967 180.01 535.082 180.722 534.946 181.548C534.827 182.29 534.539 182.933 534.083 183.479C533.627 184.02 533.05 184.44 532.351 184.738C531.652 185.032 530.872 185.179 530.011 185.179Z" fill="white"/>
<circle cx="240" cy="66" r="27" fill="#F4F7FB"/>
<circle cx="240" cy="66" r="18" fill="#2E7E7C"/>
<path d="M242.312 58.9091L240.139 72H238.554L240.446 60.571H240.369L236.815 62.6932L237.097 61.0824L240.727 58.9091H242.312Z" fill="white"/>
<path d="M397 348.5L360.25 369.718L360.25 327.282L397 348.5Z" fill="#F4F7FB"/>
<path d="M149.312 0.909091L147.139 14H145.554L147.446 2.57102H147.369L143.815 4.69318L144.097 3.08239L147.727 0.909091H149.312Z" fill="white"/>
</svg>
