<svg width="774" height="374" viewBox="0 0 774 374" fill="none" xmlns="http://www.w3.org/2000/svg">
<circle cx="364" cy="181" r="98" fill="white" fill-opacity="0.67"/>
<path d="M335.739 181.631C335.547 182.767 335.179 183.749 334.636 184.576C334.093 185.4 333.429 186.036 332.644 186.483C331.859 186.927 331.009 187.149 330.092 187.149C329.148 187.149 328.343 186.918 327.679 186.457C327.019 185.991 326.547 185.335 326.262 184.486C325.982 183.634 325.938 182.625 326.129 181.46C326.321 180.324 326.689 179.344 327.232 178.52C327.775 177.692 328.441 177.057 329.229 176.613C330.018 176.165 330.874 175.942 331.797 175.942C332.734 175.942 333.532 176.174 334.189 176.64C334.849 177.101 335.32 177.758 335.6 178.61C335.884 179.459 335.93 180.466 335.739 181.631ZM334.482 181.46C334.638 180.53 334.615 179.747 334.412 179.111C334.21 178.475 333.874 177.994 333.406 177.668C332.937 177.341 332.379 177.178 331.733 177.178C331.058 177.178 330.419 177.35 329.815 177.694C329.212 178.035 328.695 178.538 328.265 179.202C327.836 179.862 327.543 180.672 327.386 181.631C327.23 182.561 327.253 183.344 327.456 183.98C327.658 184.615 327.994 185.097 328.462 185.423C328.931 185.75 329.489 185.913 330.135 185.913C330.81 185.913 331.449 185.743 332.053 185.402C332.656 185.058 333.173 184.555 333.603 183.895C334.032 183.23 334.325 182.419 334.482 181.46ZM337.634 177.263L337.825 176.091H346.007L345.815 177.263H342.385L340.766 187H339.445L341.064 177.263H337.634ZM354.63 176.091L354.438 177.263H349.175L347.556 187H346.235L348.046 176.091H354.63ZM354.863 187L356.674 176.091H360.36C361.212 176.091 361.885 176.244 362.379 176.549C362.876 176.854 363.212 177.268 363.386 177.79C363.563 178.312 363.599 178.896 363.492 179.543C363.386 180.182 363.157 180.764 362.805 181.29C362.457 181.815 361.985 182.234 361.388 182.547C360.795 182.859 360.076 183.016 359.231 183.016H356.589L356.78 181.844H359.38C359.962 181.844 360.449 181.743 360.839 181.54C361.23 181.338 361.535 181.062 361.756 180.714C361.976 180.366 362.121 179.976 362.192 179.543C362.263 179.102 362.246 178.712 362.139 178.371C362.036 178.026 361.821 177.756 361.495 177.561C361.171 177.362 360.715 177.263 360.126 177.263H357.803L356.184 187H354.863ZM364.945 187.149L365.158 185.913H365.84C366.103 185.913 366.332 185.862 366.527 185.759C366.726 185.656 366.896 185.523 367.038 185.359C367.184 185.196 367.31 185.026 367.417 184.848L367.651 184.443L365.265 176.091H366.692L368.567 182.866L372.445 176.091H373.851L368.567 185.232C368.361 185.572 368.139 185.888 367.901 186.18C367.663 186.471 367.367 186.705 367.012 186.883C366.657 187.06 366.202 187.149 365.648 187.149H364.945ZM377.296 187.149C376.586 187.149 375.97 187.03 375.448 186.792C374.929 186.551 374.542 186.215 374.287 185.786C374.031 185.352 373.94 184.848 374.015 184.273H375.336C375.304 184.621 375.364 184.923 375.517 185.178C375.673 185.434 375.904 185.631 376.21 185.77C376.519 185.908 376.888 185.977 377.318 185.977C377.776 185.977 378.205 185.897 378.607 185.738C379.011 185.578 379.351 185.347 379.624 185.045C379.897 184.74 380.066 184.376 380.13 183.953C380.187 183.573 380.144 183.236 380.002 182.941C379.86 182.646 379.615 182.415 379.267 182.249C378.923 182.078 378.472 181.993 377.914 181.993H377.019L377.211 180.821H378.042C378.475 180.821 378.873 180.739 379.235 180.576C379.597 180.413 379.899 180.184 380.141 179.889C380.382 179.591 380.535 179.241 380.599 178.839C380.659 178.488 380.634 178.183 380.524 177.923C380.418 177.661 380.233 177.456 379.97 177.311C379.711 177.165 379.381 177.092 378.979 177.092C378.596 177.092 378.22 177.162 377.85 177.3C377.484 177.435 377.172 177.632 376.913 177.891C376.653 178.147 376.49 178.456 376.423 178.818H375.144C375.254 178.25 375.501 177.751 375.885 177.321C376.268 176.888 376.735 176.551 377.286 176.309C377.84 176.064 378.426 175.942 379.043 175.942C379.729 175.942 380.293 176.084 380.737 176.368C381.185 176.648 381.504 177.018 381.696 177.476C381.888 177.93 381.941 178.42 381.856 178.946C381.76 179.546 381.513 180.054 381.116 180.469C380.718 180.885 380.233 181.18 379.661 181.354V181.418C380.332 181.535 380.819 181.844 381.121 182.344C381.426 182.842 381.522 183.435 381.408 184.124C381.309 184.741 381.069 185.278 380.689 185.732C380.309 186.183 379.828 186.533 379.246 186.782C378.663 187.027 378.014 187.149 377.296 187.149ZM389.723 187L386.804 181.993H385.462L384.631 187H383.31L385.121 176.091H386.442L385.654 180.821H386.229L391.385 176.091H392.962L387.763 180.885L391.3 187H389.723ZM393.455 187H392.07L397.887 176.091H399.25L401.445 187H400.06L398.334 177.817H398.249L393.455 187ZM394.669 182.739H400.252L400.06 183.911H394.478L394.669 182.739Z" fill="#398E8B"/>
<path d="M498 181C498 255.006 438.006 315 364 315C289.994 315 230 255.006 230 181C230 106.994 289.994 47 364 47C438.006 47 498 106.994 498 181Z" fill="#F4F7FB"/>
<mask id="path-4-inside-1_212_3760" fill="white">
<path d="M187 181C187 134.057 205.648 89.036 238.842 55.8421C272.036 22.6482 317.057 4 364 4V24.3914C322.465 24.3914 282.631 40.8912 253.261 70.261C223.891 99.6308 207.391 139.465 207.391 181H187Z"/>
</mask>
<path d="M187 181C187 134.057 205.648 89.036 238.842 55.8421C272.036 22.6482 317.057 4 364 4V24.3914C322.465 24.3914 282.631 40.8912 253.261 70.261C223.891 99.6308 207.391 139.465 207.391 181H187Z" stroke="#F4F7FB" stroke-width="50" stroke-linecap="round" mask="url(#path-4-inside-1_212_3760)"/>
<mask id="path-5-inside-2_212_3760" fill="white">
<path d="M364 358C325.036 358 287.161 345.143 256.249 321.424C225.337 297.704 203.116 264.447 193.031 226.811L212.728 221.533C221.65 254.834 241.312 284.259 268.663 305.246C296.014 326.233 329.525 337.609 364 337.609L364 358Z"/>
</mask>
<path d="M364 358C325.036 358 287.161 345.143 256.249 321.424C225.337 297.704 203.116 264.447 193.031 226.811L212.728 221.533C221.65 254.834 241.312 284.259 268.663 305.246C296.014 326.233 329.525 337.609 364 337.609L364 358Z" stroke="#F4F7FB" stroke-width="50" stroke-linecap="round" mask="url(#path-5-inside-2_212_3760)"/>
<mask id="path-6-inside-3_212_3760" fill="white">
<path d="M541 181C541 219.964 528.143 257.839 504.424 288.751C480.704 319.663 447.447 341.884 409.811 351.969L404.533 332.272C437.834 323.35 467.259 303.688 488.246 276.337C509.233 248.986 520.609 215.475 520.609 181H541Z"/>
</mask>
<path d="M541 181C541 219.964 528.143 257.839 504.424 288.751C480.704 319.663 447.447 341.884 409.811 351.969L404.533 332.272C437.834 323.35 467.259 303.688 488.246 276.337C509.233 248.986 520.609 215.475 520.609 181H541Z" stroke="#F4F7FB" stroke-width="50" stroke-linecap="round" mask="url(#path-6-inside-3_212_3760)"/>
<path d="M122.981 305.091L121.17 316H119.849L121.468 306.263H115.971L114.352 316H113.031L114.842 305.091H122.981ZM123.153 319.068L125.038 307.818H126.253L126.04 309.118H126.189C126.303 308.976 126.459 308.795 126.658 308.575C126.86 308.351 127.132 308.152 127.473 307.978C127.817 307.8 128.256 307.712 128.788 307.712C129.477 307.712 130.054 307.884 130.52 308.228C130.985 308.573 131.313 309.061 131.505 309.693C131.697 310.325 131.722 311.071 131.58 311.93C131.438 312.797 131.166 313.548 130.765 314.184C130.363 314.816 129.873 315.306 129.294 315.654C128.716 315.998 128.085 316.17 127.403 316.17C126.878 316.17 126.471 316.083 126.184 315.909C125.896 315.732 125.686 315.531 125.555 315.308C125.424 315.08 125.322 314.892 125.251 314.743H125.145L124.42 319.068H123.153ZM125.592 311.909C125.493 312.527 125.493 313.072 125.592 313.544C125.695 314.013 125.9 314.381 126.205 314.647C126.514 314.91 126.92 315.041 127.425 315.041C127.95 315.041 128.41 314.903 128.804 314.626C129.202 314.345 129.529 313.969 129.784 313.496C130.044 313.021 130.223 312.491 130.322 311.909C130.415 311.334 130.411 310.815 130.312 310.354C130.212 309.888 130.01 309.521 129.705 309.251C129.399 308.978 128.98 308.841 128.447 308.841C127.936 308.841 127.483 308.971 127.089 309.23C126.699 309.485 126.375 309.844 126.12 310.306C125.868 310.764 125.692 311.298 125.592 311.909ZM136.196 316.17C135.444 316.17 134.813 315.991 134.305 315.632C133.798 315.274 133.439 314.771 133.229 314.125C133.024 313.479 132.99 312.726 133.128 311.866C133.263 311.028 133.531 310.299 133.933 309.677C134.337 309.052 134.84 308.569 135.44 308.228C136.044 307.884 136.708 307.712 137.432 307.712C138.185 307.712 138.814 307.893 139.318 308.255C139.826 308.614 140.184 309.118 140.394 309.768C140.603 310.414 140.639 311.17 140.5 312.037C140.366 312.868 140.094 313.594 139.685 314.216C139.281 314.833 138.778 315.315 138.178 315.659C137.581 316 136.921 316.17 136.196 316.17ZM136.218 315.041C136.793 315.041 137.292 314.894 137.715 314.599C138.141 314.304 138.485 313.915 138.748 313.433C139.014 312.95 139.194 312.428 139.286 311.866C139.371 311.334 139.368 310.838 139.275 310.38C139.183 309.919 138.986 309.548 138.684 309.267C138.382 308.983 137.958 308.841 137.411 308.841C136.836 308.841 136.333 308.99 135.903 309.288C135.477 309.587 135.133 309.979 134.87 310.466C134.607 310.952 134.432 311.476 134.343 312.037C134.258 312.57 134.259 313.065 134.348 313.523C134.44 313.978 134.638 314.345 134.939 314.626C135.245 314.903 135.671 315.041 136.218 315.041ZM143.346 314.146L148.332 307.818H149.781L148.417 316H147.16L148.204 309.672L143.24 316H141.77L143.133 307.818H144.39L143.346 314.146ZM150.56 313.912H151.902C151.867 314.281 151.986 314.562 152.259 314.754C152.536 314.945 152.921 315.041 153.415 315.041C153.919 315.041 154.367 314.938 154.757 314.732C155.152 314.523 155.386 314.185 155.46 313.72C155.507 313.447 155.48 313.209 155.381 313.006C155.281 312.8 155.118 312.641 154.891 312.527C154.667 312.413 154.388 312.357 154.054 312.357H152.648L152.84 311.227H154.246C154.743 311.227 155.13 311.114 155.407 310.886C155.684 310.659 155.851 310.375 155.908 310.034C155.968 309.668 155.887 309.375 155.663 309.155C155.439 308.931 155.088 308.82 154.608 308.82C154.132 308.82 153.717 308.928 153.362 309.145C153.007 309.358 152.79 309.633 152.712 309.97H151.391C151.48 309.53 151.68 309.141 151.993 308.804C152.305 308.463 152.698 308.196 153.17 308.005C153.646 307.809 154.168 307.712 154.736 307.712C155.311 307.712 155.794 307.813 156.185 308.015C156.576 308.214 156.858 308.486 157.032 308.83C157.209 309.171 157.261 309.558 157.186 309.991C157.112 310.453 156.92 310.826 156.611 311.11C156.306 311.394 155.951 311.597 155.546 311.717L155.524 311.803C155.83 311.824 156.082 311.923 156.281 312.101C156.483 312.275 156.623 312.504 156.702 312.788C156.783 313.069 156.796 313.379 156.739 313.72C156.657 314.217 156.453 314.651 156.126 315.02C155.8 315.386 155.388 315.67 154.891 315.872C154.393 316.071 153.845 316.17 153.245 316.17C152.666 316.17 152.163 316.076 151.737 315.888C151.315 315.696 150.997 315.432 150.784 315.094C150.574 314.754 150.5 314.359 150.56 313.912ZM158.132 316L159.495 307.818H162.841C163.714 307.818 164.378 308.019 164.833 308.42C165.287 308.818 165.461 309.342 165.355 309.991C165.27 310.492 165.057 310.877 164.716 311.147C164.375 311.417 163.97 311.6 163.501 311.696C163.792 311.739 164.066 311.845 164.321 312.016C164.581 312.186 164.778 312.42 164.913 312.719C165.051 313.017 165.085 313.379 165.014 313.805C164.943 314.224 164.772 314.599 164.503 314.929C164.236 315.26 163.888 315.521 163.459 315.712C163.032 315.904 162.542 316 161.988 316H158.132ZM159.517 314.849H162.18C162.617 314.849 162.976 314.746 163.256 314.54C163.537 314.331 163.704 314.05 163.757 313.699C163.831 313.273 163.764 312.939 163.554 312.697C163.348 312.456 163.032 312.335 162.606 312.335H159.943L159.517 314.849ZM160.113 311.249H162.265C162.599 311.249 162.896 311.202 163.155 311.11C163.414 311.014 163.624 310.879 163.783 310.705C163.943 310.528 164.041 310.318 164.076 310.077C164.14 309.736 164.043 309.466 163.783 309.267C163.528 309.068 163.15 308.969 162.649 308.969H160.497L160.113 311.249ZM169.932 316.17C169.179 316.17 168.549 315.991 168.041 315.632C167.533 315.274 167.174 314.771 166.965 314.125C166.759 313.479 166.725 312.726 166.864 311.866C166.999 311.028 167.267 310.299 167.668 309.677C168.073 309.052 168.575 308.569 169.175 308.228C169.779 307.884 170.443 307.712 171.168 307.712C171.92 307.712 172.549 307.893 173.053 308.255C173.561 308.614 173.92 309.118 174.129 309.768C174.339 310.414 174.374 311.17 174.236 312.037C174.101 312.868 173.829 313.594 173.421 314.216C173.016 314.833 172.513 315.315 171.913 315.659C171.317 316 170.656 316.17 169.932 316.17ZM169.953 315.041C170.528 315.041 171.027 314.894 171.45 314.599C171.876 314.304 172.221 313.915 172.483 313.433C172.75 312.95 172.929 312.428 173.021 311.866C173.107 311.334 173.103 310.838 173.011 310.38C172.918 309.919 172.721 309.548 172.419 309.267C172.118 308.983 171.693 308.841 171.146 308.841C170.571 308.841 170.069 308.99 169.639 309.288C169.213 309.587 168.868 309.979 168.605 310.466C168.343 310.952 168.167 311.476 168.078 312.037C167.993 312.57 167.995 313.065 168.083 313.523C168.176 313.978 168.373 314.345 168.675 314.626C168.98 314.903 169.406 315.041 169.953 315.041ZM174.248 318.344L174.844 314.828H175.526C175.718 314.654 175.89 314.466 176.043 314.263C176.199 314.061 176.345 313.821 176.48 313.544C176.615 313.264 176.748 312.923 176.879 312.522C177.011 312.117 177.149 311.629 177.295 311.057L178.104 307.818H183.303L182.153 314.828H183.41L182.813 318.344H181.556L181.94 316H175.888L175.505 318.344H174.248ZM176.954 314.828H180.896L181.854 308.99H179.084L178.53 311.057C178.3 311.913 178.065 312.66 177.827 313.299C177.593 313.939 177.302 314.448 176.954 314.828ZM188.182 316.17C187.412 316.17 186.78 315.989 186.286 315.627C185.796 315.265 185.455 314.766 185.263 314.13C185.072 313.495 185.043 312.768 185.178 311.952C185.313 311.121 185.587 310.387 185.998 309.752C186.41 309.113 186.924 308.614 187.538 308.255C188.152 307.893 188.829 307.712 189.567 307.712C190.143 307.712 190.643 307.818 191.07 308.031C191.496 308.244 191.824 308.543 192.055 308.926C192.286 309.31 192.394 309.757 192.38 310.268H191.123C191.087 309.896 190.927 309.565 190.643 309.278C190.363 308.987 189.947 308.841 189.397 308.841C188.907 308.841 188.456 308.969 188.044 309.224C187.632 309.477 187.286 309.833 187.005 310.295C186.725 310.753 186.535 311.291 186.435 311.909C186.329 312.541 186.338 313.092 186.462 313.56C186.586 314.029 186.812 314.393 187.138 314.652C187.465 314.912 187.877 315.041 188.374 315.041C188.701 315.041 189.006 314.984 189.29 314.871C189.574 314.757 189.827 314.594 190.047 314.381C190.267 314.168 190.441 313.912 190.569 313.614H191.826C191.67 314.097 191.419 314.532 191.075 314.919C190.73 315.302 190.313 315.608 189.823 315.835C189.333 316.059 188.786 316.17 188.182 316.17ZM193.786 308.99L193.978 307.818H200.626L200.434 308.99H197.749L196.599 316H195.342L196.492 308.99H193.786ZM201.096 316L202.459 307.818H205.805C206.678 307.818 207.342 308.019 207.797 308.42C208.251 308.818 208.425 309.342 208.319 309.991C208.233 310.492 208.02 310.877 207.68 311.147C207.339 311.417 206.934 311.6 206.465 311.696C206.756 311.739 207.03 311.845 207.285 312.016C207.545 312.186 207.742 312.42 207.877 312.719C208.015 313.017 208.049 313.379 207.978 313.805C207.907 314.224 207.736 314.599 207.466 314.929C207.2 315.26 206.852 315.521 206.422 315.712C205.996 315.904 205.506 316 204.952 316H201.096ZM202.481 314.849H205.144C205.581 314.849 205.939 314.746 206.22 314.54C206.501 314.331 206.667 314.05 206.721 313.699C206.795 313.273 206.728 312.939 206.518 312.697C206.312 312.456 205.996 312.335 205.57 312.335H202.907L202.481 314.849ZM203.077 311.249H205.229C205.563 311.249 205.86 311.202 206.119 311.11C206.378 311.014 206.588 310.879 206.747 310.705C206.907 310.528 207.005 310.318 207.04 310.077C207.104 309.736 207.007 309.466 206.747 309.267C206.492 309.068 206.113 308.969 205.613 308.969H203.461L203.077 311.249ZM212.896 316.17C212.143 316.17 211.513 315.991 211.005 315.632C210.497 315.274 210.138 314.771 209.929 314.125C209.723 313.479 209.689 312.726 209.828 311.866C209.962 311.028 210.231 310.299 210.632 309.677C211.037 309.052 211.539 308.569 212.139 308.228C212.743 307.884 213.407 307.712 214.131 307.712C214.884 307.712 215.513 307.893 216.017 308.255C216.525 308.614 216.884 309.118 217.093 309.768C217.303 310.414 217.338 311.17 217.2 312.037C217.065 312.868 216.793 313.594 216.385 314.216C215.98 314.833 215.477 315.315 214.877 315.659C214.281 316 213.62 316.17 212.896 316.17ZM212.917 315.041C213.492 315.041 213.991 314.894 214.414 314.599C214.84 314.304 215.184 313.915 215.447 313.433C215.714 312.95 215.893 312.428 215.985 311.866C216.07 311.334 216.067 310.838 215.975 310.38C215.882 309.919 215.685 309.548 215.383 309.267C215.081 308.983 214.657 308.841 214.11 308.841C213.535 308.841 213.032 308.99 212.603 309.288C212.177 309.587 211.832 309.979 211.569 310.466C211.307 310.952 211.131 311.476 211.042 312.037C210.957 312.57 210.959 313.065 211.047 313.523C211.14 313.978 211.337 314.345 211.639 314.626C211.944 314.903 212.37 315.041 212.917 315.041Z" fill="#2E7E7C"/>
<path d="M575.816 184L572.897 178.993H571.555L570.724 184H569.403L571.214 173.091H572.535L571.747 177.821H572.322L577.478 173.091H579.055L573.856 177.885L577.393 184H575.816ZM581.706 184.17C580.953 184.17 580.323 183.991 579.815 183.632C579.307 183.274 578.949 182.771 578.739 182.125C578.533 181.479 578.5 180.726 578.638 179.866C578.773 179.028 579.041 178.299 579.442 177.677C579.847 177.052 580.35 176.569 580.95 176.228C581.554 175.884 582.218 175.712 582.942 175.712C583.695 175.712 584.323 175.893 584.828 176.255C585.335 176.614 585.694 177.118 585.904 177.768C586.113 178.414 586.149 179.17 586.01 180.037C585.875 180.868 585.604 181.594 585.195 182.216C584.79 182.833 584.288 183.315 583.688 183.659C583.091 184 582.431 184.17 581.706 184.17ZM581.728 183.041C582.303 183.041 582.802 182.894 583.224 182.599C583.65 182.304 583.995 181.915 584.258 181.433C584.524 180.95 584.703 180.428 584.796 179.866C584.881 179.334 584.877 178.838 584.785 178.38C584.693 177.919 584.496 177.548 584.194 177.267C583.892 176.983 583.468 176.841 582.921 176.841C582.345 176.841 581.843 176.99 581.413 177.288C580.987 177.587 580.643 177.979 580.38 178.466C580.117 178.952 579.941 179.476 579.853 180.037C579.767 180.57 579.769 181.065 579.858 181.523C579.95 181.978 580.147 182.345 580.449 182.626C580.755 182.903 581.181 183.041 581.728 183.041ZM593.522 179.334L593.33 180.506H588.813L589.005 179.334H593.522ZM589.9 175.818L588.536 184H587.279L588.643 175.818H589.9ZM595.078 175.818L593.714 184H592.457L593.82 175.818H595.078ZM596.068 176.99L596.26 175.818H602.908L602.716 176.99H600.031L598.881 184H597.624L598.774 176.99H596.068ZM602.867 187.068L604.752 175.818H605.967L605.754 177.118H605.903C606.016 176.976 606.173 176.795 606.372 176.575C606.574 176.351 606.846 176.152 607.187 175.978C607.531 175.8 607.97 175.712 608.502 175.712C609.191 175.712 609.768 175.884 610.233 176.228C610.699 176.573 611.027 177.061 611.219 177.693C611.411 178.325 611.435 179.071 611.293 179.93C611.151 180.797 610.88 181.548 610.478 182.184C610.077 182.816 609.587 183.306 609.008 183.654C608.429 183.998 607.799 184.17 607.117 184.17C606.592 184.17 606.185 184.083 605.897 183.909C605.61 183.732 605.4 183.531 605.269 183.308C605.138 183.08 605.036 182.892 604.965 182.743H604.859L604.134 187.068H602.867ZM605.306 179.909C605.207 180.527 605.207 181.072 605.306 181.544C605.409 182.013 605.613 182.381 605.919 182.647C606.228 182.91 606.634 183.041 607.139 183.041C607.664 183.041 608.124 182.903 608.518 182.626C608.916 182.345 609.243 181.969 609.498 181.496C609.758 181.021 609.937 180.491 610.036 179.909C610.129 179.334 610.125 178.815 610.026 178.354C609.926 177.888 609.724 177.521 609.418 177.251C609.113 176.978 608.694 176.841 608.161 176.841C607.65 176.841 607.197 176.971 606.803 177.23C606.412 177.485 606.089 177.844 605.834 178.306C605.581 178.764 605.406 179.298 605.306 179.909ZM615.91 184.17C615.157 184.17 614.527 183.991 614.019 183.632C613.512 183.274 613.153 182.771 612.943 182.125C612.737 181.479 612.704 180.726 612.842 179.866C612.977 179.028 613.245 178.299 613.646 177.677C614.051 177.052 614.554 176.569 615.154 176.228C615.758 175.884 616.422 175.712 617.146 175.712C617.899 175.712 618.528 175.893 619.032 176.255C619.54 176.614 619.898 177.118 620.108 177.768C620.317 178.414 620.353 179.17 620.214 180.037C620.079 180.868 619.808 181.594 619.399 182.216C618.994 182.833 618.492 183.315 617.892 183.659C617.295 184 616.635 184.17 615.91 184.17ZM615.932 183.041C616.507 183.041 617.006 182.894 617.428 182.599C617.855 182.304 618.199 181.915 618.462 181.433C618.728 180.95 618.907 180.428 619 179.866C619.085 179.334 619.081 178.838 618.989 178.38C618.897 177.919 618.7 177.548 618.398 177.267C618.096 176.983 617.672 176.841 617.125 176.841C616.55 176.841 616.047 176.99 615.617 177.288C615.191 177.587 614.847 177.979 614.584 178.466C614.321 178.952 614.145 179.476 614.057 180.037C613.971 180.57 613.973 181.065 614.062 181.523C614.154 181.978 614.351 182.345 614.653 182.626C614.959 182.903 615.385 183.041 615.932 183.041ZM620.759 184L620.951 182.828H621.249C621.494 182.828 621.705 182.78 621.883 182.684C622.064 182.585 622.226 182.413 622.368 182.168C622.513 181.919 622.65 181.575 622.778 181.134C622.909 180.69 623.046 180.126 623.188 179.44L623.934 175.818H629.388L628.025 184H626.767L627.939 176.99H624.935L624.317 179.909C624.179 180.58 624.021 181.172 623.843 181.683C623.669 182.191 623.461 182.617 623.22 182.961C622.982 183.306 622.696 183.565 622.362 183.739C622.032 183.913 621.64 184 621.185 184H620.759ZM632.291 178.78H634.635C635.594 178.78 636.285 179.023 636.707 179.51C637.133 179.996 637.288 180.612 637.171 181.358C637.085 181.848 636.895 182.294 636.601 182.695C636.306 183.093 635.919 183.411 635.439 183.648C634.96 183.883 634.401 184 633.761 184H630.331L631.695 175.818H632.952L631.78 182.828H633.953C634.454 182.828 634.885 182.699 635.248 182.439C635.613 182.176 635.828 181.837 635.892 181.422C635.967 180.985 635.866 180.632 635.589 180.362C635.315 180.088 634.933 179.952 634.443 179.952H632.1L632.291 178.78ZM649.439 184L646.52 178.993H645.178L644.347 184H643.026L644.837 173.091H646.158L645.37 177.821H645.945L651.101 173.091H652.678L647.479 177.885L651.016 184H649.439ZM654.939 184.192C654.421 184.192 653.966 184.094 653.575 183.899C653.185 183.7 652.895 183.414 652.707 183.041C652.519 182.665 652.468 182.21 652.553 181.678C652.634 181.209 652.792 180.829 653.027 180.538C653.261 180.243 653.545 180.012 653.879 179.845C654.216 179.675 654.579 179.549 654.966 179.467C655.356 179.382 655.745 179.316 656.132 179.27C656.637 179.206 657.047 179.156 657.363 179.121C657.679 179.085 657.917 179.027 658.077 178.945C658.236 178.863 658.334 178.723 658.369 178.524V178.482C658.455 177.96 658.385 177.553 658.162 177.262C657.938 176.967 657.539 176.82 656.963 176.82C656.367 176.82 655.868 176.951 655.466 177.214C655.065 177.477 654.769 177.757 654.577 178.055L653.469 177.629C653.76 177.132 654.108 176.745 654.513 176.468C654.918 176.187 655.342 175.992 655.786 175.882C656.23 175.768 656.658 175.712 657.07 175.712C657.333 175.712 657.629 175.744 657.959 175.808C658.29 175.868 658.599 175.994 658.886 176.186C659.177 176.377 659.396 176.667 659.541 177.054C659.691 177.441 659.712 177.96 659.605 178.609L658.71 184H657.453L657.645 182.892H657.581C657.468 183.07 657.294 183.26 657.059 183.462C656.828 183.664 656.535 183.837 656.18 183.979C655.829 184.121 655.415 184.192 654.939 184.192ZM655.301 183.062C655.798 183.062 656.233 182.965 656.606 182.77C656.983 182.574 657.285 182.322 657.512 182.013C657.743 181.704 657.887 181.379 657.943 181.038L658.135 179.888C658.071 179.952 657.945 180.01 657.757 180.064C657.569 180.113 657.356 180.158 657.118 180.197C656.883 180.232 656.654 180.264 656.431 180.293C656.21 180.317 656.033 180.339 655.898 180.357C655.564 180.399 655.246 180.468 654.944 180.564C654.646 180.657 654.394 180.797 654.188 180.985C653.986 181.17 653.86 181.422 653.81 181.741C653.735 182.178 653.84 182.509 654.124 182.732C654.408 182.952 654.801 183.062 655.301 183.062ZM668.654 175.818L667.312 184H666.055L667.397 175.818H668.654ZM667.525 179.717L667.333 180.889C667.031 180.996 666.733 181.09 666.438 181.172C666.143 181.25 665.838 181.312 665.522 181.358C665.209 181.401 664.869 181.422 664.499 181.422C663.569 181.422 662.866 181.172 662.39 180.671C661.914 180.17 661.758 179.419 661.921 178.418L662.347 175.797H663.604L663.178 178.418C663.111 178.837 663.134 179.181 663.247 179.451C663.361 179.721 663.544 179.922 663.796 180.053C664.052 180.184 664.35 180.25 664.691 180.25C665.22 180.25 665.708 180.202 666.156 180.106C666.607 180.007 667.063 179.877 667.525 179.717ZM673.027 184.17C672.242 184.17 671.594 183.996 671.083 183.648C670.572 183.297 670.215 182.807 670.012 182.178C669.81 181.546 669.778 180.811 669.916 179.973C670.055 179.135 670.33 178.396 670.742 177.757C671.154 177.114 671.667 176.614 672.282 176.255C672.896 175.893 673.571 175.712 674.306 175.712C674.732 175.712 675.142 175.783 675.536 175.925C675.93 176.067 676.271 176.298 676.559 176.617C676.847 176.933 677.047 177.352 677.161 177.874C677.274 178.396 677.267 179.039 677.139 179.803L677.054 180.335H670.747L670.918 179.249H675.946C676.028 178.787 676.007 178.375 675.882 178.013C675.762 177.651 675.55 177.365 675.248 177.155C674.95 176.946 674.572 176.841 674.114 176.841C673.642 176.841 673.201 176.969 672.793 177.224C672.384 177.477 672.044 177.796 671.77 178.183C671.497 178.567 671.326 178.957 671.259 179.355L671.11 180.293C671.003 180.971 671.019 181.511 671.158 181.912C671.3 182.313 671.546 182.603 671.898 182.78C672.25 182.954 672.69 183.041 673.219 183.041C673.556 183.041 673.867 182.995 674.151 182.903C674.435 182.807 674.689 182.665 674.913 182.477C675.137 182.285 675.325 182.047 675.478 181.763L676.628 182.104C676.433 182.516 676.158 182.878 675.802 183.19C675.451 183.499 675.039 183.741 674.567 183.915C674.098 184.085 673.585 184.17 673.027 184.17ZM681.68 184.17C680.91 184.17 680.278 183.989 679.784 183.627C679.294 183.265 678.953 182.766 678.761 182.13C678.57 181.495 678.541 180.768 678.676 179.952C678.811 179.121 679.085 178.387 679.497 177.752C679.908 177.113 680.422 176.614 681.036 176.255C681.65 175.893 682.327 175.712 683.065 175.712C683.641 175.712 684.141 175.818 684.568 176.031C684.994 176.244 685.322 176.543 685.553 176.926C685.784 177.31 685.892 177.757 685.878 178.268H684.621C684.585 177.896 684.426 177.565 684.141 177.278C683.861 176.987 683.445 176.841 682.895 176.841C682.405 176.841 681.954 176.969 681.542 177.224C681.13 177.477 680.784 177.833 680.503 178.295C680.223 178.753 680.033 179.291 679.933 179.909C679.827 180.541 679.836 181.092 679.96 181.56C680.084 182.029 680.31 182.393 680.636 182.652C680.963 182.912 681.375 183.041 681.872 183.041C682.199 183.041 682.504 182.984 682.788 182.871C683.073 182.757 683.325 182.594 683.545 182.381C683.765 182.168 683.939 181.912 684.067 181.614H685.324C685.168 182.097 684.917 182.532 684.573 182.919C684.228 183.302 683.811 183.608 683.321 183.835C682.831 184.059 682.284 184.17 681.68 184.17ZM687.284 176.99L687.476 175.818H694.124L693.932 176.99H691.247L690.097 184H688.84L689.99 176.99H687.284ZM694.594 184L695.957 175.818H699.303C700.176 175.818 700.84 176.019 701.295 176.42C701.749 176.818 701.923 177.342 701.817 177.991C701.732 178.492 701.518 178.877 701.178 179.147C700.837 179.417 700.432 179.6 699.963 179.696C700.254 179.739 700.528 179.845 700.783 180.016C701.043 180.186 701.24 180.42 701.375 180.719C701.513 181.017 701.547 181.379 701.476 181.805C701.405 182.224 701.234 182.599 700.964 182.929C700.698 183.26 700.35 183.521 699.92 183.712C699.494 183.904 699.004 184 698.45 184H694.594ZM695.979 182.849H698.642C699.079 182.849 699.438 182.746 699.718 182.54C699.999 182.331 700.165 182.05 700.219 181.699C700.293 181.273 700.226 180.939 700.016 180.697C699.81 180.456 699.494 180.335 699.068 180.335H696.405L695.979 182.849ZM696.575 179.249H698.727C699.061 179.249 699.358 179.202 699.617 179.11C699.876 179.014 700.086 178.879 700.245 178.705C700.405 178.528 700.503 178.318 700.538 178.077C700.602 177.736 700.505 177.466 700.245 177.267C699.99 177.068 699.612 176.969 699.111 176.969H696.959L696.575 179.249ZM705.403 184.192C704.884 184.192 704.43 184.094 704.039 183.899C703.649 183.7 703.359 183.414 703.171 183.041C702.983 182.665 702.931 182.21 703.017 181.678C703.098 181.209 703.256 180.829 703.491 180.538C703.725 180.243 704.009 180.012 704.343 179.845C704.68 179.675 705.043 179.549 705.43 179.467C705.82 179.382 706.209 179.316 706.596 179.27C707.1 179.206 707.511 179.156 707.827 179.121C708.143 179.085 708.381 179.027 708.54 178.945C708.7 178.863 708.798 178.723 708.833 178.524V178.482C708.919 177.96 708.849 177.553 708.626 177.262C708.402 176.967 708.002 176.82 707.427 176.82C706.831 176.82 706.332 176.951 705.93 177.214C705.529 177.477 705.233 177.757 705.041 178.055L703.933 177.629C704.224 177.132 704.572 176.745 704.977 176.468C705.382 176.187 705.806 175.992 706.25 175.882C706.694 175.768 707.122 175.712 707.534 175.712C707.796 175.712 708.093 175.744 708.423 175.808C708.753 175.868 709.062 175.994 709.35 176.186C709.641 176.377 709.86 176.667 710.005 177.054C710.154 177.441 710.176 177.96 710.069 178.609L709.174 184H707.917L708.109 182.892H708.045C707.931 183.07 707.757 183.26 707.523 183.462C707.292 183.664 706.999 183.837 706.644 183.979C706.293 184.121 705.879 184.192 705.403 184.192ZM705.765 183.062C706.262 183.062 706.697 182.965 707.07 182.77C707.447 182.574 707.748 182.322 707.976 182.013C708.207 181.704 708.35 181.379 708.407 181.038L708.599 179.888C708.535 179.952 708.409 180.01 708.221 180.064C708.033 180.113 707.82 180.158 707.582 180.197C707.347 180.232 707.118 180.264 706.894 180.293C706.674 180.317 706.497 180.339 706.362 180.357C706.028 180.399 705.71 180.468 705.408 180.564C705.11 180.657 704.858 180.797 704.652 180.985C704.449 181.17 704.323 181.422 704.274 181.741C704.199 182.178 704.304 182.509 704.588 182.732C704.872 182.952 705.264 183.062 705.765 183.062Z" fill="#2E7E7C"/>
<path d="M196.5 213L175.282 176.25L217.718 176.25L196.5 213Z" fill="#F4F7FB"/>
<path d="M369.626 66.1377C343.76 64.8707 318.223 72.3716 297.151 87.4256C276.078 102.48 260.704 124.206 253.517 149.086C246.33 173.966 247.751 200.544 257.551 224.515C267.35 248.487 284.954 268.449 307.512 281.17C330.069 293.891 356.261 298.626 381.844 294.607C407.428 290.589 430.906 278.053 448.478 259.029C466.049 240.005 476.686 215.607 478.664 189.785C480.642 163.964 473.847 138.23 459.379 116.751L452.757 121.212C466.221 141.199 472.545 165.146 470.704 189.175C468.863 213.204 458.965 235.909 442.613 253.612C426.261 271.315 404.413 282.981 380.605 286.72C356.798 290.46 332.425 286.054 311.433 274.216C290.442 262.378 274.06 243.802 264.941 221.494C255.822 199.187 254.499 174.454 261.187 151.301C267.875 128.149 282.182 107.931 301.792 93.9219C321.401 79.9129 345.165 72.9328 369.236 74.1118L369.626 66.1377Z" fill="#2E7E7C"/>
<path d="M453 181C453 230.153 413.153 270 364 270C314.847 270 275 230.153 275 181C275 131.847 314.847 92 364 92C413.153 92 453 131.847 453 181Z" fill="white"/>
<path d="M489.283 114.631C489.091 115.767 488.723 116.749 488.18 117.576C487.637 118.4 486.973 119.036 486.188 119.483C485.403 119.927 484.552 120.149 483.636 120.149C482.692 120.149 481.887 119.918 481.223 119.457C480.563 118.991 480.09 118.335 479.806 117.486C479.526 116.634 479.481 115.625 479.673 114.46C479.865 113.324 480.233 112.344 480.776 111.52C481.319 110.692 481.985 110.057 482.773 109.613C483.562 109.165 484.418 108.942 485.341 108.942C486.278 108.942 487.076 109.174 487.733 109.64C488.393 110.101 488.864 110.758 489.144 111.61C489.428 112.459 489.474 113.466 489.283 114.631ZM488.025 114.46C488.182 113.53 488.159 112.747 487.956 112.111C487.754 111.475 487.418 110.994 486.949 110.668C486.481 110.341 485.923 110.178 485.277 110.178C484.602 110.178 483.963 110.35 483.359 110.694C482.756 111.035 482.239 111.538 481.809 112.202C481.38 112.862 481.087 113.672 480.93 114.631C480.774 115.561 480.797 116.344 481 116.98C481.202 117.615 481.538 118.097 482.006 118.423C482.475 118.75 483.033 118.913 483.679 118.913C484.354 118.913 484.993 118.743 485.597 118.402C486.2 118.058 486.717 117.555 487.147 116.895C487.576 116.23 487.869 115.419 488.025 114.46ZM491.142 112.99L491.333 111.818H497.981L497.789 112.99H495.105L493.954 120H492.697L493.848 112.99H491.142ZM504.865 111.818L504.673 112.99H500.88L499.708 120H498.451L499.815 111.818H504.865ZM504.825 123.068L506.71 111.818H507.925L507.712 113.118H507.861C507.974 112.976 508.131 112.795 508.33 112.575C508.532 112.351 508.804 112.152 509.145 111.978C509.489 111.8 509.928 111.712 510.46 111.712C511.149 111.712 511.726 111.884 512.191 112.228C512.657 112.573 512.985 113.061 513.177 113.693C513.369 114.325 513.393 115.071 513.251 115.93C513.109 116.797 512.838 117.548 512.436 118.184C512.035 118.816 511.545 119.306 510.966 119.654C510.387 119.998 509.757 120.17 509.075 120.17C508.55 120.17 508.143 120.083 507.855 119.909C507.568 119.732 507.358 119.531 507.227 119.308C507.096 119.08 506.994 118.892 506.923 118.743H506.817L506.092 123.068H504.825ZM507.264 115.909C507.165 116.527 507.165 117.072 507.264 117.544C507.367 118.013 507.571 118.381 507.877 118.647C508.186 118.91 508.592 119.041 509.097 119.041C509.622 119.041 510.082 118.903 510.476 118.626C510.874 118.345 511.201 117.969 511.456 117.496C511.716 117.021 511.895 116.491 511.994 115.909C512.087 115.334 512.083 114.815 511.984 114.354C511.884 113.888 511.682 113.521 511.376 113.251C511.071 112.978 510.652 112.841 510.119 112.841C509.608 112.841 509.155 112.971 508.761 113.23C508.37 113.485 508.047 113.844 507.792 114.306C507.539 114.764 507.364 115.298 507.264 115.909ZM514.507 123.068C514.294 123.068 514.106 123.05 513.943 123.015C513.783 122.983 513.673 122.951 513.612 122.919L514.124 121.811C514.415 121.889 514.674 121.912 514.901 121.88C515.132 121.852 515.351 121.74 515.557 121.545C515.766 121.353 515.984 121.051 516.212 120.639L516.563 120L514.923 111.818H516.233L517.405 118.359H517.49L520.835 111.818H522.252L517.234 121.183C517 121.619 516.743 121.976 516.462 122.253C516.182 122.53 515.878 122.734 515.551 122.866C515.225 123.001 514.877 123.068 514.507 123.068ZM522.388 117.912H523.73C523.695 118.281 523.814 118.562 524.087 118.754C524.364 118.945 524.75 119.041 525.243 119.041C525.747 119.041 526.195 118.938 526.585 118.732C526.98 118.523 527.214 118.185 527.289 117.72C527.335 117.447 527.308 117.209 527.209 117.006C527.109 116.8 526.946 116.641 526.719 116.527C526.495 116.413 526.216 116.357 525.882 116.357H524.476L524.668 115.227H526.074C526.571 115.227 526.958 115.114 527.235 114.886C527.512 114.659 527.679 114.375 527.736 114.034C527.796 113.668 527.715 113.375 527.491 113.155C527.267 112.931 526.916 112.82 526.436 112.82C525.96 112.82 525.545 112.928 525.19 113.145C524.835 113.358 524.618 113.633 524.54 113.97H523.219C523.308 113.53 523.508 113.141 523.821 112.804C524.133 112.463 524.526 112.196 524.998 112.005C525.474 111.809 525.996 111.712 526.564 111.712C527.139 111.712 527.622 111.813 528.013 112.015C528.404 112.214 528.686 112.486 528.86 112.83C529.038 113.171 529.089 113.558 529.014 113.991C528.94 114.453 528.748 114.826 528.439 115.11C528.134 115.394 527.779 115.597 527.374 115.717L527.353 115.803C527.658 115.824 527.91 115.923 528.109 116.101C528.311 116.275 528.452 116.504 528.53 116.788C528.611 117.069 528.624 117.379 528.567 117.72C528.485 118.217 528.281 118.651 527.954 119.02C527.628 119.386 527.216 119.67 526.719 119.872C526.222 120.071 525.673 120.17 525.073 120.17C524.494 120.17 523.991 120.076 523.565 119.888C523.143 119.696 522.825 119.432 522.612 119.094C522.402 118.754 522.328 118.359 522.388 117.912ZM529.96 120L531.324 111.818H532.581L531.984 115.376H532.815L536.352 111.818H537.971L534.008 115.76L536.65 120H535.031L532.922 116.548H531.792L531.217 120H529.96ZM540.403 120.192C539.884 120.192 539.43 120.094 539.039 119.899C538.649 119.7 538.359 119.414 538.171 119.041C537.983 118.665 537.931 118.21 538.017 117.678C538.098 117.209 538.256 116.829 538.491 116.538C538.725 116.243 539.009 116.012 539.343 115.845C539.68 115.675 540.043 115.549 540.43 115.467C540.82 115.382 541.209 115.316 541.596 115.27C542.1 115.206 542.511 115.156 542.827 115.121C543.143 115.085 543.381 115.027 543.54 114.945C543.7 114.863 543.798 114.723 543.833 114.524V114.482C543.919 113.96 543.849 113.553 543.626 113.262C543.402 112.967 543.002 112.82 542.427 112.82C541.831 112.82 541.332 112.951 540.93 113.214C540.529 113.477 540.233 113.757 540.041 114.055L538.933 113.629C539.224 113.132 539.572 112.745 539.977 112.468C540.382 112.187 540.806 111.992 541.25 111.882C541.694 111.768 542.122 111.712 542.534 111.712C542.796 111.712 543.093 111.744 543.423 111.808C543.753 111.868 544.062 111.994 544.35 112.186C544.641 112.377 544.86 112.667 545.005 113.054C545.154 113.441 545.176 113.96 545.069 114.609L544.174 120H542.917L543.109 118.892H543.045C542.931 119.07 542.757 119.26 542.523 119.462C542.292 119.664 541.999 119.837 541.644 119.979C541.293 120.121 540.879 120.192 540.403 120.192ZM540.765 119.062C541.262 119.062 541.697 118.965 542.07 118.77C542.447 118.574 542.748 118.322 542.976 118.013C543.207 117.704 543.35 117.379 543.407 117.038L543.599 115.888C543.535 115.952 543.409 116.01 543.221 116.064C543.033 116.113 542.82 116.158 542.582 116.197C542.347 116.232 542.118 116.264 541.894 116.293C541.674 116.317 541.497 116.339 541.362 116.357C541.028 116.399 540.71 116.468 540.408 116.564C540.11 116.657 539.858 116.797 539.652 116.985C539.449 117.17 539.323 117.422 539.274 117.741C539.199 118.178 539.304 118.509 539.588 118.732C539.872 118.952 540.264 119.062 540.765 119.062Z" fill="#2E7E7C"/>
<circle cx="453" cy="113" r="12.5" fill="#F4F7FB" stroke="#2E7E7C"/>
<path d="M449.365 118L449.536 117.041L453.776 113.099C454.273 112.638 454.687 112.235 455.017 111.89C455.351 111.546 455.61 111.223 455.795 110.921C455.983 110.619 456.105 110.301 456.162 109.967C456.226 109.584 456.192 109.252 456.061 108.971C455.93 108.691 455.722 108.474 455.438 108.321C455.154 108.169 454.813 108.092 454.415 108.092C453.996 108.092 453.614 108.179 453.27 108.353C452.925 108.524 452.64 108.765 452.412 109.078C452.185 109.387 452.036 109.747 451.965 110.159H450.708C450.814 109.52 451.058 108.959 451.438 108.476C451.821 107.993 452.292 107.616 452.849 107.347C453.41 107.077 454.01 106.942 454.65 106.942C455.289 106.942 455.83 107.077 456.274 107.347C456.718 107.616 457.039 107.98 457.238 108.439C457.437 108.897 457.49 109.406 457.398 109.967C457.327 110.372 457.187 110.765 456.977 111.145C456.768 111.525 456.446 111.949 456.013 112.418C455.583 112.883 455.001 113.451 454.266 114.122L451.39 116.743L451.368 116.828H456.439L456.248 118H449.365Z" fill="#2E7E7C"/>
<path d="M350.133 105.5H348.833C348.819 105.12 348.741 104.786 348.599 104.499C348.457 104.211 348.265 103.969 348.024 103.774C347.786 103.575 347.512 103.426 347.203 103.327C346.894 103.227 346.564 103.178 346.212 103.178C345.538 103.178 344.899 103.35 344.295 103.694C343.691 104.035 343.174 104.538 342.745 105.202C342.315 105.862 342.022 106.672 341.866 107.631C341.71 108.561 341.733 109.344 341.935 109.98C342.138 110.615 342.473 111.097 342.942 111.423C343.411 111.75 343.968 111.913 344.614 111.913C344.987 111.913 345.353 111.864 345.712 111.764C346.074 111.665 346.411 111.517 346.724 111.322C347.04 111.123 347.32 110.88 347.565 110.592C347.814 110.301 348.009 109.967 348.151 109.591H349.472C349.277 110.148 349.013 110.647 348.679 111.088C348.348 111.528 347.967 111.903 347.533 112.212C347.1 112.517 346.633 112.75 346.133 112.909C345.632 113.069 345.112 113.149 344.572 113.149C343.627 113.149 342.823 112.918 342.159 112.457C341.498 111.991 341.026 111.335 340.742 110.486C340.461 109.634 340.417 108.625 340.609 107.46C340.801 106.324 341.168 105.344 341.711 104.52C342.255 103.692 342.921 103.057 343.709 102.613C344.497 102.165 345.353 101.942 346.276 101.942C346.83 101.942 347.34 102.022 347.805 102.181C348.27 102.341 348.675 102.576 349.02 102.885C349.364 103.19 349.632 103.563 349.824 104.003C350.019 104.44 350.122 104.939 350.133 105.5ZM351.564 105.99L351.756 104.818H358.404L358.212 105.99H355.528L354.377 113H353.12L354.27 105.99H351.564ZM360.836 113.192C360.317 113.192 359.863 113.094 359.472 112.899C359.081 112.7 358.792 112.414 358.604 112.041C358.415 111.665 358.364 111.21 358.449 110.678C358.531 110.209 358.689 109.829 358.923 109.538C359.158 109.243 359.442 109.012 359.776 108.845C360.113 108.675 360.475 108.549 360.862 108.467C361.253 108.382 361.642 108.316 362.029 108.27C362.533 108.206 362.943 108.156 363.259 108.121C363.575 108.085 363.813 108.027 363.973 107.945C364.133 107.863 364.23 107.723 364.266 107.524V107.482C364.351 106.96 364.282 106.553 364.058 106.262C363.835 105.967 363.435 105.82 362.86 105.82C362.263 105.82 361.764 105.951 361.363 106.214C360.962 106.477 360.665 106.757 360.473 107.055L359.365 106.629C359.657 106.132 360.005 105.745 360.409 105.468C360.814 105.187 361.239 104.992 361.683 104.882C362.126 104.768 362.554 104.712 362.966 104.712C363.229 104.712 363.526 104.744 363.856 104.808C364.186 104.868 364.495 104.994 364.783 105.186C365.074 105.377 365.292 105.667 365.438 106.054C365.587 106.441 365.608 106.96 365.502 107.609L364.607 113H363.35L363.542 111.892H363.478C363.364 112.07 363.19 112.26 362.956 112.462C362.725 112.664 362.432 112.837 362.077 112.979C361.725 113.121 361.311 113.192 360.836 113.192ZM361.198 112.062C361.695 112.062 362.13 111.965 362.503 111.77C362.879 111.574 363.181 111.322 363.408 111.013C363.639 110.704 363.783 110.379 363.84 110.038L364.032 108.888C363.968 108.952 363.842 109.01 363.653 109.064C363.465 109.113 363.252 109.158 363.014 109.197C362.78 109.232 362.551 109.264 362.327 109.293C362.107 109.317 361.929 109.339 361.794 109.357C361.461 109.399 361.143 109.468 360.841 109.564C360.543 109.657 360.29 109.797 360.085 109.985C359.882 110.17 359.756 110.422 359.706 110.741C359.632 111.178 359.737 111.509 360.021 111.732C360.305 111.952 360.697 112.062 361.198 112.062ZM366.39 116.068L368.276 104.818H369.49L369.277 106.118H369.426C369.54 105.976 369.696 105.795 369.895 105.575C370.097 105.351 370.369 105.152 370.71 104.978C371.054 104.8 371.493 104.712 372.026 104.712C372.715 104.712 373.292 104.884 373.757 105.228C374.222 105.573 374.551 106.061 374.742 106.693C374.934 107.325 374.959 108.071 374.817 108.93C374.675 109.797 374.403 110.548 374.002 111.184C373.601 111.816 373.111 112.306 372.532 112.654C371.953 112.998 371.323 113.17 370.641 113.17C370.115 113.17 369.709 113.083 369.421 112.909C369.133 112.732 368.924 112.531 368.792 112.308C368.661 112.08 368.56 111.892 368.489 111.743H368.382L367.658 116.068H366.39ZM368.83 108.909C368.73 109.527 368.73 110.072 368.83 110.544C368.933 111.013 369.137 111.381 369.442 111.647C369.751 111.91 370.158 112.041 370.662 112.041C371.188 112.041 371.647 111.903 372.042 111.626C372.439 111.345 372.766 110.969 373.022 110.496C373.281 110.021 373.46 109.491 373.56 108.909C373.652 108.334 373.649 107.815 373.549 107.354C373.45 106.888 373.247 106.521 372.942 106.251C372.636 105.978 372.217 105.841 371.685 105.841C371.173 105.841 370.721 105.971 370.326 106.23C369.936 106.485 369.613 106.844 369.357 107.306C369.105 107.764 368.929 108.298 368.83 108.909ZM376.159 105.99L376.351 104.818H382.999L382.807 105.99H380.122L378.972 113H377.715L378.865 105.99H376.159Z" fill="#2E7E7C"/>
<circle cx="363" cy="70" r="12.5" fill="#F4F7FB" stroke="#2E7E7C"/>
<path d="M365.121 64.0909L363.31 75H361.989L363.566 65.4759H363.502L360.54 67.2443L360.775 65.902L363.8 64.0909H365.121Z" fill="#2E7E7C"/>
<path d="M85.3422 63.1491C84.6319 63.1491 84.0158 63.0302 83.4938 62.7923C82.9753 62.5508 82.5882 62.2152 82.3326 61.7855C82.0769 61.3523 81.9863 60.848 82.0609 60.2727H83.3819C83.35 60.6207 83.4103 60.9226 83.563 61.1783C83.7193 61.4339 83.9501 61.631 84.2555 61.7695C84.5645 61.908 84.9338 61.9773 85.3635 61.9773C85.8216 61.9773 86.2512 61.8974 86.6525 61.7376C87.0574 61.5778 87.3965 61.3469 87.6699 61.0451C87.9434 60.7397 88.112 60.3757 88.176 59.9531C88.2328 59.5732 88.1902 59.2358 88.0481 58.9411C87.9061 58.6463 87.661 58.4155 87.313 58.2486C86.9686 58.0781 86.5176 57.9929 85.96 57.9929H85.0652L85.2569 56.821H86.0879C86.5211 56.821 86.9189 56.7393 87.2811 56.576C87.6433 56.4126 87.9451 56.1836 88.1866 55.8888C88.4281 55.5906 88.5808 55.2408 88.6447 54.8395C88.7051 54.4879 88.6802 54.1825 88.5701 53.9233C88.4636 53.6605 88.2789 53.4563 88.0162 53.3107C87.7569 53.1651 87.4267 53.0923 87.0254 53.0923C86.6419 53.0923 86.2654 53.1616 85.8961 53.3001C85.5304 53.435 85.2179 53.6321 84.9586 53.8913C84.6994 54.147 84.536 54.456 84.4686 54.8182H83.1902C83.3002 54.25 83.5471 53.7511 83.9306 53.3214C84.3141 52.8881 84.7811 52.5508 85.3315 52.3093C85.8855 52.0643 86.4714 51.9418 87.0893 51.9418C87.7747 51.9418 88.3393 52.0838 88.7832 52.3679C89.2306 52.6484 89.5502 53.0178 89.742 53.4759C89.9338 53.9304 89.987 54.4205 89.9018 54.946C89.8059 55.5462 89.5591 56.054 89.1614 56.4695C88.7637 56.8849 88.2789 57.1797 87.7072 57.3537V57.4176C88.3784 57.5348 88.8649 57.8438 89.1667 58.3445C89.4721 58.8416 89.568 59.4347 89.4544 60.1236C89.3549 60.7415 89.1152 61.2777 88.7353 61.7322C88.3553 62.1832 87.8741 62.533 87.2917 62.7816C86.7093 63.0266 86.0595 63.1491 85.3422 63.1491ZM93.5719 63.1918C93.0534 63.1918 92.5989 63.0941 92.2083 62.8988C91.8176 62.6999 91.5282 62.4141 91.34 62.0412C91.1518 61.6648 91.1003 61.2102 91.1855 60.6776C91.2672 60.2088 91.4252 59.8288 91.6596 59.5376C91.894 59.2429 92.1781 59.0121 92.5119 58.8452C92.8493 58.6747 93.2115 58.5487 93.5985 58.467C93.9892 58.3817 94.378 58.3161 94.7651 58.2699C95.2694 58.206 95.6795 58.1562 95.9956 58.1207C96.3116 58.0852 96.5495 58.0266 96.7093 57.945C96.8691 57.8633 96.9668 57.723 97.0023 57.5241V57.4815C97.0875 56.9595 97.0183 56.5529 96.7946 56.2617C96.5708 55.967 96.1713 55.8196 95.5961 55.8196C94.9995 55.8196 94.5005 55.951 94.0993 56.2138C93.698 56.4766 93.4015 56.7571 93.2097 57.0554L92.1017 56.6293C92.3929 56.1321 92.7409 55.745 93.1458 55.468C93.5506 55.1875 93.975 54.9922 94.4189 54.8821C94.8627 54.7685 95.2907 54.7116 95.7026 54.7116C95.9654 54.7116 96.2619 54.7436 96.5922 54.8075C96.9224 54.8679 97.2314 54.994 97.519 55.1857C97.8102 55.3775 98.0286 55.6669 98.1742 56.054C98.3233 56.4411 98.3446 56.9595 98.2381 57.6094L97.3432 63H96.0861L96.2779 61.892H96.214C96.1003 62.0696 95.9263 62.2596 95.6919 62.462C95.4611 62.6644 95.1681 62.8366 94.813 62.9787C94.4615 63.1207 94.0478 63.1918 93.5719 63.1918ZM93.9341 62.0625C94.4313 62.0625 94.8663 61.9648 95.2392 61.7695C95.6156 61.5742 95.9174 61.3221 96.1447 61.0131C96.3755 60.7042 96.5194 60.3793 96.5762 60.0384L96.7679 58.8878C96.704 58.9517 96.5779 59.0103 96.3897 59.0636C96.2015 59.1133 95.9885 59.1577 95.7505 59.1967C95.5162 59.2322 95.2871 59.2642 95.0634 59.2926C94.8432 59.3175 94.6657 59.3388 94.5307 59.3565C94.1969 59.3991 93.8791 59.4684 93.5772 59.5643C93.2789 59.6566 93.0268 59.7969 92.8208 59.9851C92.6184 60.1697 92.4924 60.4219 92.4426 60.7415C92.3681 61.1783 92.4728 61.5085 92.7569 61.7322C93.041 61.9524 93.4334 62.0625 93.9341 62.0625ZM99.6377 63L101.001 54.8182H102.258L101.662 58.3764H102.493L106.03 54.8182H107.649L103.686 58.7599L106.328 63H104.709L102.599 59.5483H101.47L100.895 63H99.6377ZM110.081 63.1918C109.562 63.1918 109.108 63.0941 108.717 62.8988C108.326 62.6999 108.037 62.4141 107.849 62.0412C107.661 61.6648 107.609 61.2102 107.694 60.6776C107.776 60.2088 107.934 59.8288 108.168 59.5376C108.403 59.2429 108.687 59.0121 109.021 58.8452C109.358 58.6747 109.72 58.5487 110.107 58.467C110.498 58.3817 110.887 58.3161 111.274 58.2699C111.778 58.206 112.188 58.1562 112.504 58.1207C112.82 58.0852 113.058 58.0266 113.218 57.945C113.378 57.8633 113.476 57.723 113.511 57.5241V57.4815C113.596 56.9595 113.527 56.5529 113.303 56.2617C113.08 55.967 112.68 55.8196 112.105 55.8196C111.508 55.8196 111.009 55.951 110.608 56.2138C110.207 56.4766 109.91 56.7571 109.718 57.0554L108.611 56.6293C108.902 56.1321 109.25 55.745 109.655 55.468C110.059 55.1875 110.484 54.9922 110.928 54.8821C111.372 54.7685 111.799 54.7116 112.211 54.7116C112.474 54.7116 112.771 54.7436 113.101 54.8075C113.431 54.8679 113.74 54.994 114.028 55.1857C114.319 55.3775 114.537 55.6669 114.683 56.054C114.832 56.4411 114.853 56.9595 114.747 57.6094L113.852 63H112.595L112.787 61.892H112.723C112.609 62.0696 112.435 62.2596 112.201 62.462C111.97 62.6644 111.677 62.8366 111.322 62.9787C110.97 63.1207 110.557 63.1918 110.081 63.1918ZM110.443 62.0625C110.94 62.0625 111.375 61.9648 111.748 61.7695C112.124 61.5742 112.426 61.3221 112.653 61.0131C112.884 60.7042 113.028 60.3793 113.085 60.0384L113.277 58.8878C113.213 58.9517 113.087 59.0103 112.899 59.0636C112.71 59.1133 112.497 59.1577 112.259 59.1967C112.025 59.2322 111.796 59.2642 111.572 59.2926C111.352 59.3175 111.174 59.3388 111.04 59.3565C110.706 59.3991 110.388 59.4684 110.086 59.5643C109.788 59.6566 109.536 59.7969 109.33 59.9851C109.127 60.1697 109.001 60.4219 108.951 60.7415C108.877 61.1783 108.982 61.5085 109.266 61.7322C109.55 61.9524 109.942 62.0625 110.443 62.0625ZM115.987 60.9119H117.329C117.294 61.2812 117.412 61.5618 117.686 61.7536C117.963 61.9453 118.348 62.0412 118.842 62.0412C119.346 62.0412 119.794 61.9382 120.184 61.7322C120.578 61.5227 120.813 61.1854 120.887 60.7202C120.933 60.4467 120.907 60.2088 120.807 60.0064C120.708 59.8004 120.545 59.6406 120.317 59.527C120.094 59.4134 119.815 59.3565 119.481 59.3565H118.075L118.267 58.2273H119.673C120.17 58.2273 120.557 58.1136 120.834 57.8864C121.111 57.6591 121.278 57.375 121.335 57.0341C121.395 56.6683 121.313 56.3754 121.09 56.1552C120.866 55.9315 120.514 55.8196 120.035 55.8196C119.559 55.8196 119.144 55.9279 118.789 56.1445C118.433 56.3576 118.217 56.6328 118.139 56.9702H116.818C116.906 56.5298 117.107 56.141 117.42 55.8036C117.732 55.4627 118.124 55.1964 118.597 55.0046C119.073 54.8093 119.595 54.7116 120.163 54.7116C120.738 54.7116 121.221 54.8129 121.612 55.0153C122.002 55.2141 122.285 55.4858 122.459 55.8303C122.636 56.1712 122.688 56.5582 122.613 56.9915C122.539 57.4531 122.347 57.826 122.038 58.1101C121.732 58.3942 121.377 58.5966 120.972 58.7173L120.951 58.8026C121.257 58.8239 121.509 58.9233 121.708 59.1009C121.91 59.2749 122.05 59.5039 122.128 59.788C122.21 60.0685 122.222 60.3793 122.166 60.7202C122.084 61.2173 121.88 61.6506 121.553 62.0199C121.226 62.3857 120.814 62.6697 120.317 62.8722C119.82 63.071 119.271 63.1705 118.671 63.1705C118.093 63.1705 117.59 63.0763 117.164 62.8881C116.741 62.6964 116.423 62.4318 116.21 62.0945C116.001 61.7536 115.926 61.3594 115.987 60.9119ZM129.141 57.5455C129.365 56.2031 129.743 54.9691 130.276 53.8434C130.812 52.7141 131.485 51.6754 132.294 50.7273H133.402C133.09 51.0788 132.779 51.5121 132.47 52.027C132.165 52.5384 131.877 53.1012 131.607 53.7156C131.341 54.3263 131.107 54.9585 130.904 55.6119C130.702 56.2653 130.547 56.9098 130.441 57.5455C130.299 58.3906 130.237 59.2482 130.254 60.1183C130.276 60.9883 130.363 61.7962 130.515 62.5419C130.672 63.2876 130.881 63.8949 131.144 64.3636H130.036C129.546 63.4155 129.217 62.3786 129.05 61.2528C128.887 60.1236 128.917 58.8878 129.141 57.5455ZM139.796 63L136.877 57.9929H135.534L134.703 63H133.382L135.193 52.0909H136.514L135.726 56.821H136.301L141.458 52.0909H143.034L137.835 56.8849L141.372 63H139.796ZM145.686 63.1705C144.933 63.1705 144.303 62.9911 143.795 62.6325C143.287 62.2738 142.928 61.7713 142.719 61.125C142.513 60.4787 142.479 59.7259 142.618 58.8665C142.752 58.0284 143.021 57.2987 143.422 56.6772C143.827 56.0522 144.329 55.5692 144.929 55.2283C145.533 54.8839 146.197 54.7116 146.922 54.7116C147.674 54.7116 148.303 54.8928 148.807 55.255C149.315 55.6136 149.674 56.1179 149.883 56.7678C150.093 57.4141 150.128 58.1705 149.99 59.0369C149.855 59.8679 149.583 60.5941 149.175 61.2156C148.77 61.8335 148.267 62.3146 147.667 62.6591C147.071 63 146.41 63.1705 145.686 63.1705ZM145.707 62.0412C146.282 62.0412 146.781 61.8938 147.204 61.5991C147.63 61.3043 147.974 60.9155 148.237 60.4325C148.504 59.9496 148.683 59.4276 148.775 58.8665C148.86 58.3338 148.857 57.8384 148.765 57.3803C148.672 56.9187 148.475 56.5476 148.173 56.267C147.871 55.983 147.447 55.8409 146.9 55.8409C146.325 55.8409 145.822 55.9901 145.393 56.2884C144.967 56.5866 144.622 56.979 144.359 57.4656C144.097 57.9521 143.921 58.4759 143.832 59.0369C143.747 59.5696 143.749 60.065 143.837 60.5231C143.93 60.9776 144.127 61.3452 144.429 61.6257C144.734 61.9027 145.16 62.0412 145.707 62.0412ZM157.502 58.3338L157.31 59.5057H152.793L152.985 58.3338H157.502ZM153.88 54.8182L152.516 63H151.259L152.622 54.8182H153.88ZM159.057 54.8182L157.693 63H156.436L157.8 54.8182H159.057ZM160.048 55.9901L160.24 54.8182H166.887L166.696 55.9901H164.011L162.86 63H161.603L162.754 55.9901H160.048ZM166.846 66.0682L168.732 54.8182H169.946L169.733 56.1179H169.882C169.996 55.9759 170.152 55.7947 170.351 55.5746C170.553 55.3509 170.825 55.152 171.166 54.978C171.51 54.8004 171.949 54.7116 172.482 54.7116C173.171 54.7116 173.748 54.8839 174.213 55.2283C174.678 55.5728 175.007 56.0611 175.198 56.6932C175.39 57.3253 175.415 58.071 175.273 58.9304C175.131 59.7969 174.859 60.5479 174.458 61.1836C174.057 61.8157 173.567 62.3058 172.988 62.6538C172.409 62.9982 171.779 63.1705 171.097 63.1705C170.571 63.1705 170.165 63.0835 169.877 62.9094C169.589 62.7319 169.38 62.5312 169.248 62.3075C169.117 62.0803 169.016 61.892 168.945 61.7429H168.838L168.114 66.0682H166.846ZM169.286 58.9091C169.186 59.527 169.186 60.0721 169.286 60.5444C169.389 61.0131 169.593 61.3807 169.898 61.647C170.207 61.9098 170.614 62.0412 171.118 62.0412C171.644 62.0412 172.104 61.9027 172.498 61.6257C172.895 61.3452 173.222 60.9687 173.478 60.4964C173.737 60.0206 173.916 59.4915 174.016 58.9091C174.108 58.3338 174.105 57.8153 174.005 57.3537C173.906 56.8885 173.703 56.521 173.398 56.2511C173.093 55.9776 172.673 55.8409 172.141 55.8409C171.629 55.8409 171.177 55.9705 170.782 56.2298C170.392 56.4854 170.069 56.8441 169.813 57.3058C169.561 57.7638 169.385 58.2983 169.286 58.9091ZM178.899 63.1918C178.381 63.1918 177.926 63.0941 177.535 62.8988C177.145 62.6999 176.855 62.4141 176.667 62.0412C176.479 61.6648 176.427 61.2102 176.513 60.6776C176.594 60.2088 176.752 59.8288 176.987 59.5376C177.221 59.2429 177.505 59.0121 177.839 58.8452C178.176 58.6747 178.539 58.5487 178.926 58.467C179.316 58.3817 179.705 58.3161 180.092 58.2699C180.597 58.206 181.007 58.1562 181.323 58.1207C181.639 58.0852 181.877 58.0266 182.036 57.945C182.196 57.8633 182.294 57.723 182.329 57.5241V57.4815C182.415 56.9595 182.345 56.5529 182.122 56.2617C181.898 55.967 181.498 55.8196 180.923 55.8196C180.327 55.8196 179.828 55.951 179.426 56.2138C179.025 56.4766 178.729 56.7571 178.537 57.0554L177.429 56.6293C177.72 56.1321 178.068 55.745 178.473 55.468C178.878 55.1875 179.302 54.9922 179.746 54.8821C180.19 54.7685 180.618 54.7116 181.03 54.7116C181.293 54.7116 181.589 54.7436 181.919 54.8075C182.25 54.8679 182.559 54.994 182.846 55.1857C183.137 55.3775 183.356 55.6669 183.501 56.054C183.65 56.4411 183.672 56.9595 183.565 57.6094L182.67 63H181.413L181.605 61.892H181.541C181.427 62.0696 181.253 62.2596 181.019 62.462C180.788 62.6644 180.495 62.8366 180.14 62.9787C179.789 63.1207 179.375 63.1918 178.899 63.1918ZM179.261 62.0625C179.758 62.0625 180.193 61.9648 180.566 61.7695C180.943 61.5742 181.245 61.3221 181.472 61.0131C181.703 60.7042 181.847 60.3793 181.903 60.0384L182.095 58.8878C182.031 58.9517 181.905 59.0103 181.717 59.0636C181.529 59.1133 181.316 59.1577 181.078 59.1967C180.843 59.2322 180.614 59.2642 180.391 59.2926C180.17 59.3175 179.993 59.3388 179.858 59.3565C179.524 59.3991 179.206 59.4684 178.904 59.5643C178.606 59.6566 178.354 59.7969 178.148 59.9851C177.946 60.1697 177.82 60.4219 177.77 60.7415C177.695 61.1783 177.8 61.5085 178.084 61.7322C178.368 61.9524 178.761 62.0625 179.261 62.0625ZM184.965 63L186.328 54.8182H187.586L186.989 58.3764H187.82L191.357 54.8182H192.976L189.013 58.7599L191.655 63H190.036L187.926 59.5483H186.797L186.222 63H184.965ZM193.725 55.9901L193.916 54.8182H200.564L200.372 55.9901H197.688L196.537 63H195.28L196.431 55.9901H193.725ZM204.486 58.3977C204.262 59.7401 203.882 60.9759 203.346 62.1051C202.813 63.2308 202.142 64.2678 201.332 65.2159H200.225C200.541 64.8643 200.851 64.4311 201.157 63.9162C201.462 63.4048 201.748 62.8437 202.014 62.233C202.284 61.6186 202.52 60.9847 202.723 60.3313C202.925 59.6744 203.08 59.0298 203.186 58.3977C203.328 57.5526 203.389 56.695 203.367 55.8249C203.35 54.9549 203.263 54.147 203.106 53.4013C202.954 52.6555 202.746 52.0483 202.483 51.5795H203.591C204.081 52.5277 204.408 53.5664 204.571 54.6957C204.738 55.8214 204.71 57.0554 204.486 58.3977Z" fill="#2E7E7C"/>
<circle cx="252" cy="306" r="27" fill="#F4F7FB"/>
<circle cx="252" cy="306" r="18" fill="#2E7E7C"/>
<path d="M246.537 312L246.741 310.849L251.83 306.119C252.426 305.565 252.923 305.082 253.319 304.668C253.719 304.255 254.031 303.867 254.252 303.505C254.478 303.143 254.625 302.761 254.693 302.361C254.77 301.901 254.729 301.502 254.572 301.165C254.414 300.829 254.165 300.569 253.824 300.386C253.483 300.202 253.074 300.111 252.597 300.111C252.094 300.111 251.636 300.215 251.222 300.424C250.809 300.629 250.466 300.918 250.193 301.293C249.92 301.664 249.741 302.097 249.656 302.591H248.148C248.276 301.824 248.567 301.151 249.023 300.571C249.484 299.991 250.048 299.54 250.717 299.216C251.391 298.892 252.111 298.73 252.878 298.73C253.645 298.73 254.295 298.892 254.827 299.216C255.36 299.54 255.746 299.977 255.984 300.526C256.223 301.076 256.287 301.688 256.176 302.361C256.091 302.847 255.923 303.317 255.671 303.773C255.42 304.229 255.034 304.739 254.514 305.301C253.999 305.859 253.3 306.541 252.418 307.347L248.966 310.491L248.94 310.594H255.026L254.795 312H246.537Z" fill="white"/>
<circle cx="531" cy="179" r="27" fill="#F4F7FB"/>
<circle cx="531" cy="179" r="18" fill="#2E7E7C"/>
<path d="M530.011 185.179C529.159 185.179 528.42 185.036 527.793 184.751C527.171 184.461 526.707 184.058 526.4 183.543C526.093 183.023 525.984 182.418 526.074 181.727H527.659C527.621 182.145 527.693 182.507 527.876 182.814C528.064 183.121 528.341 183.357 528.707 183.523C529.078 183.69 529.521 183.773 530.037 183.773C530.587 183.773 531.102 183.677 531.584 183.485C532.07 183.293 532.477 183.016 532.805 182.654C533.133 182.288 533.335 181.851 533.412 181.344C533.48 180.888 533.429 180.483 533.259 180.129C533.088 179.776 532.794 179.499 532.376 179.298C531.963 179.094 531.422 178.991 530.753 178.991H529.679L529.909 177.585H530.906C531.426 177.585 531.903 177.487 532.338 177.291C532.773 177.095 533.135 176.82 533.425 176.467C533.714 176.109 533.898 175.689 533.974 175.207C534.047 174.786 534.017 174.419 533.885 174.108C533.757 173.793 533.536 173.548 533.22 173.373C532.909 173.198 532.513 173.111 532.031 173.111C531.571 173.111 531.119 173.194 530.676 173.36C530.237 173.522 529.862 173.759 529.551 174.07C529.24 174.376 529.044 174.747 528.963 175.182H527.429C527.561 174.5 527.857 173.901 528.317 173.386C528.778 172.866 529.338 172.461 529.999 172.171C530.663 171.877 531.366 171.73 532.108 171.73C532.93 171.73 533.608 171.901 534.141 172.241C534.678 172.578 535.061 173.021 535.291 173.571C535.521 174.116 535.585 174.705 535.483 175.335C535.368 176.055 535.072 176.665 534.594 177.163C534.117 177.662 533.536 178.016 532.849 178.224V178.301C533.655 178.442 534.239 178.812 534.601 179.413C534.967 180.01 535.082 180.722 534.946 181.548C534.827 182.29 534.539 182.933 534.083 183.479C533.627 184.02 533.05 184.44 532.351 184.738C531.652 185.032 530.872 185.179 530.011 185.179Z" fill="white"/>
<circle cx="240" cy="66" r="27" fill="#F4F7FB"/>
<circle cx="240" cy="66" r="18" fill="#2E7E7C"/>
<path d="M242.312 58.9091L240.139 72H238.554L240.446 60.571H240.369L236.815 62.6932L237.097 61.0824L240.727 58.9091H242.312Z" fill="white"/>
<path d="M397 348.5L360.25 369.718L360.25 327.282L397 348.5Z" fill="#F4F7FB"/>
<path d="M149.312 0.909091L147.139 14H145.554L147.446 2.57102H147.369L143.815 4.69318L144.097 3.08239L147.727 0.909091H149.312Z" fill="white"/>
<path d="M340.465 162.408C339.774 162.601 338.958 163.179 338.551 163.745C337.837 164.719 337.86 164.346 337.894 174.552L337.928 183.83L338.233 184.408C338.562 185.042 339.253 185.722 339.853 186.005L340.239 186.186L340.273 189.573L340.306 192.972L340.68 193.3C341.201 193.765 341.802 193.753 342.278 193.278L342.629 192.926V189.562V186.186L343.071 185.994C344.011 185.563 344.792 184.51 344.996 183.388C345.166 182.493 345.166 166.147 345.008 165.297C344.679 163.587 343.342 162.386 341.666 162.295C341.292 162.272 340.748 162.329 340.465 162.408Z" fill="#2E7E7C"/>
<path d="M374.836 162.154C374.7 162.2 374.485 162.392 374.349 162.562C374.122 162.845 374.111 162.993 374.111 164.884V166.901L373.635 166.957C373.363 166.991 372.31 167.105 371.279 167.195C370.248 167.297 366.555 167.705 363.066 168.113C352.95 169.291 351.273 169.416 349.812 169.132C348.498 168.872 348.317 168.895 347.875 169.336L347.479 169.733L347.513 174.434L347.547 179.146L347.852 179.452C348.249 179.849 348.702 179.86 350.288 179.509C353.245 178.863 357.051 178.897 360.529 179.6C364.72 180.449 367.994 182.194 368.9 184.086C369.297 184.912 369.319 185.955 368.979 187.314C368.402 189.534 367.45 191.279 366.068 192.638L365.298 193.397L364.074 193.443C362.67 193.488 362.307 193.646 362.103 194.281C361.922 194.813 362.126 195.38 362.59 195.674L362.953 195.912H349.45C336.388 195.912 335.924 195.923 335.369 196.127C334.587 196.422 334.077 196.841 333.613 197.532C333.08 198.359 332.956 199.061 333.013 201.066C333.047 202.618 333.069 202.822 333.341 203.4C333.715 204.204 334.327 204.805 335.131 205.19L335.765 205.484H361.99H388.214L388.849 205.19C389.653 204.805 390.265 204.204 390.639 203.4C390.911 202.822 390.933 202.618 390.967 201.066C391.024 199.061 390.899 198.359 390.367 197.532C389.551 196.286 388.679 195.912 386.595 195.912H385.156L385.518 195.686C385.96 195.425 386.119 195.142 386.119 194.632C386.119 193.794 385.462 193.42 384 193.42H383.196L382.902 192.65C382.199 190.814 381.486 187.495 381.406 185.604C381.35 184.301 381.35 184.301 381.803 183.055C383.23 179.101 383.468 178.308 383.661 176.824C383.683 176.632 383.717 177.368 383.729 178.444C383.74 180.551 383.819 180.902 384.329 181.152C384.884 181.435 385.382 181.367 385.79 180.97L386.119 180.642V174.128V167.614L385.768 167.263C385.292 166.787 384.691 166.776 384.17 167.241L383.796 167.569L383.74 171.013C383.706 172.893 383.661 174.287 383.649 174.094C383.604 173.426 383.117 171.953 382.675 171.16C382.392 170.65 381.882 170.016 381.248 169.393C380.443 168.589 380.081 168.328 379.197 167.886C378.62 167.592 377.759 167.275 377.317 167.173L376.49 166.98V165.009C376.49 162.845 376.411 162.528 375.81 162.211C375.448 162.018 375.198 162.007 374.836 162.154Z" fill="#2E7E7C"/>
</svg>
