<svg width="774" height="374" viewBox="0 0 774 374" fill="none" xmlns="http://www.w3.org/2000/svg">
<circle cx="364" cy="181" r="98" fill="white" fill-opacity="0.67"/>
<path d="M335.739 181.631C335.547 182.767 335.179 183.749 334.636 184.576C334.093 185.4 333.429 186.036 332.644 186.483C331.859 186.927 331.009 187.149 330.092 187.149C329.148 187.149 328.343 186.918 327.679 186.457C327.019 185.991 326.547 185.335 326.262 184.486C325.982 183.634 325.938 182.625 326.129 181.46C326.321 180.324 326.689 179.344 327.232 178.52C327.775 177.692 328.441 177.057 329.229 176.613C330.018 176.165 330.874 175.942 331.797 175.942C332.734 175.942 333.532 176.174 334.189 176.64C334.849 177.101 335.32 177.758 335.6 178.61C335.884 179.459 335.93 180.466 335.739 181.631ZM334.482 181.46C334.638 180.53 334.615 179.747 334.412 179.111C334.21 178.475 333.874 177.994 333.406 177.668C332.937 177.341 332.379 177.178 331.733 177.178C331.058 177.178 330.419 177.35 329.815 177.694C329.212 178.035 328.695 178.538 328.265 179.202C327.836 179.862 327.543 180.672 327.386 181.631C327.23 182.561 327.253 183.344 327.456 183.98C327.658 184.615 327.994 185.097 328.462 185.423C328.931 185.75 329.489 185.913 330.135 185.913C330.81 185.913 331.449 185.743 332.053 185.402C332.656 185.058 333.173 184.555 333.603 183.895C334.032 183.23 334.325 182.419 334.482 181.46ZM337.634 177.263L337.825 176.091H346.007L345.815 177.263H342.385L340.766 187H339.445L341.064 177.263H337.634ZM354.63 176.091L354.438 177.263H349.175L347.556 187H346.235L348.046 176.091H354.63ZM354.863 187L356.674 176.091H360.36C361.212 176.091 361.885 176.244 362.379 176.549C362.876 176.854 363.212 177.268 363.386 177.79C363.563 178.312 363.599 178.896 363.492 179.543C363.386 180.182 363.157 180.764 362.805 181.29C362.457 181.815 361.985 182.234 361.388 182.547C360.795 182.859 360.076 183.016 359.231 183.016H356.589L356.78 181.844H359.38C359.962 181.844 360.449 181.743 360.839 181.54C361.23 181.338 361.535 181.062 361.756 180.714C361.976 180.366 362.121 179.976 362.192 179.543C362.263 179.102 362.246 178.712 362.139 178.371C362.036 178.026 361.821 177.756 361.495 177.561C361.171 177.362 360.715 177.263 360.126 177.263H357.803L356.184 187H354.863ZM364.945 187.149L365.158 185.913H365.84C366.103 185.913 366.332 185.862 366.527 185.759C366.726 185.656 366.896 185.523 367.038 185.359C367.184 185.196 367.31 185.026 367.417 184.848L367.651 184.443L365.265 176.091H366.692L368.567 182.866L372.445 176.091H373.851L368.567 185.232C368.361 185.572 368.139 185.888 367.901 186.18C367.663 186.471 367.367 186.705 367.012 186.883C366.657 187.06 366.202 187.149 365.648 187.149H364.945ZM377.296 187.149C376.586 187.149 375.97 187.03 375.448 186.792C374.929 186.551 374.542 186.215 374.287 185.786C374.031 185.352 373.94 184.848 374.015 184.273H375.336C375.304 184.621 375.364 184.923 375.517 185.178C375.673 185.434 375.904 185.631 376.21 185.77C376.519 185.908 376.888 185.977 377.318 185.977C377.776 185.977 378.205 185.897 378.607 185.738C379.011 185.578 379.351 185.347 379.624 185.045C379.897 184.74 380.066 184.376 380.13 183.953C380.187 183.573 380.144 183.236 380.002 182.941C379.86 182.646 379.615 182.415 379.267 182.249C378.923 182.078 378.472 181.993 377.914 181.993H377.019L377.211 180.821H378.042C378.475 180.821 378.873 180.739 379.235 180.576C379.597 180.413 379.899 180.184 380.141 179.889C380.382 179.591 380.535 179.241 380.599 178.839C380.659 178.488 380.634 178.183 380.524 177.923C380.418 177.661 380.233 177.456 379.97 177.311C379.711 177.165 379.381 177.092 378.979 177.092C378.596 177.092 378.22 177.162 377.85 177.3C377.484 177.435 377.172 177.632 376.913 177.891C376.653 178.147 376.49 178.456 376.423 178.818H375.144C375.254 178.25 375.501 177.751 375.885 177.321C376.268 176.888 376.735 176.551 377.286 176.309C377.84 176.064 378.426 175.942 379.043 175.942C379.729 175.942 380.293 176.084 380.737 176.368C381.185 176.648 381.504 177.018 381.696 177.476C381.888 177.93 381.941 178.42 381.856 178.946C381.76 179.546 381.513 180.054 381.116 180.469C380.718 180.885 380.233 181.18 379.661 181.354V181.418C380.332 181.535 380.819 181.844 381.121 182.344C381.426 182.842 381.522 183.435 381.408 184.124C381.309 184.741 381.069 185.278 380.689 185.732C380.309 186.183 379.828 186.533 379.246 186.782C378.663 187.027 378.014 187.149 377.296 187.149ZM389.723 187L386.804 181.993H385.462L384.631 187H383.31L385.121 176.091H386.442L385.654 180.821H386.229L391.385 176.091H392.962L387.763 180.885L391.3 187H389.723ZM393.455 187H392.07L397.887 176.091H399.25L401.445 187H400.06L398.334 177.817H398.249L393.455 187ZM394.669 182.739H400.252L400.06 183.911H394.478L394.669 182.739Z" fill="#398E8B"/>
<path d="M498 181C498 255.006 438.006 315 364 315C289.994 315 230 255.006 230 181C230 106.994 289.994 47 364 47C438.006 47 498 106.994 498 181Z" fill="#F4F7FB"/>
<mask id="path-4-inside-1_212_3759" fill="white">
<path d="M187 181C187 134.057 205.648 89.036 238.842 55.8421C272.036 22.6482 317.057 4 364 4V24.3914C322.465 24.3914 282.631 40.8912 253.261 70.261C223.891 99.6308 207.391 139.465 207.391 181H187Z"/>
</mask>
<path d="M187 181C187 134.057 205.648 89.036 238.842 55.8421C272.036 22.6482 317.057 4 364 4V24.3914C322.465 24.3914 282.631 40.8912 253.261 70.261C223.891 99.6308 207.391 139.465 207.391 181H187Z" stroke="#F4F7FB" stroke-width="50" stroke-linecap="round" mask="url(#path-4-inside-1_212_3759)"/>
<mask id="path-5-inside-2_212_3759" fill="white">
<path d="M364 358C325.036 358 287.161 345.143 256.249 321.424C225.337 297.704 203.116 264.447 193.031 226.811L212.728 221.533C221.65 254.834 241.312 284.259 268.663 305.246C296.014 326.233 329.525 337.609 364 337.609L364 358Z"/>
</mask>
<path d="M364 358C325.036 358 287.161 345.143 256.249 321.424C225.337 297.704 203.116 264.447 193.031 226.811L212.728 221.533C221.65 254.834 241.312 284.259 268.663 305.246C296.014 326.233 329.525 337.609 364 337.609L364 358Z" stroke="#F4F7FB" stroke-width="50" stroke-linecap="round" mask="url(#path-5-inside-2_212_3759)"/>
<mask id="path-6-inside-3_212_3759" fill="white">
<path d="M541 181C541 219.964 528.143 257.839 504.424 288.751C480.704 319.663 447.447 341.884 409.811 351.969L404.533 332.272C437.834 323.35 467.259 303.688 488.246 276.337C509.233 248.986 520.609 215.475 520.609 181H541Z"/>
</mask>
<path d="M541 181C541 219.964 528.143 257.839 504.424 288.751C480.704 319.663 447.447 341.884 409.811 351.969L404.533 332.272C437.834 323.35 467.259 303.688 488.246 276.337C509.233 248.986 520.609 215.475 520.609 181H541Z" stroke="#F4F7FB" stroke-width="50" stroke-linecap="round" mask="url(#path-6-inside-3_212_3759)"/>
<path d="M179.252 316.149C178.542 316.149 177.926 316.03 177.404 315.792C176.885 315.551 176.498 315.215 176.243 314.786C175.987 314.352 175.896 313.848 175.971 313.273H177.292C177.26 313.621 177.32 313.923 177.473 314.178C177.629 314.434 177.86 314.631 178.166 314.77C178.475 314.908 178.844 314.977 179.274 314.977C179.732 314.977 180.161 314.897 180.563 314.738C180.968 314.578 181.307 314.347 181.58 314.045C181.854 313.74 182.022 313.376 182.086 312.953C182.143 312.573 182.1 312.236 181.958 311.941C181.816 311.646 181.571 311.415 181.223 311.249C180.879 311.078 180.428 310.993 179.87 310.993H178.975L179.167 309.821H179.998C180.431 309.821 180.829 309.739 181.191 309.576C181.553 309.413 181.855 309.184 182.097 308.889C182.338 308.591 182.491 308.241 182.555 307.839C182.615 307.488 182.59 307.183 182.48 306.923C182.374 306.661 182.189 306.456 181.926 306.311C181.667 306.165 181.337 306.092 180.936 306.092C180.552 306.092 180.176 306.162 179.806 306.3C179.441 306.435 179.128 306.632 178.869 306.891C178.61 307.147 178.446 307.456 178.379 307.818H177.1C177.21 307.25 177.457 306.751 177.841 306.321C178.224 305.888 178.691 305.551 179.242 305.309C179.796 305.064 180.382 304.942 180.999 304.942C181.685 304.942 182.249 305.084 182.693 305.368C183.141 305.648 183.46 306.018 183.652 306.476C183.844 306.93 183.897 307.42 183.812 307.946C183.716 308.546 183.469 309.054 183.072 309.469C182.674 309.885 182.189 310.18 181.617 310.354V310.418C182.289 310.535 182.775 310.844 183.077 311.344C183.382 311.842 183.478 312.435 183.365 313.124C183.265 313.741 183.025 314.278 182.645 314.732C182.265 315.183 181.784 315.533 181.202 315.782C180.619 316.027 179.97 316.149 179.252 316.149ZM187.482 316.192C186.964 316.192 186.509 316.094 186.118 315.899C185.728 315.7 185.438 315.414 185.25 315.041C185.062 314.665 185.01 314.21 185.096 313.678C185.177 313.209 185.335 312.829 185.57 312.538C185.804 312.243 186.088 312.012 186.422 311.845C186.759 311.675 187.122 311.549 187.509 311.467C187.899 311.382 188.288 311.316 188.675 311.27C189.18 311.206 189.59 311.156 189.906 311.121C190.222 311.085 190.46 311.027 190.619 310.945C190.779 310.863 190.877 310.723 190.912 310.524V310.482C190.998 309.96 190.928 309.553 190.705 309.262C190.481 308.967 190.081 308.82 189.506 308.82C188.91 308.82 188.411 308.951 188.009 309.214C187.608 309.477 187.312 309.757 187.12 310.055L186.012 309.629C186.303 309.132 186.651 308.745 187.056 308.468C187.461 308.187 187.885 307.992 188.329 307.882C188.773 307.768 189.201 307.712 189.613 307.712C189.876 307.712 190.172 307.744 190.502 307.808C190.833 307.868 191.142 307.994 191.429 308.186C191.72 308.377 191.939 308.667 192.084 309.054C192.233 309.441 192.255 309.96 192.148 310.609L191.253 316H189.996L190.188 314.892H190.124C190.01 315.07 189.836 315.26 189.602 315.462C189.371 315.664 189.078 315.837 188.723 315.979C188.372 316.121 187.958 316.192 187.482 316.192ZM187.844 315.062C188.341 315.062 188.776 314.965 189.149 314.77C189.526 314.574 189.828 314.322 190.055 314.013C190.286 313.704 190.43 313.379 190.486 313.038L190.678 311.888C190.614 311.952 190.488 312.01 190.3 312.064C190.112 312.113 189.899 312.158 189.661 312.197C189.426 312.232 189.197 312.264 188.974 312.293C188.753 312.317 188.576 312.339 188.441 312.357C188.107 312.399 187.789 312.468 187.487 312.564C187.189 312.657 186.937 312.797 186.731 312.985C186.529 313.17 186.403 313.422 186.353 313.741C186.278 314.178 186.383 314.509 186.667 314.732C186.951 314.952 187.344 315.062 187.844 315.062ZM193.548 316L194.911 307.818H196.169L195.572 311.376H196.403L199.94 307.818H201.559L197.596 311.76L200.238 316H198.619L196.509 312.548H195.38L194.805 316H193.548ZM203.991 316.192C203.472 316.192 203.018 316.094 202.627 315.899C202.237 315.7 201.947 315.414 201.759 315.041C201.571 314.665 201.519 314.21 201.604 313.678C201.686 313.209 201.844 312.829 202.079 312.538C202.313 312.243 202.597 312.012 202.931 311.845C203.268 311.675 203.63 311.549 204.017 311.467C204.408 311.382 204.797 311.316 205.184 311.27C205.688 311.206 206.098 311.156 206.415 311.121C206.731 311.085 206.968 311.027 207.128 310.945C207.288 310.863 207.386 310.723 207.421 310.524V310.482C207.506 309.96 207.437 309.553 207.214 309.262C206.99 308.967 206.59 308.82 206.015 308.82C205.418 308.82 204.919 308.951 204.518 309.214C204.117 309.477 203.82 309.757 203.629 310.055L202.521 309.629C202.812 309.132 203.16 308.745 203.565 308.468C203.97 308.187 204.394 307.992 204.838 307.882C205.282 307.768 205.71 307.712 206.122 307.712C206.384 307.712 206.681 307.744 207.011 307.808C207.341 307.868 207.65 307.994 207.938 308.186C208.229 308.377 208.448 308.667 208.593 309.054C208.742 309.441 208.764 309.96 208.657 310.609L207.762 316H206.505L206.697 314.892H206.633C206.519 315.07 206.345 315.26 206.111 315.462C205.88 315.664 205.587 315.837 205.232 315.979C204.88 316.121 204.467 316.192 203.991 316.192ZM204.353 315.062C204.85 315.062 205.285 314.965 205.658 314.77C206.035 314.574 206.336 314.322 206.564 314.013C206.794 313.704 206.938 313.379 206.995 313.038L207.187 311.888C207.123 311.952 206.997 312.01 206.809 312.064C206.62 312.113 206.407 312.158 206.169 312.197C205.935 312.232 205.706 312.264 205.482 312.293C205.262 312.317 205.085 312.339 204.95 312.357C204.616 312.399 204.298 312.468 203.996 312.564C203.698 312.657 203.446 312.797 203.24 312.985C203.037 313.17 202.911 313.422 202.862 313.741C202.787 314.178 202.892 314.509 203.176 314.732C203.46 314.952 203.852 315.062 204.353 315.062ZM209.897 313.912H211.239C211.204 314.281 211.323 314.562 211.596 314.754C211.873 314.945 212.258 315.041 212.752 315.041C213.256 315.041 213.704 314.938 214.094 314.732C214.488 314.523 214.723 314.185 214.797 313.72C214.844 313.447 214.817 313.209 214.718 313.006C214.618 312.8 214.455 312.641 214.227 312.527C214.004 312.413 213.725 312.357 213.391 312.357H211.985L212.177 311.227H213.583C214.08 311.227 214.467 311.114 214.744 310.886C215.021 310.659 215.188 310.375 215.245 310.034C215.305 309.668 215.224 309.375 215 309.155C214.776 308.931 214.425 308.82 213.945 308.82C213.469 308.82 213.054 308.928 212.699 309.145C212.344 309.358 212.127 309.633 212.049 309.97H210.728C210.817 309.53 211.017 309.141 211.33 308.804C211.642 308.463 212.035 308.196 212.507 308.005C212.983 307.809 213.505 307.712 214.073 307.712C214.648 307.712 215.131 307.813 215.522 308.015C215.912 308.214 216.195 308.486 216.369 308.83C216.546 309.171 216.598 309.558 216.523 309.991C216.449 310.453 216.257 310.826 215.948 311.11C215.643 311.394 215.287 311.597 214.883 311.717L214.861 311.803C215.167 311.824 215.419 311.923 215.618 312.101C215.82 312.275 215.96 312.504 216.039 312.788C216.12 313.069 216.133 313.379 216.076 313.72C215.994 314.217 215.79 314.651 215.463 315.02C215.137 315.386 214.725 315.67 214.227 315.872C213.73 316.071 213.182 316.17 212.581 316.17C212.003 316.17 211.5 316.076 211.074 315.888C210.651 315.696 210.334 315.432 210.121 315.094C209.911 314.754 209.836 314.359 209.897 313.912Z" fill="#2E7E7C"/>
<path d="M579.611 173.091L577.8 184H576.479L578.098 174.263H572.601L570.982 184H569.661L571.472 173.091H579.611ZM579.783 187.068L581.668 175.818H582.883L582.67 177.118H582.819C582.932 176.976 583.089 176.795 583.288 176.575C583.49 176.351 583.762 176.152 584.103 175.978C584.447 175.8 584.886 175.712 585.418 175.712C586.107 175.712 586.684 175.884 587.149 176.228C587.615 176.573 587.943 177.061 588.135 177.693C588.327 178.325 588.351 179.071 588.209 179.93C588.067 180.797 587.796 181.548 587.394 182.184C586.993 182.816 586.503 183.306 585.924 183.654C585.345 183.998 584.715 184.17 584.033 184.17C583.508 184.17 583.101 184.083 582.813 183.909C582.526 183.732 582.316 183.531 582.185 183.308C582.054 183.08 581.952 182.892 581.881 182.743H581.775L581.05 187.068H579.783ZM582.222 179.909C582.123 180.527 582.123 181.072 582.222 181.544C582.325 182.013 582.529 182.381 582.835 182.647C583.144 182.91 583.55 183.041 584.055 183.041C584.58 183.041 585.04 182.903 585.434 182.626C585.832 182.345 586.159 181.969 586.414 181.496C586.674 181.021 586.853 180.491 586.952 179.909C587.045 179.334 587.041 178.815 586.942 178.354C586.842 177.888 586.64 177.521 586.334 177.251C586.029 176.978 585.61 176.841 585.077 176.841C584.566 176.841 584.113 176.971 583.719 177.23C583.328 177.485 583.005 177.844 582.75 178.306C582.497 178.764 582.322 179.298 582.222 179.909ZM592.826 184.17C592.074 184.17 591.443 183.991 590.935 183.632C590.428 183.274 590.069 182.771 589.859 182.125C589.653 181.479 589.62 180.726 589.758 179.866C589.893 179.028 590.161 178.299 590.562 177.677C590.967 177.052 591.47 176.569 592.07 176.228C592.674 175.884 593.338 175.712 594.062 175.712C594.815 175.712 595.444 175.893 595.948 176.255C596.456 176.614 596.814 177.118 597.024 177.768C597.233 178.414 597.269 179.17 597.13 180.037C596.995 180.868 596.724 181.594 596.315 182.216C595.911 182.833 595.408 183.315 594.808 183.659C594.211 184 593.551 184.17 592.826 184.17ZM592.848 183.041C593.423 183.041 593.922 182.894 594.344 182.599C594.771 182.304 595.115 181.915 595.378 181.433C595.644 180.95 595.824 180.428 595.916 179.866C596.001 179.334 595.998 178.838 595.905 178.38C595.813 177.919 595.616 177.548 595.314 177.267C595.012 176.983 594.588 176.841 594.041 176.841C593.466 176.841 592.963 176.99 592.533 177.288C592.107 177.587 591.763 177.979 591.5 178.466C591.237 178.952 591.061 179.476 590.973 180.037C590.887 180.57 590.889 181.065 590.978 181.523C591.07 181.978 591.267 182.345 591.569 182.626C591.875 182.903 592.301 183.041 592.848 183.041ZM599.976 182.146L604.962 175.818H606.411L605.047 184H603.79L604.834 177.672L599.87 184H598.399L599.763 175.818H601.02L599.976 182.146ZM607.19 181.912H608.532C608.497 182.281 608.616 182.562 608.889 182.754C609.166 182.945 609.551 183.041 610.045 183.041C610.549 183.041 610.997 182.938 611.387 182.732C611.781 182.523 612.016 182.185 612.09 181.72C612.137 181.447 612.11 181.209 612.01 181.006C611.911 180.8 611.748 180.641 611.52 180.527C611.297 180.413 611.018 180.357 610.684 180.357H609.278L609.47 179.227H610.876C611.373 179.227 611.76 179.114 612.037 178.886C612.314 178.659 612.481 178.375 612.538 178.034C612.598 177.668 612.517 177.375 612.293 177.155C612.069 176.931 611.718 176.82 611.238 176.82C610.762 176.82 610.347 176.928 609.992 177.145C609.637 177.358 609.42 177.633 609.342 177.97H608.021C608.11 177.53 608.31 177.141 608.623 176.804C608.935 176.463 609.328 176.196 609.8 176.005C610.276 175.809 610.798 175.712 611.366 175.712C611.941 175.712 612.424 175.813 612.815 176.015C613.205 176.214 613.488 176.486 613.662 176.83C613.839 177.171 613.891 177.558 613.816 177.991C613.742 178.453 613.55 178.826 613.241 179.11C612.936 179.394 612.58 179.597 612.176 179.717L612.154 179.803C612.46 179.824 612.712 179.923 612.911 180.101C613.113 180.275 613.253 180.504 613.331 180.788C613.413 181.069 613.426 181.379 613.369 181.72C613.287 182.217 613.083 182.651 612.756 183.02C612.43 183.386 612.018 183.67 611.52 183.872C611.023 184.071 610.475 184.17 609.874 184.17C609.296 184.17 608.793 184.076 608.367 183.888C607.944 183.696 607.627 183.432 607.414 183.094C607.204 182.754 607.129 182.359 607.19 181.912ZM614.762 184L616.125 175.818H619.471C620.344 175.818 621.008 176.019 621.463 176.42C621.917 176.818 622.091 177.342 621.985 177.991C621.9 178.492 621.686 178.877 621.346 179.147C621.005 179.417 620.6 179.6 620.131 179.696C620.422 179.739 620.696 179.845 620.951 180.016C621.211 180.186 621.408 180.42 621.543 180.719C621.681 181.017 621.715 181.379 621.644 181.805C621.573 182.224 621.402 182.599 621.132 182.929C620.866 183.26 620.518 183.521 620.088 183.712C619.662 183.904 619.172 184 618.618 184H614.762ZM616.147 182.849H618.81C619.247 182.849 619.605 182.746 619.886 182.54C620.167 182.331 620.333 182.05 620.387 181.699C620.461 181.273 620.394 180.939 620.184 180.697C619.978 180.456 619.662 180.335 619.236 180.335H616.573L616.147 182.849ZM616.743 179.249H618.895C619.229 179.249 619.526 179.202 619.785 179.11C620.044 179.014 620.254 178.879 620.413 178.705C620.573 178.528 620.671 178.318 620.706 178.077C620.77 177.736 620.673 177.466 620.413 177.267C620.158 177.068 619.779 176.969 619.279 176.969H617.127L616.743 179.249ZM626.562 184.17C625.809 184.17 625.179 183.991 624.671 183.632C624.163 183.274 623.804 182.771 623.595 182.125C623.389 181.479 623.355 180.726 623.494 179.866C623.628 179.028 623.897 178.299 624.298 177.677C624.703 177.052 625.205 176.569 625.805 176.228C626.409 175.884 627.073 175.712 627.797 175.712C628.55 175.712 629.179 175.893 629.683 176.255C630.191 176.614 630.55 177.118 630.759 177.768C630.969 178.414 631.004 179.17 630.866 180.037C630.731 180.868 630.459 181.594 630.051 182.216C629.646 182.833 629.143 183.315 628.543 183.659C627.947 184 627.286 184.17 626.562 184.17ZM626.583 183.041C627.158 183.041 627.657 182.894 628.08 182.599C628.506 182.304 628.85 181.915 629.113 181.433C629.38 180.95 629.559 180.428 629.651 179.866C629.736 179.334 629.733 178.838 629.641 178.38C629.548 177.919 629.351 177.548 629.049 177.267C628.747 176.983 628.323 176.841 627.776 176.841C627.201 176.841 626.698 176.99 626.269 177.288C625.843 177.587 625.498 177.979 625.235 178.466C624.973 178.952 624.797 179.476 624.708 180.037C624.623 180.57 624.625 181.065 624.713 181.523C624.806 181.978 625.003 182.345 625.305 182.626C625.61 182.903 626.036 183.041 626.583 183.041ZM630.878 186.344L631.474 182.828H632.156C632.348 182.654 632.52 182.466 632.673 182.263C632.829 182.061 632.975 181.821 633.11 181.544C633.244 181.264 633.378 180.923 633.509 180.522C633.64 180.117 633.779 179.629 633.925 179.057L634.734 175.818H639.933L638.782 182.828H640.04L639.443 186.344H638.186L638.569 184H632.518L632.135 186.344H630.878ZM633.584 182.828H637.525L638.484 176.99H635.714L635.16 179.057C634.93 179.913 634.695 180.66 634.457 181.299C634.223 181.939 633.932 182.448 633.584 182.828ZM644.812 184.17C644.042 184.17 643.41 183.989 642.916 183.627C642.426 183.265 642.085 182.766 641.893 182.13C641.702 181.495 641.673 180.768 641.808 179.952C641.943 179.121 642.216 178.387 642.628 177.752C643.04 177.113 643.553 176.614 644.168 176.255C644.782 175.893 645.459 175.712 646.197 175.712C646.773 175.712 647.273 175.818 647.699 176.031C648.126 176.244 648.454 176.543 648.685 176.926C648.916 177.31 649.024 177.757 649.01 178.268H647.753C647.717 177.896 647.557 177.565 647.273 177.278C646.993 176.987 646.577 176.841 646.027 176.841C645.537 176.841 645.086 176.969 644.674 177.224C644.262 177.477 643.916 177.833 643.635 178.295C643.355 178.753 643.165 179.291 643.065 179.909C642.959 180.541 642.968 181.092 643.092 181.56C643.216 182.029 643.442 182.393 643.768 182.652C644.095 182.912 644.507 183.041 645.004 183.041C645.331 183.041 645.636 182.984 645.92 182.871C646.204 182.757 646.456 182.594 646.677 182.381C646.897 182.168 647.071 181.912 647.199 181.614H648.456C648.3 182.097 648.049 182.532 647.705 182.919C647.36 183.302 646.943 183.608 646.453 183.835C645.963 184.059 645.416 184.17 644.812 184.17ZM650.416 176.99L650.608 175.818H657.256L657.064 176.99H654.379L653.229 184H651.971L653.122 176.99H650.416ZM657.726 184L659.089 175.818H662.434C663.308 175.818 663.972 176.019 664.427 176.42C664.881 176.818 665.055 177.342 664.949 177.991C664.863 178.492 664.65 178.877 664.309 179.147C663.968 179.417 663.564 179.6 663.095 179.696C663.386 179.739 663.66 179.845 663.915 180.016C664.174 180.186 664.372 180.42 664.506 180.719C664.645 181.017 664.679 181.379 664.608 181.805C664.537 182.224 664.366 182.599 664.096 182.929C663.83 183.26 663.482 183.521 663.052 183.712C662.626 183.904 662.136 184 661.582 184H657.726ZM659.111 182.849H661.774C662.211 182.849 662.569 182.746 662.85 182.54C663.13 182.331 663.297 182.05 663.351 181.699C663.425 181.273 663.358 180.939 663.148 180.697C662.942 180.456 662.626 180.335 662.2 180.335H659.537L659.111 182.849ZM659.707 179.249H661.859C662.193 179.249 662.489 179.202 662.749 179.11C663.008 179.014 663.217 178.879 663.377 178.705C663.537 178.528 663.635 178.318 663.67 178.077C663.734 177.736 663.636 177.466 663.377 177.267C663.122 177.068 662.743 176.969 662.243 176.969H660.091L659.707 179.249ZM669.526 184.17C668.773 184.17 668.142 183.991 667.635 183.632C667.127 183.274 666.768 182.771 666.559 182.125C666.353 181.479 666.319 180.726 666.457 179.866C666.592 179.028 666.86 178.299 667.262 177.677C667.667 177.052 668.169 176.569 668.769 176.228C669.373 175.884 670.037 175.712 670.761 175.712C671.514 175.712 672.143 175.893 672.647 176.255C673.155 176.614 673.513 177.118 673.723 177.768C673.933 178.414 673.968 179.17 673.83 180.037C673.695 180.868 673.423 181.594 673.015 182.216C672.61 182.833 672.107 183.315 671.507 183.659C670.911 184 670.25 184.17 669.526 184.17ZM669.547 183.041C670.122 183.041 670.621 182.894 671.044 182.599C671.47 182.304 671.814 181.915 672.077 181.433C672.343 180.95 672.523 180.428 672.615 179.866C672.7 179.334 672.697 178.838 672.604 178.38C672.512 177.919 672.315 177.548 672.013 177.267C671.711 176.983 671.287 176.841 670.74 176.841C670.165 176.841 669.662 176.99 669.233 177.288C668.806 177.587 668.462 177.979 668.199 178.466C667.936 178.952 667.761 179.476 667.672 180.037C667.587 180.57 667.588 181.065 667.677 181.523C667.77 181.978 667.967 182.345 668.268 182.626C668.574 182.903 669 183.041 669.547 183.041ZM571.045 201.146L576.031 194.818H577.48L576.116 203H574.859L575.903 196.672L570.939 203H569.469L570.832 194.818H572.089L571.045 201.146ZM589.222 203L586.302 197.993H584.96L584.129 203H582.808L584.619 192.091H585.94L585.152 196.821H585.727L590.883 192.091H592.46L587.261 196.885L590.798 203H589.222ZM595.112 203.17C594.359 203.17 593.728 202.991 593.221 202.632C592.713 202.274 592.354 201.771 592.145 201.125C591.939 200.479 591.905 199.726 592.043 198.866C592.178 198.028 592.446 197.299 592.848 196.677C593.252 196.052 593.755 195.569 594.355 195.228C594.959 194.884 595.623 194.712 596.347 194.712C597.1 194.712 597.729 194.893 598.233 195.255C598.741 195.614 599.099 196.118 599.309 196.768C599.518 197.414 599.554 198.17 599.415 199.037C599.281 199.868 599.009 200.594 598.6 201.216C598.196 201.833 597.693 202.315 597.093 202.659C596.496 203 595.836 203.17 595.112 203.17ZM595.133 202.041C595.708 202.041 596.207 201.894 596.63 201.599C597.056 201.304 597.4 200.915 597.663 200.433C597.929 199.95 598.109 199.428 598.201 198.866C598.286 198.334 598.283 197.838 598.19 197.38C598.098 196.919 597.901 196.548 597.599 196.267C597.297 195.983 596.873 195.841 596.326 195.841C595.751 195.841 595.248 195.99 594.819 196.288C594.392 196.587 594.048 196.979 593.785 197.466C593.522 197.952 593.347 198.476 593.258 199.037C593.173 199.57 593.174 200.065 593.263 200.523C593.355 200.978 593.553 201.345 593.854 201.626C594.16 201.903 594.586 202.041 595.133 202.041ZM606.927 198.334L606.736 199.506H602.219L602.41 198.334H606.927ZM603.305 194.818L601.942 203H600.685L602.048 194.818H603.305ZM608.483 194.818L607.119 203H605.862L607.226 194.818H608.483ZM609.474 195.99L609.665 194.818H616.313L616.121 195.99H613.437L612.286 203H611.029L612.18 195.99H609.474ZM616.272 206.068L618.157 194.818H619.372L619.159 196.118H619.308C619.422 195.976 619.578 195.795 619.777 195.575C619.979 195.351 620.251 195.152 620.592 194.978C620.936 194.8 621.375 194.712 621.907 194.712C622.596 194.712 623.173 194.884 623.639 195.228C624.104 195.573 624.432 196.061 624.624 196.693C624.816 197.325 624.841 198.071 624.699 198.93C624.557 199.797 624.285 200.548 623.884 201.184C623.482 201.816 622.992 202.306 622.414 202.654C621.835 202.998 621.204 203.17 620.523 203.17C619.997 203.17 619.59 203.083 619.303 202.909C619.015 202.732 618.806 202.531 618.674 202.308C618.543 202.08 618.442 201.892 618.371 201.743H618.264L617.54 206.068H616.272ZM618.711 198.909C618.612 199.527 618.612 200.072 618.711 200.544C618.814 201.013 619.019 201.381 619.324 201.647C619.633 201.91 620.04 202.041 620.544 202.041C621.069 202.041 621.529 201.903 621.923 201.626C622.321 201.345 622.648 200.969 622.904 200.496C623.163 200.021 623.342 199.491 623.442 198.909C623.534 198.334 623.53 197.815 623.431 197.354C623.331 196.888 623.129 196.521 622.824 196.251C622.518 195.978 622.099 195.841 621.567 195.841C621.055 195.841 620.602 195.971 620.208 196.23C619.818 196.485 619.494 196.844 619.239 197.306C618.987 197.764 618.811 198.298 618.711 198.909ZM629.316 203.17C628.563 203.17 627.932 202.991 627.425 202.632C626.917 202.274 626.558 201.771 626.349 201.125C626.143 200.479 626.109 199.726 626.247 198.866C626.382 198.028 626.65 197.299 627.052 196.677C627.457 196.052 627.959 195.569 628.559 195.228C629.163 194.884 629.827 194.712 630.551 194.712C631.304 194.712 631.933 194.893 632.437 195.255C632.945 195.614 633.304 196.118 633.513 196.768C633.723 197.414 633.758 198.17 633.62 199.037C633.485 199.868 633.213 200.594 632.805 201.216C632.4 201.833 631.897 202.315 631.297 202.659C630.701 203 630.04 203.17 629.316 203.17ZM629.337 202.041C629.912 202.041 630.411 201.894 630.834 201.599C631.26 201.304 631.604 200.915 631.867 200.433C632.133 199.95 632.313 199.428 632.405 198.866C632.49 198.334 632.487 197.838 632.394 197.38C632.302 196.919 632.105 196.548 631.803 196.267C631.501 195.983 631.077 195.841 630.53 195.841C629.955 195.841 629.452 195.99 629.023 196.288C628.597 196.587 628.252 196.979 627.989 197.466C627.726 197.952 627.551 198.476 627.462 199.037C627.377 199.57 627.378 200.065 627.467 200.523C627.56 200.978 627.757 201.345 628.059 201.626C628.364 201.903 628.79 202.041 629.337 202.041ZM634.164 203L634.356 201.828H634.654C634.899 201.828 635.111 201.78 635.288 201.684C635.469 201.585 635.631 201.413 635.773 201.168C635.919 200.919 636.055 200.575 636.183 200.134C636.314 199.69 636.451 199.126 636.593 198.44L637.339 194.818H642.794L641.43 203H640.173L641.345 195.99H638.34L637.722 198.909C637.584 199.58 637.426 200.172 637.248 200.683C637.074 201.191 636.867 201.617 636.625 201.961C636.387 202.306 636.101 202.565 635.768 202.739C635.437 202.913 635.045 203 634.59 203H634.164ZM645.697 197.78H648.04C648.999 197.78 649.69 198.023 650.112 198.51C650.539 198.996 650.693 199.612 650.576 200.358C650.491 200.848 650.301 201.294 650.006 201.695C649.711 202.093 649.324 202.411 648.845 202.648C648.365 202.883 647.806 203 647.167 203H643.736L645.1 194.818H646.357L645.185 201.828H647.358C647.859 201.828 648.291 201.699 648.653 201.439C649.019 201.176 649.233 200.837 649.297 200.422C649.372 199.985 649.271 199.632 648.994 199.362C648.72 199.088 648.339 198.952 647.849 198.952H645.505L645.697 197.78ZM662.845 203L659.926 197.993H658.583L657.752 203H656.431L658.242 192.091H659.563L658.775 196.821H659.35L664.506 192.091H666.083L660.884 196.885L664.421 203H662.845ZM668.344 203.192C667.826 203.192 667.371 203.094 666.981 202.899C666.59 202.7 666.301 202.414 666.112 202.041C665.924 201.665 665.873 201.21 665.958 200.678C666.04 200.209 666.198 199.829 666.432 199.538C666.666 199.243 666.951 199.012 667.284 198.845C667.622 198.675 667.984 198.549 668.371 198.467C668.762 198.382 669.15 198.316 669.538 198.27C670.042 198.206 670.452 198.156 670.768 198.121C671.084 198.085 671.322 198.027 671.482 197.945C671.642 197.863 671.739 197.723 671.775 197.524V197.482C671.86 196.96 671.791 196.553 671.567 196.262C671.343 195.967 670.944 195.82 670.369 195.82C669.772 195.82 669.273 195.951 668.872 196.214C668.47 196.477 668.174 196.757 667.982 197.055L666.874 196.629C667.165 196.132 667.513 195.745 667.918 195.468C668.323 195.187 668.747 194.992 669.191 194.882C669.635 194.768 670.063 194.712 670.475 194.712C670.738 194.712 671.034 194.744 671.365 194.808C671.695 194.868 672.004 194.994 672.291 195.186C672.583 195.377 672.801 195.667 672.947 196.054C673.096 196.441 673.117 196.96 673.011 197.609L672.116 203H670.859L671.05 201.892H670.986C670.873 202.07 670.699 202.26 670.464 202.462C670.234 202.664 669.941 202.837 669.585 202.979C669.234 203.121 668.82 203.192 668.344 203.192ZM668.707 202.062C669.204 202.062 669.639 201.965 670.012 201.77C670.388 201.574 670.69 201.322 670.917 201.013C671.148 200.704 671.292 200.379 671.349 200.038L671.54 198.888C671.476 198.952 671.35 199.01 671.162 199.064C670.974 199.113 670.761 199.158 670.523 199.197C670.289 199.232 670.06 199.264 669.836 199.293C669.616 199.317 669.438 199.339 669.303 199.357C668.969 199.399 668.652 199.468 668.35 199.564C668.051 199.657 667.799 199.797 667.593 199.985C667.391 200.17 667.265 200.422 667.215 200.741C667.141 201.178 667.245 201.509 667.529 201.732C667.813 201.952 668.206 202.062 668.707 202.062ZM682.059 194.818L680.717 203H679.46L680.802 194.818H682.059ZM680.93 198.717L680.738 199.889C680.436 199.996 680.138 200.09 679.843 200.172C679.549 200.25 679.243 200.312 678.927 200.358C678.615 200.401 678.274 200.422 677.904 200.422C676.974 200.422 676.271 200.172 675.795 199.671C675.319 199.17 675.163 198.419 675.326 197.418L675.752 194.797H677.01L676.583 197.418C676.516 197.837 676.539 198.181 676.653 198.451C676.766 198.721 676.949 198.922 677.201 199.053C677.457 199.184 677.755 199.25 678.096 199.25C678.625 199.25 679.114 199.202 679.561 199.106C680.012 199.007 680.468 198.877 680.93 198.717ZM686.433 203.17C685.648 203.17 685 202.996 684.488 202.648C683.977 202.297 683.62 201.807 683.418 201.178C683.215 200.546 683.183 199.811 683.322 198.973C683.46 198.135 683.735 197.396 684.147 196.757C684.559 196.114 685.072 195.614 685.687 195.255C686.301 194.893 686.976 194.712 687.711 194.712C688.137 194.712 688.547 194.783 688.941 194.925C689.336 195.067 689.676 195.298 689.964 195.617C690.252 195.933 690.452 196.352 690.566 196.874C690.68 197.396 690.673 198.039 690.545 198.803L690.46 199.335H684.153L684.323 198.249H689.352C689.433 197.787 689.412 197.375 689.288 197.013C689.167 196.651 688.956 196.365 688.654 196.155C688.355 195.946 687.977 195.841 687.519 195.841C687.047 195.841 686.607 195.969 686.198 196.224C685.79 196.477 685.449 196.796 685.175 197.183C684.902 197.567 684.732 197.957 684.664 198.355L684.515 199.293C684.408 199.971 684.424 200.511 684.563 200.912C684.705 201.313 684.952 201.603 685.303 201.78C685.655 201.954 686.095 202.041 686.624 202.041C686.962 202.041 687.272 201.995 687.556 201.903C687.841 201.807 688.094 201.665 688.318 201.477C688.542 201.285 688.73 201.047 688.883 200.763L690.033 201.104C689.838 201.516 689.563 201.878 689.208 202.19C688.856 202.499 688.444 202.741 687.972 202.915C687.503 203.085 686.99 203.17 686.433 203.17ZM695.086 203.17C694.315 203.17 693.683 202.989 693.189 202.627C692.699 202.265 692.358 201.766 692.167 201.13C691.975 200.495 691.947 199.768 692.081 198.952C692.216 198.121 692.49 197.387 692.902 196.752C693.314 196.113 693.827 195.614 694.441 195.255C695.056 194.893 695.732 194.712 696.471 194.712C697.046 194.712 697.547 194.818 697.973 195.031C698.399 195.244 698.727 195.543 698.958 195.926C699.189 196.31 699.297 196.757 699.283 197.268H698.026C697.991 196.896 697.831 196.565 697.547 196.278C697.266 195.987 696.851 195.841 696.3 195.841C695.81 195.841 695.359 195.969 694.947 196.224C694.535 196.477 694.189 196.833 693.909 197.295C693.628 197.753 693.438 198.291 693.339 198.909C693.232 199.541 693.241 200.092 693.365 200.56C693.49 201.029 693.715 201.393 694.042 201.652C694.368 201.912 694.78 202.041 695.278 202.041C695.604 202.041 695.91 201.984 696.194 201.871C696.478 201.757 696.73 201.594 696.95 201.381C697.17 201.168 697.344 200.912 697.472 200.614H698.729C698.573 201.097 698.323 201.532 697.978 201.919C697.634 202.302 697.216 202.608 696.726 202.835C696.236 203.059 695.689 203.17 695.086 203.17ZM700.689 195.99L700.881 194.818H707.529L707.337 195.99H704.653L703.502 203H702.245L703.395 195.99H700.689ZM707.999 203L709.363 194.818H712.708C713.581 194.818 714.245 195.019 714.7 195.42C715.155 195.818 715.329 196.342 715.222 196.991C715.137 197.492 714.924 197.877 714.583 198.147C714.242 198.417 713.837 198.6 713.368 198.696C713.66 198.739 713.933 198.845 714.189 199.016C714.448 199.186 714.645 199.42 714.78 199.719C714.918 200.017 714.952 200.379 714.881 200.805C714.81 201.224 714.64 201.599 714.37 201.929C714.103 202.26 713.755 202.521 713.326 202.712C712.9 202.904 712.41 203 711.856 203H707.999ZM709.384 201.849H712.047C712.484 201.849 712.843 201.746 713.123 201.54C713.404 201.331 713.571 201.05 713.624 200.699C713.699 200.273 713.631 199.939 713.422 199.697C713.216 199.456 712.9 199.335 712.473 199.335H709.81L709.384 201.849ZM709.981 198.249H712.133C712.466 198.249 712.763 198.202 713.022 198.11C713.281 198.014 713.491 197.879 713.651 197.705C713.81 197.528 713.908 197.318 713.944 197.077C714.008 196.736 713.91 196.466 713.651 196.267C713.395 196.068 713.017 195.969 712.516 195.969H710.364L709.981 198.249ZM718.808 203.192C718.29 203.192 717.835 203.094 717.445 202.899C717.054 202.7 716.765 202.414 716.576 202.041C716.388 201.665 716.337 201.21 716.422 200.678C716.504 200.209 716.662 199.829 716.896 199.538C717.13 199.243 717.414 199.012 717.748 198.845C718.086 198.675 718.448 198.549 718.835 198.467C719.225 198.382 719.614 198.316 720.001 198.27C720.506 198.206 720.916 198.156 721.232 198.121C721.548 198.085 721.786 198.027 721.946 197.945C722.105 197.863 722.203 197.723 722.239 197.524V197.482C722.324 196.96 722.255 196.553 722.031 196.262C721.807 195.967 721.408 195.82 720.832 195.82C720.236 195.82 719.737 195.951 719.336 196.214C718.934 196.477 718.638 196.757 718.446 197.055L717.338 196.629C717.629 196.132 717.977 195.745 718.382 195.468C718.787 195.187 719.211 194.992 719.655 194.882C720.099 194.768 720.527 194.712 720.939 194.712C721.202 194.712 721.498 194.744 721.828 194.808C722.159 194.868 722.468 194.994 722.755 195.186C723.047 195.377 723.265 195.667 723.411 196.054C723.56 196.441 723.581 196.96 723.474 197.609L722.58 203H721.322L721.514 201.892H721.45C721.337 202.07 721.163 202.26 720.928 202.462C720.697 202.664 720.404 202.837 720.049 202.979C719.698 203.121 719.284 203.192 718.808 203.192ZM719.17 202.062C719.668 202.062 720.103 201.965 720.475 201.77C720.852 201.574 721.154 201.322 721.381 201.013C721.612 200.704 721.756 200.379 721.812 200.038L722.004 198.888C721.94 198.952 721.814 199.01 721.626 199.064C721.438 199.113 721.225 199.158 720.987 199.197C720.752 199.232 720.523 199.264 720.3 199.293C720.08 199.317 719.902 199.339 719.767 199.357C719.433 199.399 719.115 199.468 718.814 199.564C718.515 199.657 718.263 199.797 718.057 199.985C717.855 200.17 717.729 200.422 717.679 200.741C717.604 201.178 717.709 201.509 717.993 201.732C718.277 201.952 718.67 202.062 719.17 202.062Z" fill="#2E7E7C"/>
<path d="M196.5 213L175.282 176.25L217.718 176.25L196.5 213Z" fill="#F4F7FB"/>
<path d="M453 181C453 230.153 413.153 270 364 270C314.847 270 275 230.153 275 181C275 131.847 314.847 92 364 92C413.153 92 453 131.847 453 181Z" fill="white"/>
<path d="M91.4595 63L93.2706 52.0909H97.0845C97.8445 52.0909 98.4499 52.2223 98.9009 52.4851C99.3519 52.7443 99.6609 53.0941 99.8278 53.5344C99.9947 53.9712 100.032 54.456 99.9396 54.9886C99.8615 55.4574 99.7141 55.8445 99.4975 56.1499C99.2844 56.4553 99.0288 56.6967 98.7305 56.8743C98.4357 57.0518 98.1286 57.1832 97.8089 57.2685L97.7876 57.375C98.1143 57.3963 98.4286 57.5135 98.7305 57.7266C99.0323 57.9396 99.2649 58.245 99.4283 58.6428C99.5916 59.0405 99.6271 59.527 99.5348 60.1023C99.4425 60.6491 99.2347 61.141 98.9116 61.5778C98.5884 62.0146 98.1374 62.3608 97.5586 62.6165C96.9798 62.8722 96.2607 63 95.4013 63H91.4595ZM92.9723 61.8281H95.593C96.456 61.8281 97.0969 61.6612 97.516 61.3274C97.9386 60.9901 98.1925 60.5817 98.2777 60.1023C98.3345 59.733 98.2937 59.392 98.1552 59.0795C98.0202 58.7635 97.7947 58.5114 97.4787 58.3232C97.1662 58.1314 96.772 58.0355 96.2962 58.0355H93.6115L92.9723 61.8281ZM93.8033 56.8849H96.2536C96.6513 56.8849 97.0241 56.8068 97.3722 56.6506C97.7202 56.4943 98.0114 56.2741 98.2457 55.9901C98.4801 55.706 98.6257 55.3722 98.6825 54.9886C98.7678 54.5092 98.6719 54.1026 98.3949 53.7688C98.1179 53.4315 97.6172 53.2628 96.8928 53.2628H94.3999L93.8033 56.8849ZM103.005 57.7798H105.349C106.308 57.7798 106.998 58.0231 107.421 58.5096C107.847 58.9961 108.002 59.6122 107.884 60.358C107.799 60.848 107.609 61.2937 107.314 61.695C107.02 62.0927 106.633 62.4105 106.153 62.6484C105.674 62.8828 105.115 63 104.475 63H101.045L102.409 54.8182H103.666L102.494 61.8281H104.667C105.168 61.8281 105.599 61.6985 105.961 61.4393C106.327 61.1765 106.542 60.8374 106.606 60.4219C106.681 59.9851 106.579 59.6317 106.302 59.3619C106.029 59.0884 105.647 58.9517 105.157 58.9517H102.813L103.005 57.7798ZM108.737 63L110.1 54.8182H111.357L109.994 63H108.737ZM120.242 51.75L120.754 52.517C120.47 52.7585 120.155 52.9272 119.811 53.0231C119.47 53.119 119.092 53.1776 118.676 53.1989C118.264 53.2202 117.806 53.2415 117.302 53.2628C116.727 53.2841 116.23 53.4226 115.811 53.6783C115.395 53.9339 115.047 54.3033 114.767 54.7862C114.486 55.2692 114.259 55.8622 114.085 56.5653H114.191C114.553 56.054 114.999 55.6776 115.528 55.4361C116.057 55.1946 116.606 55.0739 117.174 55.0739C117.81 55.0739 118.357 55.223 118.815 55.5213C119.276 55.8196 119.608 56.2617 119.811 56.8477C120.013 57.4336 120.044 58.1562 119.901 59.0156C119.759 59.8714 119.486 60.6101 119.081 61.2315C118.676 61.853 118.172 62.3324 117.568 62.6697C116.968 63.0036 116.304 63.1705 115.576 63.1705C114.845 63.1705 114.232 62.9982 113.738 62.6538C113.245 62.3058 112.9 61.7908 112.705 61.109C112.51 60.4237 112.494 59.5767 112.657 58.5682L112.806 57.6946C113.112 55.8729 113.651 54.4915 114.426 53.5504C115.203 52.6094 116.219 52.1229 117.472 52.0909C117.913 52.0767 118.303 52.0732 118.644 52.0803C118.989 52.0874 119.291 52.0714 119.55 52.0323C119.813 51.9933 120.044 51.8991 120.242 51.75ZM115.747 62.0412C116.244 62.0412 116.691 61.9169 117.089 61.6683C117.49 61.4197 117.824 61.07 118.09 60.619C118.357 60.1644 118.541 59.63 118.644 59.0156C118.744 58.419 118.731 57.9112 118.607 57.4922C118.483 57.0732 118.259 56.7536 117.936 56.5334C117.613 56.3132 117.203 56.2031 116.705 56.2031C116.34 56.2031 116.001 56.2653 115.688 56.3896C115.376 56.5138 115.095 56.6967 114.846 56.9382C114.601 57.1797 114.394 57.4744 114.223 57.8224C114.056 58.1705 113.932 58.5682 113.85 59.0156C113.698 59.9318 113.79 60.6651 114.127 61.2156C114.468 61.766 115.008 62.0412 115.747 62.0412ZM124.534 63.1705C123.782 63.1705 123.151 62.9911 122.643 62.6325C122.136 62.2738 121.777 61.7713 121.567 61.125C121.361 60.4787 121.328 59.7259 121.466 58.8665C121.601 58.0284 121.869 57.2987 122.271 56.6772C122.675 56.0522 123.178 55.5692 123.778 55.2283C124.382 54.8839 125.046 54.7116 125.77 54.7116C126.523 54.7116 127.152 54.8928 127.656 55.255C128.164 55.6136 128.522 56.1179 128.732 56.7678C128.941 57.4141 128.977 58.1705 128.838 59.0369C128.703 59.8679 128.432 60.5941 128.023 61.2156C127.619 61.8335 127.116 62.3146 126.516 62.6591C125.919 63 125.259 63.1705 124.534 63.1705ZM124.556 62.0412C125.131 62.0412 125.63 61.8938 126.052 61.5991C126.479 61.3043 126.823 60.9155 127.086 60.4325C127.352 59.9496 127.532 59.4276 127.624 58.8665C127.709 58.3338 127.706 57.8384 127.613 57.3803C127.521 56.9187 127.324 56.5476 127.022 56.267C126.72 55.983 126.296 55.8409 125.749 55.8409C125.174 55.8409 124.671 55.9901 124.241 56.2884C123.815 56.5866 123.471 56.979 123.208 57.4656C122.945 57.9521 122.769 58.4759 122.681 59.0369C122.595 59.5696 122.597 60.065 122.686 60.5231C122.778 60.9776 122.975 61.3452 123.277 61.6257C123.583 61.9027 124.009 62.0412 124.556 62.0412ZM129.596 66.0682L131.482 54.8182H132.696L132.483 56.1179H132.632C132.746 55.9759 132.902 55.7947 133.101 55.5746C133.303 55.3509 133.575 55.152 133.916 54.978C134.26 54.8004 134.699 54.7116 135.232 54.7116C135.921 54.7116 136.498 54.8839 136.963 55.2283C137.428 55.5728 137.757 56.0611 137.948 56.6932C138.14 57.3253 138.165 58.071 138.023 58.9304C137.881 59.7969 137.609 60.5479 137.208 61.1836C136.807 61.8157 136.317 62.3058 135.738 62.6538C135.159 62.9982 134.529 63.1705 133.847 63.1705C133.321 63.1705 132.915 63.0835 132.627 62.9094C132.339 62.7319 132.13 62.5312 131.998 62.3075C131.867 62.0803 131.766 61.892 131.695 61.7429H131.588L130.864 66.0682H129.596ZM132.036 58.9091C131.936 59.527 131.936 60.0721 132.036 60.5444C132.139 61.0131 132.343 61.3807 132.648 61.647C132.957 61.9098 133.364 62.0412 133.868 62.0412C134.394 62.0412 134.854 61.9027 135.248 61.6257C135.645 61.3452 135.972 60.9687 136.228 60.4964C136.487 60.0206 136.666 59.4915 136.766 58.9091C136.858 58.3338 136.855 57.8153 136.755 57.3537C136.656 56.8885 136.453 56.521 136.148 56.2511C135.843 55.9776 135.423 55.8409 134.891 55.8409C134.379 55.8409 133.927 55.9705 133.532 56.2298C133.142 56.4854 132.819 56.8441 132.563 57.3058C132.311 57.7638 132.135 58.2983 132.036 58.9091ZM145.463 52.0909H147.04L149.256 61.1463H149.383L154.582 52.0909H156.159L154.348 63H153.112L154.497 54.7116H154.391L149.597 63H148.403L146.379 54.7116H146.273L144.888 63H143.652L145.463 52.0909ZM160.203 63.1705C159.45 63.1705 158.82 62.9911 158.312 62.6325C157.805 62.2738 157.446 61.7713 157.236 61.125C157.03 60.4787 156.997 59.7259 157.135 58.8665C157.27 58.0284 157.538 57.2987 157.939 56.6772C158.344 56.0522 158.847 55.5692 159.447 55.2283C160.051 54.8839 160.715 54.7116 161.439 54.7116C162.192 54.7116 162.82 54.8928 163.325 55.255C163.833 55.6136 164.191 56.1179 164.401 56.7678C164.61 57.4141 164.646 58.1705 164.507 59.0369C164.372 59.8679 164.101 60.5941 163.692 61.2156C163.287 61.8335 162.785 62.3146 162.185 62.6591C161.588 63 160.928 63.1705 160.203 63.1705ZM160.225 62.0412C160.8 62.0412 161.299 61.8938 161.721 61.5991C162.148 61.3043 162.492 60.9155 162.755 60.4325C163.021 59.9496 163.2 59.4276 163.293 58.8665C163.378 58.3338 163.374 57.8384 163.282 57.3803C163.19 56.9187 162.993 56.5476 162.691 56.267C162.389 55.983 161.965 55.8409 161.418 55.8409C160.843 55.8409 160.34 55.9901 159.91 56.2884C159.484 56.5866 159.14 56.979 158.877 57.4656C158.614 57.9521 158.438 58.4759 158.35 59.0369C158.264 59.5696 158.266 60.065 158.355 60.5231C158.447 60.9776 158.644 61.3452 158.946 61.6257C159.252 61.9027 159.678 62.0412 160.225 62.0412ZM164.519 65.3438L165.116 61.8281H165.798C165.989 61.6541 166.162 61.4659 166.314 61.2635C166.471 61.0611 166.616 60.8214 166.751 60.5444C166.886 60.2638 167.019 59.9229 167.151 59.5217C167.282 59.1168 167.421 58.6286 167.566 58.0568L168.376 54.8182H173.575L172.424 61.8281H173.681L173.085 65.3438H171.828L172.211 63H166.16L165.776 65.3438H164.519ZM167.225 61.8281H171.167L172.126 55.9901H169.356L168.802 58.0568C168.571 58.9126 168.337 59.6602 168.099 60.2994C167.864 60.9386 167.573 61.4482 167.225 61.8281ZM178.56 63.1705C177.776 63.1705 177.128 62.9964 176.616 62.6484C176.105 62.2969 175.748 61.8068 175.546 61.1783C175.343 60.5462 175.311 59.8111 175.45 58.973C175.588 58.1349 175.863 57.3963 176.275 56.7571C176.687 56.1143 177.2 55.6136 177.815 55.255C178.429 54.8928 179.104 54.7116 179.839 54.7116C180.265 54.7116 180.675 54.7827 181.069 54.9247C181.464 55.0668 181.804 55.2976 182.092 55.6172C182.38 55.9332 182.58 56.3523 182.694 56.8743C182.808 57.3963 182.801 58.0391 182.673 58.8026L182.587 59.3352H176.281L176.451 58.2486H181.479C181.561 57.7869 181.54 57.375 181.416 57.0128C181.295 56.6506 181.084 56.3647 180.782 56.1552C180.483 55.9457 180.105 55.8409 179.647 55.8409C179.175 55.8409 178.734 55.9687 178.326 56.2244C177.918 56.4766 177.577 56.7962 177.303 57.1832C177.03 57.5668 176.859 57.9574 176.792 58.3551L176.643 59.2926C176.536 59.9709 176.552 60.5107 176.691 60.9119C176.833 61.3132 177.08 61.6026 177.431 61.7802C177.783 61.9542 178.223 62.0412 178.752 62.0412C179.09 62.0412 179.4 61.995 179.684 61.9027C179.968 61.8068 180.222 61.6648 180.446 61.4766C180.67 61.2848 180.858 61.0469 181.011 60.7628L182.161 61.1037C181.966 61.5156 181.691 61.8778 181.336 62.1903C180.984 62.4993 180.572 62.7408 180.1 62.9148C179.631 63.0852 179.118 63.1705 178.56 63.1705ZM183.187 63L183.378 61.8281H183.677C183.922 61.8281 184.133 61.7802 184.311 61.6843C184.492 61.5849 184.653 61.4126 184.795 61.1676C184.941 60.919 185.078 60.5746 185.206 60.1342C185.337 59.6903 185.474 59.1257 185.616 58.4403L186.361 54.8182H191.816L190.452 63H189.195L190.367 55.9901H187.363L186.745 58.9091C186.606 59.5803 186.448 60.1715 186.271 60.6829C186.097 61.1907 185.889 61.6168 185.648 61.9613C185.41 62.3058 185.124 62.565 184.79 62.739C184.46 62.913 184.067 63 183.613 63H183.187ZM196.168 63.1705C195.383 63.1705 194.735 62.9964 194.224 62.6484C193.712 62.2969 193.355 61.8068 193.153 61.1783C192.951 60.5462 192.919 59.8111 193.057 58.973C193.196 58.1349 193.471 57.3963 193.883 56.7571C194.295 56.1143 194.808 55.6136 195.422 55.255C196.036 54.8928 196.711 54.7116 197.446 54.7116C197.872 54.7116 198.283 54.7827 198.677 54.9247C199.071 55.0668 199.412 55.2976 199.699 55.6172C199.987 55.9332 200.188 56.3523 200.301 56.8743C200.415 57.3963 200.408 58.0391 200.28 58.8026L200.195 59.3352H193.888L194.059 58.2486H199.087C199.169 57.7869 199.147 57.375 199.023 57.0128C198.902 56.6506 198.691 56.3647 198.389 56.1552C198.091 55.9457 197.713 55.8409 197.255 55.8409C196.782 55.8409 196.342 55.9687 195.934 56.2244C195.525 56.4766 195.184 56.7962 194.911 57.1832C194.637 57.5668 194.467 57.9574 194.399 58.3551L194.25 59.2926C194.144 59.9709 194.16 60.5107 194.298 60.9119C194.44 61.3132 194.687 61.6026 195.039 61.7802C195.39 61.9542 195.831 62.0412 196.36 62.0412C196.697 62.0412 197.008 61.995 197.292 61.9027C197.576 61.8068 197.83 61.6648 198.054 61.4766C198.277 61.2848 198.465 61.0469 198.618 60.7628L199.769 61.1037C199.573 61.5156 199.298 61.8778 198.943 62.1903C198.592 62.4993 198.18 62.7408 197.707 62.9148C197.239 63.0852 196.725 63.1705 196.168 63.1705ZM203.095 61.1463L208.081 54.8182H209.53L208.166 63H206.909L207.953 56.6719L202.989 63H201.519L202.882 54.8182H204.139L203.095 61.1463ZM207.687 52.0909H208.859C208.763 52.6662 208.484 53.1367 208.022 53.5025C207.564 53.8683 206.994 54.0511 206.313 54.0511C205.641 54.0511 205.139 53.8683 204.805 53.5025C204.471 53.1367 204.352 52.6662 204.448 52.0909H205.62C205.574 52.3679 205.611 52.6112 205.732 52.8207C205.853 53.0302 206.1 53.1349 206.472 53.1349C206.845 53.1349 207.129 53.0302 207.325 52.8207C207.52 52.6112 207.641 52.3679 207.687 52.0909ZM125.21 80.1463L130.195 73.8182H131.644L130.281 82H129.023L130.067 75.6719L125.103 82H123.633L124.996 73.8182H126.254L125.21 80.1463ZM132.423 79.9119H133.766C133.73 80.2812 133.849 80.5618 134.122 80.7536C134.399 80.9453 134.785 81.0412 135.278 81.0412C135.783 81.0412 136.23 80.9382 136.621 80.7322C137.015 80.5227 137.249 80.1854 137.324 79.7202C137.37 79.4467 137.343 79.2088 137.244 79.0064C137.144 78.8004 136.981 78.6406 136.754 78.527C136.53 78.4134 136.251 78.3565 135.918 78.3565H134.511L134.703 77.2273H136.109C136.606 77.2273 136.994 77.1136 137.271 76.8864C137.547 76.6591 137.714 76.375 137.771 76.0341C137.832 75.6683 137.75 75.3754 137.526 75.1552C137.302 74.9315 136.951 74.8196 136.472 74.8196C135.996 74.8196 135.58 74.9279 135.225 75.1445C134.87 75.3576 134.653 75.6328 134.575 75.9702H133.254C133.343 75.5298 133.544 75.141 133.856 74.8036C134.169 74.4627 134.561 74.1964 135.033 74.0046C135.509 73.8093 136.031 73.7116 136.599 73.7116C137.175 73.7116 137.658 73.8129 138.048 74.0153C138.439 74.2141 138.721 74.4858 138.895 74.8303C139.073 75.1712 139.124 75.5582 139.05 75.9915C138.975 76.4531 138.783 76.826 138.474 77.1101C138.169 77.3942 137.814 77.5966 137.409 77.7173L137.388 77.8026C137.693 77.8239 137.945 77.9233 138.144 78.1009C138.347 78.2749 138.487 78.5039 138.565 78.788C138.647 79.0685 138.659 79.3793 138.602 79.7202C138.521 80.2173 138.316 80.6506 137.99 81.0199C137.663 81.3857 137.251 81.6697 136.754 81.8722C136.257 82.071 135.708 82.1705 135.108 82.1705C134.529 82.1705 134.027 82.0763 133.6 81.8881C133.178 81.6964 132.86 81.4318 132.647 81.0945C132.437 80.7536 132.363 80.3594 132.423 79.9119ZM150.798 82L147.879 76.9929H146.536L145.705 82H144.384L146.195 71.0909H147.516L146.728 75.821H147.303L152.46 71.0909H154.036L148.837 75.8849L152.374 82H150.798ZM156.297 82.1918C155.779 82.1918 155.324 82.0941 154.934 81.8988C154.543 81.6999 154.254 81.4141 154.066 81.0412C153.877 80.6648 153.826 80.2102 153.911 79.6776C153.993 79.2088 154.151 78.8288 154.385 78.5376C154.62 78.2429 154.904 78.0121 155.237 77.8452C155.575 77.6747 155.937 77.5487 156.324 77.467C156.715 77.3817 157.104 77.3161 157.491 77.2699C157.995 77.206 158.405 77.1562 158.721 77.1207C159.037 77.0852 159.275 77.0266 159.435 76.945C159.595 76.8633 159.692 76.723 159.728 76.5241V76.4815C159.813 75.9595 159.744 75.5529 159.52 75.2617C159.296 74.967 158.897 74.8196 158.322 74.8196C157.725 74.8196 157.226 74.951 156.825 75.2138C156.424 75.4766 156.127 75.7571 155.935 76.0554L154.827 75.6293C155.119 75.1321 155.467 74.745 155.871 74.468C156.276 74.1875 156.701 73.9922 157.144 73.8821C157.588 73.7685 158.016 73.7116 158.428 73.7116C158.691 73.7116 158.987 73.7436 159.318 73.8075C159.648 73.8679 159.957 73.994 160.245 74.1857C160.536 74.3775 160.754 74.6669 160.9 75.054C161.049 75.4411 161.07 75.9595 160.964 76.6094L160.069 82H158.812L159.003 80.892H158.94C158.826 81.0696 158.652 81.2596 158.418 81.462C158.187 81.6644 157.894 81.8366 157.539 81.9787C157.187 82.1207 156.773 82.1918 156.297 82.1918ZM156.66 81.0625C157.157 81.0625 157.592 80.9648 157.965 80.7695C158.341 80.5742 158.643 80.3221 158.87 80.0131C159.101 79.7042 159.245 79.3793 159.302 79.0384L159.494 77.8878C159.43 77.9517 159.304 78.0103 159.115 78.0636C158.927 78.1133 158.714 78.1577 158.476 78.1967C158.242 78.2322 158.013 78.2642 157.789 78.2926C157.569 78.3175 157.391 78.3388 157.256 78.3565C156.922 78.3991 156.605 78.4684 156.303 78.5643C156.005 78.6566 155.752 78.7969 155.546 78.9851C155.344 79.1697 155.218 79.4219 155.168 79.7415C155.094 80.1783 155.198 80.5085 155.483 80.7322C155.767 80.9524 156.159 81.0625 156.66 81.0625ZM162.422 74.9901L162.614 73.8182H169.261L169.07 74.9901H166.385L165.234 82H163.977L165.128 74.9901H162.422ZM171.693 82.1918C171.175 82.1918 170.72 82.0941 170.329 81.8988C169.939 81.6999 169.649 81.4141 169.461 81.0412C169.273 80.6648 169.221 80.2102 169.307 79.6776C169.388 79.2088 169.546 78.8288 169.781 78.5376C170.015 78.2429 170.299 78.0121 170.633 77.8452C170.97 77.6747 171.333 77.5487 171.72 77.467C172.11 77.3817 172.499 77.3161 172.886 77.2699C173.39 77.206 173.801 77.1562 174.117 77.1207C174.433 77.0852 174.671 77.0266 174.83 76.945C174.99 76.8633 175.088 76.723 175.123 76.5241V76.4815C175.209 75.9595 175.139 75.5529 174.916 75.2617C174.692 74.967 174.292 74.8196 173.717 74.8196C173.121 74.8196 172.622 74.951 172.22 75.2138C171.819 75.4766 171.523 75.7571 171.331 76.0554L170.223 75.6293C170.514 75.1321 170.862 74.745 171.267 74.468C171.672 74.1875 172.096 73.9922 172.54 73.8821C172.984 73.7685 173.412 73.7116 173.824 73.7116C174.086 73.7116 174.383 73.7436 174.713 73.8075C175.044 73.8679 175.352 73.994 175.64 74.1857C175.931 74.3775 176.15 74.6669 176.295 75.054C176.444 75.4411 176.466 75.9595 176.359 76.6094L175.464 82H174.207L174.399 80.892H174.335C174.221 81.0696 174.047 81.2596 173.813 81.462C173.582 81.6644 173.289 81.8366 172.934 81.9787C172.583 82.1207 172.169 82.1918 171.693 82.1918ZM172.055 81.0625C172.552 81.0625 172.987 80.9648 173.36 80.7695C173.737 80.5742 174.039 80.3221 174.266 80.0131C174.497 79.7042 174.64 79.3793 174.697 79.0384L174.889 77.8878C174.825 77.9517 174.699 78.0103 174.511 78.0636C174.323 78.1133 174.11 78.1577 173.872 78.1967C173.637 78.2322 173.408 78.2642 173.184 78.2926C172.964 78.3175 172.787 78.3388 172.652 78.3565C172.318 78.3991 172 78.4684 171.698 78.5643C171.4 78.6566 171.148 78.7969 170.942 78.9851C170.74 79.1697 170.613 79.4219 170.564 79.7415C170.489 80.1783 170.594 80.5085 170.878 80.7322C171.162 80.9524 171.555 81.0625 172.055 81.0625ZM177.034 82L177.226 80.8281H177.524C177.769 80.8281 177.981 80.7802 178.158 80.6843C178.339 80.5849 178.501 80.4126 178.643 80.1676C178.789 79.919 178.925 79.5746 179.053 79.1342C179.185 78.6903 179.321 78.1257 179.463 77.4403L180.209 73.8182H185.664L184.3 82H183.043L184.215 74.9901H181.21L180.593 77.9091C180.454 78.5803 180.296 79.1715 180.119 79.6829C179.945 80.1907 179.737 80.6168 179.495 80.9613C179.257 81.3058 178.972 81.565 178.638 81.739C178.307 81.913 177.915 82 177.46 82H177.034ZM189.984 82.1705C189.231 82.1705 188.6 81.9911 188.093 81.6325C187.585 81.2738 187.226 80.7713 187.017 80.125C186.811 79.4787 186.777 78.7259 186.915 77.8665C187.05 77.0284 187.318 76.2987 187.72 75.6772C188.125 75.0522 188.627 74.5692 189.227 74.2283C189.831 73.8839 190.495 73.7116 191.219 73.7116C191.972 73.7116 192.601 73.8928 193.105 74.255C193.613 74.6136 193.972 75.1179 194.181 75.7678C194.391 76.4141 194.426 77.1705 194.288 78.0369C194.153 78.8679 193.881 79.5941 193.473 80.2156C193.068 80.8335 192.565 81.3146 191.965 81.6591C191.369 82 190.708 82.1705 189.984 82.1705ZM190.005 81.0412C190.58 81.0412 191.079 80.8938 191.502 80.5991C191.928 80.3043 192.272 79.9155 192.535 79.4325C192.801 78.9496 192.981 78.4276 193.073 77.8665C193.158 77.3338 193.155 76.8384 193.062 76.3803C192.97 75.9187 192.773 75.5476 192.471 75.267C192.169 74.983 191.745 74.8409 191.198 74.8409C190.623 74.8409 190.12 74.9901 189.691 75.2884C189.264 75.5866 188.92 75.979 188.657 76.4656C188.394 76.9521 188.219 77.4759 188.13 78.0369C188.045 78.5696 188.046 79.065 188.135 79.5231C188.228 79.9776 188.425 80.3452 188.726 80.6257C189.032 80.9027 189.458 81.0412 190.005 81.0412ZM201.97 73.8182L201.778 74.9901H197.986L196.814 82H195.557L196.92 73.8182H201.97ZM204.403 82.1918C203.884 82.1918 203.43 82.0941 203.039 81.8988C202.649 81.6999 202.359 81.4141 202.171 81.0412C201.983 80.6648 201.931 80.2102 202.017 79.6776C202.098 79.2088 202.256 78.8288 202.491 78.5376C202.725 78.2429 203.009 78.0121 203.343 77.8452C203.68 77.6747 204.043 77.5487 204.43 77.467C204.82 77.3817 205.209 77.3161 205.596 77.2699C206.1 77.206 206.511 77.1562 206.827 77.1207C207.143 77.0852 207.381 77.0266 207.54 76.945C207.7 76.8633 207.798 76.723 207.833 76.5241V76.4815C207.919 75.9595 207.849 75.5529 207.626 75.2617C207.402 74.967 207.002 74.8196 206.427 74.8196C205.831 74.8196 205.332 74.951 204.93 75.2138C204.529 75.4766 204.233 75.7571 204.041 76.0554L202.933 75.6293C203.224 75.1321 203.572 74.745 203.977 74.468C204.382 74.1875 204.806 73.9922 205.25 73.8821C205.694 73.7685 206.122 73.7116 206.534 73.7116C206.796 73.7116 207.093 73.7436 207.423 73.8075C207.753 73.8679 208.062 73.994 208.35 74.1857C208.641 74.3775 208.86 74.6669 209.005 75.054C209.154 75.4411 209.176 75.9595 209.069 76.6094L208.174 82H206.917L207.109 80.892H207.045C206.931 81.0696 206.757 81.2596 206.523 81.462C206.292 81.6644 205.999 81.8366 205.644 81.9787C205.293 82.1207 204.879 82.1918 204.403 82.1918ZM204.765 81.0625C205.262 81.0625 205.697 80.9648 206.07 80.7695C206.447 80.5742 206.748 80.3221 206.976 80.0131C207.207 79.7042 207.35 79.3793 207.407 79.0384L207.599 77.8878C207.535 77.9517 207.409 78.0103 207.221 78.0636C207.033 78.1133 206.82 78.1577 206.582 78.1967C206.347 78.2322 206.118 78.2642 205.894 78.2926C205.674 78.3175 205.497 78.3388 205.362 78.3565C205.028 78.3991 204.71 78.4684 204.408 78.5643C204.11 78.6566 203.858 78.7969 203.652 78.9851C203.449 79.1697 203.323 79.4219 203.274 79.7415C203.199 80.1783 203.304 80.5085 203.588 80.7322C203.872 80.9524 204.264 81.0625 204.765 81.0625Z" fill="#2E7E7C"/>
<circle cx="252" cy="306" r="27" fill="#F4F7FB"/>
<circle cx="252" cy="306" r="18" fill="#2E7E7C"/>
<path d="M246.537 312L246.741 310.849L251.83 306.119C252.426 305.565 252.923 305.082 253.319 304.668C253.719 304.255 254.031 303.867 254.252 303.505C254.478 303.143 254.625 302.761 254.693 302.361C254.77 301.901 254.729 301.502 254.572 301.165C254.414 300.829 254.165 300.569 253.824 300.386C253.483 300.202 253.074 300.111 252.597 300.111C252.094 300.111 251.636 300.215 251.222 300.424C250.809 300.629 250.466 300.918 250.193 301.293C249.92 301.664 249.741 302.097 249.656 302.591H248.148C248.276 301.824 248.567 301.151 249.023 300.571C249.484 299.991 250.048 299.54 250.717 299.216C251.391 298.892 252.111 298.73 252.878 298.73C253.645 298.73 254.295 298.892 254.827 299.216C255.36 299.54 255.746 299.977 255.984 300.526C256.223 301.076 256.287 301.688 256.176 302.361C256.091 302.847 255.923 303.317 255.671 303.773C255.42 304.229 255.034 304.739 254.514 305.301C253.999 305.859 253.3 306.541 252.418 307.347L248.966 310.491L248.94 310.594H255.026L254.795 312H246.537Z" fill="white"/>
<path d="M339.739 222.631C339.547 223.767 339.179 224.749 338.636 225.576C338.093 226.4 337.429 227.036 336.644 227.483C335.859 227.927 335.009 228.149 334.092 228.149C333.148 228.149 332.343 227.918 331.679 227.457C331.019 226.991 330.547 226.335 330.262 225.486C329.982 224.634 329.938 223.625 330.129 222.46C330.321 221.324 330.689 220.344 331.232 219.52C331.775 218.692 332.441 218.057 333.229 217.613C334.018 217.165 334.874 216.942 335.797 216.942C336.734 216.942 337.532 217.174 338.189 217.64C338.849 218.101 339.32 218.758 339.6 219.61C339.884 220.459 339.93 221.466 339.739 222.631ZM338.482 222.46C338.638 221.53 338.615 220.747 338.412 220.111C338.21 219.475 337.874 218.994 337.406 218.668C336.937 218.341 336.379 218.178 335.733 218.178C335.058 218.178 334.419 218.35 333.815 218.694C333.212 219.035 332.695 219.538 332.265 220.202C331.836 220.862 331.543 221.672 331.386 222.631C331.23 223.561 331.253 224.344 331.456 224.98C331.658 225.615 331.994 226.097 332.462 226.423C332.931 226.75 333.489 226.913 334.135 226.913C334.81 226.913 335.449 226.743 336.053 226.402C336.656 226.058 337.173 225.555 337.603 224.895C338.032 224.23 338.325 223.419 338.482 222.46ZM341.598 220.99L341.789 219.818H348.437L348.245 220.99H345.561L344.41 228H343.153L344.304 220.99H341.598ZM355.321 219.818L355.129 220.99H351.336L350.164 228H348.907L350.271 219.818H355.321ZM355.281 231.068L357.166 219.818H358.381L358.168 221.118H358.317C358.43 220.976 358.587 220.795 358.786 220.575C358.988 220.351 359.26 220.152 359.601 219.978C359.945 219.8 360.384 219.712 360.916 219.712C361.605 219.712 362.182 219.884 362.647 220.228C363.113 220.573 363.441 221.061 363.633 221.693C363.825 222.325 363.85 223.071 363.707 223.93C363.565 224.797 363.294 225.548 362.892 226.184C362.491 226.816 362.001 227.306 361.422 227.654C360.843 227.998 360.213 228.17 359.531 228.17C359.006 228.17 358.599 228.083 358.312 227.909C358.024 227.732 357.814 227.531 357.683 227.308C357.552 227.08 357.45 226.892 357.379 226.743H357.273L356.548 231.068H355.281ZM357.72 223.909C357.621 224.527 357.621 225.072 357.72 225.544C357.823 226.013 358.027 226.381 358.333 226.647C358.642 226.91 359.048 227.041 359.553 227.041C360.078 227.041 360.538 226.903 360.932 226.626C361.33 226.345 361.657 225.969 361.912 225.496C362.172 225.021 362.351 224.491 362.45 223.909C362.543 223.334 362.539 222.815 362.44 222.354C362.34 221.888 362.138 221.521 361.832 221.251C361.527 220.978 361.108 220.841 360.575 220.841C360.064 220.841 359.611 220.971 359.217 221.23C358.826 221.485 358.503 221.844 358.248 222.306C357.995 222.764 357.82 223.298 357.72 223.909ZM364.963 231.068C364.75 231.068 364.562 231.05 364.399 231.015C364.239 230.983 364.129 230.951 364.068 230.919L364.58 229.811C364.871 229.889 365.13 229.912 365.357 229.88C365.588 229.852 365.807 229.74 366.013 229.545C366.222 229.353 366.441 229.051 366.668 228.639L367.019 228L365.379 219.818H366.689L367.861 226.359H367.946L371.291 219.818H372.708L367.691 229.183C367.456 229.619 367.199 229.976 366.918 230.253C366.638 230.53 366.334 230.734 366.007 230.866C365.681 231.001 365.333 231.068 364.963 231.068ZM372.844 225.912H374.186C374.151 226.281 374.27 226.562 374.543 226.754C374.82 226.945 375.206 227.041 375.699 227.041C376.203 227.041 376.651 226.938 377.042 226.732C377.436 226.523 377.67 226.185 377.745 225.72C377.791 225.447 377.764 225.209 377.665 225.006C377.565 224.8 377.402 224.641 377.175 224.527C376.951 224.413 376.672 224.357 376.338 224.357H374.932L375.124 223.227H376.53C377.027 223.227 377.414 223.114 377.691 222.886C377.968 222.659 378.135 222.375 378.192 222.034C378.252 221.668 378.171 221.375 377.947 221.155C377.723 220.931 377.372 220.82 376.892 220.82C376.417 220.82 376.001 220.928 375.646 221.145C375.291 221.358 375.074 221.633 374.996 221.97H373.675C373.764 221.53 373.964 221.141 374.277 220.804C374.589 220.463 374.982 220.196 375.454 220.005C375.93 219.809 376.452 219.712 377.02 219.712C377.596 219.712 378.078 219.813 378.469 220.015C378.86 220.214 379.142 220.486 379.316 220.83C379.494 221.171 379.545 221.558 379.471 221.991C379.396 222.453 379.204 222.826 378.895 223.11C378.59 223.394 378.235 223.597 377.83 223.717L377.809 223.803C378.114 223.824 378.366 223.923 378.565 224.101C378.767 224.275 378.908 224.504 378.986 224.788C379.067 225.069 379.08 225.379 379.023 225.72C378.941 226.217 378.737 226.651 378.411 227.02C378.084 227.386 377.672 227.67 377.175 227.872C376.678 228.071 376.129 228.17 375.529 228.17C374.95 228.17 374.447 228.076 374.021 227.888C373.599 227.696 373.281 227.432 373.068 227.094C372.858 226.754 372.784 226.359 372.844 225.912ZM380.416 228L381.78 219.818H383.037L382.44 223.376H383.271L386.808 219.818H388.427L384.464 223.76L387.106 228H385.487L383.378 224.548H382.248L381.673 228H380.416ZM390.859 228.192C390.341 228.192 389.886 228.094 389.495 227.899C389.105 227.7 388.815 227.414 388.627 227.041C388.439 226.665 388.387 226.21 388.473 225.678C388.554 225.209 388.712 224.829 388.947 224.538C389.181 224.243 389.465 224.012 389.799 223.845C390.136 223.675 390.499 223.549 390.886 223.467C391.276 223.382 391.665 223.316 392.052 223.27C392.556 223.206 392.967 223.156 393.283 223.121C393.599 223.085 393.837 223.027 393.996 222.945C394.156 222.863 394.254 222.723 394.289 222.524V222.482C394.375 221.96 394.305 221.553 394.082 221.262C393.858 220.967 393.458 220.82 392.883 220.82C392.287 220.82 391.788 220.951 391.386 221.214C390.985 221.477 390.689 221.757 390.497 222.055L389.389 221.629C389.68 221.132 390.028 220.745 390.433 220.468C390.838 220.187 391.262 219.992 391.706 219.882C392.15 219.768 392.578 219.712 392.99 219.712C393.252 219.712 393.549 219.744 393.879 219.808C394.21 219.868 394.518 219.994 394.806 220.186C395.097 220.377 395.316 220.667 395.461 221.054C395.61 221.441 395.632 221.96 395.525 222.609L394.63 228H393.373L393.565 226.892H393.501C393.387 227.07 393.213 227.26 392.979 227.462C392.748 227.664 392.455 227.837 392.1 227.979C391.749 228.121 391.335 228.192 390.859 228.192ZM391.221 227.062C391.718 227.062 392.153 226.965 392.526 226.77C392.903 226.574 393.205 226.322 393.432 226.013C393.663 225.704 393.806 225.379 393.863 225.038L394.055 223.888C393.991 223.952 393.865 224.01 393.677 224.064C393.489 224.113 393.276 224.158 393.038 224.197C392.803 224.232 392.574 224.264 392.35 224.293C392.13 224.317 391.953 224.339 391.818 224.357C391.484 224.399 391.166 224.468 390.864 224.564C390.566 224.657 390.314 224.797 390.108 224.985C389.906 225.17 389.779 225.422 389.73 225.741C389.655 226.178 389.76 226.509 390.044 226.732C390.328 226.952 390.721 227.062 391.221 227.062Z" fill="#2E7E7C"/>
<circle cx="531" cy="179" r="27" fill="#F4F7FB"/>
<circle cx="531" cy="179" r="18" fill="#2E7E7C"/>
<path d="M530.011 185.179C529.159 185.179 528.42 185.036 527.793 184.751C527.171 184.461 526.707 184.058 526.4 183.543C526.093 183.023 525.984 182.418 526.074 181.727H527.659C527.621 182.145 527.693 182.507 527.876 182.814C528.064 183.121 528.341 183.357 528.707 183.523C529.078 183.69 529.521 183.773 530.037 183.773C530.587 183.773 531.102 183.677 531.584 183.485C532.07 183.293 532.477 183.016 532.805 182.654C533.133 182.288 533.335 181.851 533.412 181.344C533.48 180.888 533.429 180.483 533.259 180.129C533.088 179.776 532.794 179.499 532.376 179.298C531.963 179.094 531.422 178.991 530.753 178.991H529.679L529.909 177.585H530.906C531.426 177.585 531.903 177.487 532.338 177.291C532.773 177.095 533.135 176.82 533.425 176.467C533.714 176.109 533.898 175.689 533.974 175.207C534.047 174.786 534.017 174.419 533.885 174.108C533.757 173.793 533.536 173.548 533.22 173.373C532.909 173.198 532.513 173.111 532.031 173.111C531.571 173.111 531.119 173.194 530.676 173.36C530.237 173.522 529.862 173.759 529.551 174.07C529.24 174.376 529.044 174.747 528.963 175.182H527.429C527.561 174.5 527.857 173.901 528.317 173.386C528.778 172.866 529.338 172.461 529.999 172.171C530.663 171.877 531.366 171.73 532.108 171.73C532.93 171.73 533.608 171.901 534.141 172.241C534.678 172.578 535.061 173.021 535.291 173.571C535.521 174.116 535.585 174.705 535.483 175.335C535.368 176.055 535.072 176.665 534.594 177.163C534.117 177.662 533.536 178.016 532.849 178.224V178.301C533.655 178.442 534.239 178.812 534.601 179.413C534.967 180.01 535.082 180.722 534.946 181.548C534.827 182.29 534.539 182.933 534.083 183.479C533.627 184.02 533.05 184.44 532.351 184.738C531.652 185.032 530.872 185.179 530.011 185.179Z" fill="white"/>
<circle cx="363" cy="137" r="27" fill="#F4F7FB"/>
<circle cx="363" cy="137" r="18" fill="#2E7E7C"/>
<path d="M357.69 140.315L357.895 139.011L365.156 129.909H366.102L365.77 131.929H365.131L359.634 138.807V138.909H367.381L367.151 140.315H357.69ZM363.392 143L363.903 139.906L364.006 139.318L365.565 129.909H367.074L364.901 143H363.392Z" fill="white"/>
<circle cx="240" cy="66" r="27" fill="#F4F7FB"/>
<circle cx="240" cy="66" r="18" fill="#2E7E7C"/>
<path d="M242.312 58.9091L240.139 72H238.554L240.446 60.571H240.369L236.815 62.6932L237.097 61.0824L240.727 58.9091H242.312Z" fill="white"/>
<path d="M397 348.5L360.25 369.718L360.25 327.282L397 348.5Z" fill="#F4F7FB"/>
<rect x="338.927" y="170.927" width="29.1461" height="28.1461" rx="2.17416" stroke="#2E7E7C" stroke-width="1.85393"/>
<circle cx="361" cy="199" r="4.07303" fill="white" stroke="#2E7E7C" stroke-width="1.85393"/>
<circle cx="346" cy="199" r="4.07303" fill="white" stroke="#2E7E7C" stroke-width="1.85393"/>
<path d="M368.81 178.458C368.81 177.257 369.783 176.283 370.984 176.283H382.402C386.405 176.283 389.65 179.529 389.65 183.532V196.5C389.65 197.701 388.677 198.675 387.476 198.675H370.984C369.783 198.675 368.81 197.701 368.81 196.5V178.458Z" stroke="#2E7E7C" stroke-width="1.85393"/>
<circle cx="379" cy="199" r="4.07303" fill="white" stroke="#2E7E7C" stroke-width="1.85393"/>
<path d="M380.006 182.203H389.228V187.538H379.865C379.754 187.538 379.664 187.449 379.664 187.338V182.545C379.664 182.356 379.817 182.203 380.006 182.203Z" stroke="#2E7E7C" stroke-width="1.85393"/>
<path d="M149.312 0.909091L147.139 14H145.554L147.446 2.57102H147.369L143.815 4.69318L144.097 3.08239L147.727 0.909091H149.312Z" fill="white"/>
</svg>
