<svg width="833" height="651" viewBox="0 0 833 651" fill="none" xmlns="http://www.w3.org/2000/svg">
<path d="M0.619141 831.588C109.807 831.588 217.925 810.082 318.802 768.297C419.678 726.513 511.337 665.269 588.544 588.061C665.751 510.854 726.996 419.196 768.78 318.319C810.564 217.443 832.07 109.324 832.07 0.136597L671.004 0.136597C671.004 88.1728 653.664 175.347 619.974 256.682C586.284 338.017 536.904 411.919 474.653 474.17C412.402 536.421 338.499 585.801 257.164 619.491C175.829 653.181 88.6553 670.521 0.619141 670.521L0.619141 831.588Z" fill="#F4F7FB"/>
<path d="M599.309 212.896C622.437 147.79 634.802 79.3501 635.917 10.2671L634.951 10.2515C633.838 79.2296 621.492 147.565 598.399 212.573L599.309 212.896Z" fill="#5C9897"/>
<path d="M207.744 619.073C338.599 575.162 452.174 490.916 532.164 378.431C612.154 265.946 654.444 131.008 652.962 -7.00979L651.971 -6.99914C653.45 130.809 611.225 265.543 531.356 377.857C451.488 490.17 338.085 574.288 207.429 618.133L207.744 619.073Z" fill="#5C9897"/>
<path d="M411.26 485.141C491.44 417.171 553.524 330.388 591.959 232.553L591.06 232.2C552.683 329.886 490.694 416.537 410.635 484.404L411.26 485.141Z" fill="#5C9897"/>
</svg>
