<svg width="1092" height="651" viewBox="0 0 1092 651" fill="none" xmlns="http://www.w3.org/2000/svg">
<path d="M215.472 -181.267C324.659 -181.267 432.778 -159.761 533.654 -117.977C634.531 -76.1923 726.189 -14.948 803.396 62.2594C880.604 139.467 941.848 231.125 983.632 332.002C1025.42 432.878 1046.92 540.996 1046.92 650.184L885.856 650.184C885.856 562.148 868.516 474.974 834.826 393.639C801.136 312.304 751.756 238.402 689.505 176.151C627.254 113.9 553.352 64.5194 472.017 30.8294C390.682 -2.86061 303.508 -20.2006 215.472 -20.2006L215.472 -181.267Z" fill="#F4F7FB"/>
<path d="M1018.82 365.133C1049.82 452.401 1066.39 544.138 1067.89 636.738L1066.59 636.759C1065.1 544.3 1048.55 452.702 1017.6 365.566L1018.82 365.133Z" fill="#F4F7FB" fill-opacity="0.25"/>
<path d="M788.448 -12.8124C954.01 130.195 1060.11 329.949 1085.89 547.199L1084.57 547.355C1058.82 330.436 952.889 130.985 787.578 -11.8051L788.448 -12.8124Z" fill="#F4F7FB" fill-opacity="0.25"/>
<path d="M753.28 -10.975C865.151 79.9761 952.127 197.814 1006.07 331.519L1004.87 332.003C951.008 198.502 864.164 80.8425 752.463 -9.97055L753.28 -10.975Z" fill="#F4F7FB" fill-opacity="0.25"/>
</svg>
