<svg width="26" height="26" viewBox="0 0 26 26" fill="none" xmlns="http://www.w3.org/2000/svg">
<path d="M6.5 2.16699L3.25 6.50033V21.667C3.25 22.2416 3.47827 22.7927 3.8846 23.1991C4.29093 23.6054 4.84203 23.8337 5.41667 23.8337H20.5833C21.158 23.8337 21.7091 23.6054 22.1154 23.1991C22.5217 22.7927 22.75 22.2416 22.75 21.667V6.50033L19.5 2.16699H6.5Z" stroke="#2E7E7C" stroke-width="1.625" stroke-linecap="round" stroke-linejoin="round"/>
<path d="M17.3336 10.833C17.3336 11.9823 16.8771 13.0845 16.0644 13.8971C15.2517 14.7098 14.1495 15.1663 13.0003 15.1663C11.851 15.1663 10.7488 14.7098 9.93613 13.8971C9.12348 13.0845 8.66693 11.9823 8.66693 10.833" stroke="#2E7E7C" stroke-width="1.625" stroke-linecap="round" stroke-linejoin="round"/>
<path d="M3.25 6.5H22.75" stroke="#2E7E7C" stroke-width="1.625" stroke-linecap="round" stroke-linejoin="round"/>
</svg>
