<svg width="172" height="175" viewBox="0 0 172 175" fill="none" xmlns="http://www.w3.org/2000/svg">
<path d="M146.463 174.796C147.25 140.036 135.565 106.137 113.508 79.1982" stroke="#F4F7FB" stroke-opacity="0.48"/>
<path d="M130 171.5C130 154.494 126.637 137.654 120.104 121.942C113.571 106.231 103.995 91.9549 91.9239 79.9297C79.8523 67.9045 65.5212 58.3656 49.7488 51.8576C33.9765 45.3496 17.0718 42 -2.26425e-05 42L-1.88998e-05 84.811C11.4281 84.811 22.7443 87.0533 33.3025 91.4098C43.8607 95.7663 53.4541 102.152 61.535 110.202C69.616 118.251 76.0261 127.808 80.3994 138.326C84.7728 148.843 87.0237 160.116 87.0237 171.5L130 171.5Z" fill="#F4F7FB" fill-opacity="0.9"/>
<path d="M138.5 171.5C138.5 153.378 134.918 135.433 127.958 118.69C120.997 101.947 110.796 86.7345 97.9349 73.9199C85.0741 61.1053 69.806 50.9402 53.0022 44.0049C36.1985 37.0696 18.1883 33.5 -3.14784e-05 33.5" stroke="#F4F7FB" stroke-opacity="0.48"/>
<path d="M106.57 71.3193C92.2718 56.2125 74.9039 44.3194 55.6262 36.434C36.3484 28.5487 15.6045 24.8527 -5.22067 25.5928" stroke="#F4F7FB" stroke-opacity="0.48"/>
</svg>
