<svg width="210" height="210" viewBox="0 0 210 210" fill="none" xmlns="http://www.w3.org/2000/svg">
<path d="M188.848 209.426C188.848 184.662 183.959 160.14 174.461 137.261C164.963 114.382 151.041 93.5942 133.491 76.0835C115.941 58.5727 95.1053 44.6824 72.1748 35.2057C49.2442 25.7289 24.6674 20.8513 -0.15239 20.8513L-0.152374 103.752C13.7563 103.752 27.5287 106.485 40.3786 111.796C53.2285 117.106 64.9042 124.89 74.7391 134.703C84.574 144.516 92.3755 156.165 97.6981 168.986C103.021 181.807 105.76 195.548 105.76 209.426H188.848Z" fill="#F4F7FB" fill-opacity="0.9"/>
<path d="M209.458 209.5C209.458 162.074 193.287 116.059 163.601 79.0163" stroke="white" stroke-width="1.08316"/>
<path d="M148.11 61.7446C114.494 28.2092 70.4436 7.07905 23.1961 1.8269" stroke="white" stroke-width="1.08316"/>
</svg>
