<svg width="221" height="222" viewBox="0 0 221 222" fill="none" xmlns="http://www.w3.org/2000/svg">
<path d="M221.5 2.08355e-05C192.412 1.9564e-05 163.609 5.74221 136.736 16.8988C109.862 28.0553 85.444 44.4077 64.8758 65.0223C44.3076 85.6369 27.9921 110.11 16.8607 137.044C5.72923 163.979 -1.95393e-05 192.847 -2.08137e-05 222L133.942 222C133.942 210.476 136.207 199.064 140.607 188.418C145.007 177.771 151.457 168.097 159.587 159.948C167.718 151.799 177.37 145.335 187.993 140.925C198.616 136.515 210.002 134.245 221.5 134.245L221.5 2.08355e-05Z" fill="#F4F7FB" fill-opacity="0.9"/>
</svg>
