<svg width="209" height="211" viewBox="0 0 209 211" fill="none" xmlns="http://www.w3.org/2000/svg">
<path d="M209.426 21.1524C184.662 21.1524 160.14 26.041 137.261 35.5392C114.382 45.0373 93.5942 58.9589 76.0835 76.5092C58.5727 94.0595 44.6824 114.895 35.2057 137.825C25.7289 160.756 20.8513 185.333 20.8513 210.152L103.752 210.152C103.752 196.244 106.485 182.471 111.796 169.621C117.106 156.772 124.89 145.096 134.703 135.261C144.516 125.426 156.165 117.625 168.986 112.302C181.807 106.979 195.548 104.24 209.426 104.24L209.426 21.1524Z" fill="#F4F7FB" fill-opacity="0.9"/>
<path d="M209.5 0.54156C162.074 0.541562 116.059 16.7132 79.0163 46.3991" stroke="white" stroke-width="1.08316"/>
<path d="M61.7445 61.8901C28.2091 95.5055 7.07904 139.556 1.82689 186.804" stroke="white" stroke-width="1.08316"/>
</svg>
