<svg width="172" height="175" viewBox="0 0 172 175" fill="none" xmlns="http://www.w3.org/2000/svg">
<path d="M25.5373 174.796C24.7497 140.036 36.4352 106.137 58.4916 79.1982" stroke="#F4F7FB" stroke-opacity="0.48"/>
<path d="M42 171.5C42 154.494 45.3625 137.654 51.8956 121.942C58.4288 106.231 68.0045 91.9549 80.0761 79.9297C92.1477 67.9045 106.479 58.3656 122.251 51.8576C138.024 45.3496 154.928 42 172 42L172 84.811C160.572 84.811 149.256 87.0533 138.697 91.4098C128.139 95.7663 118.546 102.152 110.465 110.202C102.384 118.251 95.9739 127.808 91.6006 138.326C87.2272 148.843 84.9763 160.116 84.9763 171.5L42 171.5Z" fill="#F4F7FB" fill-opacity="0.9"/>
<path d="M33.5 171.5C33.5 153.378 37.0823 135.433 44.0424 118.69C51.0026 101.947 61.2042 86.7345 74.0651 73.9199C86.9259 61.1053 102.194 50.9402 118.998 44.0049C135.802 37.0696 153.812 33.5 172 33.5" stroke="#F4F7FB" stroke-opacity="0.48"/>
<path d="M65.4298 71.3193C79.7282 56.2125 97.0961 44.3194 116.374 36.434C135.652 28.5487 156.396 24.8527 177.221 25.5928" stroke="#F4F7FB" stroke-opacity="0.48"/>
</svg>
